<?xml version="1.0" standalone="no"?>
<!DOCTYPE svg PUBLIC "-//W3C//DTD SVG 20010904//EN"
 "http://www.w3.org/TR/2001/REC-SVG-20010904/DTD/svg10.dtd">
<svg version="1.0" xmlns="http://www.w3.org/2000/svg"
 width="1920.000000pt" height="960.000000pt" viewBox="0 0 1920.000000 960.000000"
 preserveAspectRatio="xMidYMid meet">

<g transform="translate(0.000000,960.000000) scale(0.100000,-0.100000)"
fill="#000000" stroke="none">
<path d="M3776 7878 c-20 -28 -22 -131 -3 -146 20 -17 55 12 62 51 7 35 -13
108 -32 114 -6 2 -18 -6 -27 -19z"/>
<path d="M8215 7850 c-7 -12 2 -30 16 -30 12 0 12 27 0 35 -5 3 -12 1 -16 -5z"/>
<path d="M3570 7835 c0 -8 5 -15 10 -15 6 0 10 7 10 15 0 8 -4 15 -10 15 -5 0
-10 -7 -10 -15z"/>
<path d="M3035 7740 c-3 -5 1 -10 9 -10 9 0 16 5 16 10 0 6 -4 10 -9 10 -6 0
-13 -4 -16 -10z"/>
<path d="M2321 7646 c-6 -16 -9 -37 -5 -45 5 -13 8 -11 15 9 6 13 8 33 6 45
-3 17 -5 16 -16 -9z"/>
<path d="M3672 7545 c-15 -33 -16 -83 -2 -69 15 15 29 70 21 83 -5 7 -12 2
-19 -14z"/>
<path d="M8202 7478 c-17 -17 -15 -53 3 -68 19 -16 65 -5 65 15 0 14 3 13 25
-1 27 -18 45 -12 45 16 0 21 -29 35 -43 21 -6 -6 -17 -2 -30 10 -24 22 -48 24
-65 7z"/>
<path d="M1642 7395 c0 -16 2 -22 5 -12 2 9 2 23 0 30 -3 6 -5 -1 -5 -18z"/>
<path d="M2297 7401 c3 -12 10 -21 15 -21 13 0 6 32 -9 37 -7 3 -9 -3 -6 -16z"/>
<path d="M9662 7398 c2 -6 10 -14 16 -16 7 -2 10 2 6 12 -7 18 -28 22 -22 4z"/>
<path d="M7667 7354 c-14 -14 -7 -35 11 -32 9 2 17 10 17 17 0 16 -18 25 -28
15z"/>
<path d="M13780 7316 c0 -13 7 -29 15 -36 12 -10 15 -9 15 8 0 27 -10 52 -21
52 -5 0 -9 -11 -9 -24z"/>
<path d="M7526 7301 c-4 -6 -17 -9 -29 -6 -17 5 -30 -4 -60 -39 -20 -25 -37
-53 -37 -62 0 -10 -10 -28 -22 -41 -18 -20 -19 -23 -4 -23 19 0 37 -39 29 -68
-3 -13 5 -28 24 -46 15 -14 31 -26 35 -26 22 0 3 -18 -31 -30 -24 -8 -38 -18
-37 -28 0 -9 -9 -21 -21 -27 -15 -8 -19 -15 -13 -25 5 -8 6 -18 3 -23 -3 -5
-8 -31 -10 -58 -5 -51 17 -106 37 -94 6 4 14 -5 20 -19 5 -14 14 -26 20 -26 6
0 9 -4 6 -9 -11 -17 45 -4 58 14 12 17 13 16 12 -5 -1 -13 5 -25 13 -28 8 -2
11 -1 8 4 -4 7 64 11 110 5 24 -2 54 -78 47 -119 -5 -35 -3 -42 24 -63 16 -13
37 -36 47 -51 21 -34 68 -58 113 -58 19 0 52 -10 73 -22 37 -21 39 -21 58 -4
11 10 25 34 31 52 9 26 17 34 35 34 16 0 33 12 51 35 14 19 34 35 43 35 25 0
76 54 101 106 29 63 20 117 -27 162 -30 28 -41 32 -89 32 -45 0 -63 6 -100 30
-43 31 -52 51 -34 80 11 18 -6 41 -26 33 -8 -3 -14 -19 -14 -40 0 -30 -3 -34
-17 -28 -10 5 -34 10 -53 13 -19 2 -38 10 -43 18 -10 18 -116 17 -144 -2 -13
-8 -30 -31 -38 -51 -14 -34 -14 -38 6 -72 l21 -36 -23 22 c-18 17 -23 34 -24
76 0 42 -7 64 -28 94 -31 44 -33 53 -13 53 7 0 21 11 30 25 9 14 23 25 31 25
8 0 15 8 15 18 0 10 3 22 7 26 16 16 10 121 -8 152 -37 61 -144 117 -163 85z
m-132 -537 c7 -19 -2 -37 -15 -29 -12 8 -12 45 0 45 5 0 12 -7 15 -16z m56
-34 c0 -5 -4 -10 -10 -10 -5 0 -10 5 -10 10 0 6 5 10 10 10 6 0 10 -4 10 -10z
m187 -34 c0 -8 -6 -12 -15 -9 -11 5 -11 7 0 14 7 5 13 9 14 9 0 0 1 -6 1 -14z
m-59 -13 c-10 -2 -28 -2 -40 0 -13 2 -5 4 17 4 22 1 32 -1 23 -4z m41 -7 c-2
-2 -15 -9 -29 -15 -24 -11 -24 -11 -6 3 16 13 49 24 35 12z"/>
<path d="M9300 7275 c0 -8 7 -15 15 -15 8 0 15 7 15 15 0 8 -7 15 -15 15 -8 0
-15 -7 -15 -15z"/>
<path d="M9170 7265 c0 -10 7 -15 18 -13 21 4 19 22 -2 26 -10 2 -16 -3 -16
-13z"/>
<path d="M7949 7223 c-13 -16 -12 -17 4 -4 9 7 17 15 17 17 0 8 -8 3 -21 -13z"/>
<path d="M1215 7210 c-4 -6 -13 -9 -20 -6 -7 2 -16 -2 -19 -11 -4 -9 -14 -13
-25 -10 -12 3 -24 -5 -35 -24 -10 -16 -21 -27 -27 -24 -5 3 -6 -1 -3 -9 4 -10
1 -16 -10 -16 -12 0 -14 -7 -9 -30 3 -16 2 -30 -3 -30 -5 0 -9 -20 -9 -45 0
-25 3 -45 6 -45 4 0 10 -16 13 -35 4 -21 13 -35 21 -35 13 0 19 -11 17 -31 -1
-4 6 -6 16 -5 11 1 16 -6 16 -17 -2 -14 1 -15 11 -7 10 9 18 7 32 -7 15 -15
23 -17 36 -9 9 6 20 6 24 2 4 -5 2 -11 -4 -13 -7 -3 -13 -11 -13 -20 0 -23 25
-9 28 16 4 27 27 38 47 21 12 -10 15 -9 15 8 0 25 27 36 49 20 14 -12 14 -11
2 5 -16 20 1 49 25 40 11 -4 13 2 8 27 -6 26 -3 32 14 37 17 4 19 8 10 23 -9
14 -9 22 1 33 8 11 9 16 1 19 -6 2 -11 22 -12 45 0 32 -5 42 -19 46 -13 3 -17
11 -13 21 4 11 0 16 -14 16 -21 0 -47 24 -39 37 3 4 -11 8 -31 9 -21 1 -47 4
-58 8 -13 5 -25 3 -29 -4z"/>
<path d="M13830 7210 c0 -8 4 -21 9 -29 6 -9 4 -19 -5 -28 -19 -19 -18 -39 2
-47 27 -10 36 4 29 48 -7 41 -35 87 -35 56z"/>
<path d="M3370 7201 c0 -5 5 -13 10 -16 6 -3 10 -2 10 4 0 5 -4 13 -10 16 -5
3 -10 2 -10 -4z"/>
<path d="M12317 7154 c-13 -13 -7 -42 10 -48 21 -8 36 6 31 30 -3 19 -29 30
-41 18z"/>
<path d="M3176 7102 c-3 -6 3 -21 14 -33 19 -24 19 -24 20 -3 0 24 -25 50 -34
36z"/>
<path d="M9046 7092 c-8 -13 11 -35 23 -28 16 10 14 36 -3 36 -8 0 -17 -4 -20
-8z"/>
<path d="M2022 7063 c-22 -40 -8 -103 23 -103 20 0 27 16 16 37 -5 10 -13 34
-18 53 -9 34 -10 34 -21 13z"/>
<path d="M12540 7061 c-18 -5 -31 -22 -47 -61 -12 -30 -23 -65 -23 -78 0 -31
45 -100 75 -114 37 -16 92 -1 136 39 34 31 39 41 39 78 0 56 -16 100 -44 118
-28 19 -102 28 -136 18z"/>
<path d="M14053 7060 c-29 -12 -49 -44 -63 -101 -10 -39 -9 -52 4 -77 22 -42
73 -82 105 -82 29 0 96 38 119 68 29 38 6 158 -36 181 -27 14 -105 21 -129 11z"/>
<path d="M9231 7016 c-45 -48 9 -118 64 -82 30 20 34 65 7 89 -25 23 -45 21
-71 -7z"/>
<path d="M2390 7011 c0 -6 5 -13 10 -16 6 -3 10 1 10 9 0 9 -4 16 -10 16 -5 0
-10 -4 -10 -9z"/>
<path d="M2984 6936 c-9 -23 5 -68 19 -63 18 6 20 52 3 66 -13 11 -17 10 -22
-3z"/>
<path d="M3640 6911 c0 -16 5 -33 10 -36 6 -4 10 6 10 24 0 16 -4 33 -10 36
-6 4 -10 -6 -10 -24z"/>
<path d="M9004 6895 c-6 -15 2 -35 14 -35 18 1 32 18 26 33 -8 21 -33 22 -40
2z"/>
<path d="M12984 6876 c-15 -24 -15 -28 0 -51 20 -30 47 -32 71 -5 15 16 17 26
9 48 -13 38 -57 42 -80 8z"/>
<path d="M14502 6888 c-17 -17 -15 -63 3 -78 22 -18 64 -4 71 24 12 50 -40 88
-74 54z"/>
<path d="M8436 6872 c-3 -6 -1 -14 5 -17 14 -9 20 -2 10 14 -6 8 -11 9 -15 3z"/>
<path d="M3804 6862 c-16 -10 -34 -48 -34 -71 0 -31 21 -37 42 -11 28 35 22
102 -8 82z"/>
<path d="M6765 6831 c22 -22 105 -41 105 -24 0 18 -24 30 -75 37 l-50 7 20
-20z"/>
<path d="M7326 6831 c-4 -5 -2 -12 3 -15 5 -4 12 -2 15 3 4 5 2 12 -3 15 -5 4
-12 2 -15 -3z"/>
<path d="M3576 6814 c-4 -9 -4 -19 -1 -22 2 -3 7 3 11 12 4 9 4 19 1 22 -2 3
-7 -3 -11 -12z"/>
<path d="M2384 6808 c-5 -7 -7 -36 -6 -64 3 -48 1 -53 -37 -87 -56 -50 -81
-43 -81 25 0 35 -4 48 -12 45 -8 -2 -12 -19 -11 -40 2 -32 -2 -39 -28 -53 -34
-17 -59 -13 -59 11 0 18 -4 19 -31 3 -17 -11 -22 -10 -39 12 -24 31 -25 22 -4
-24 10 -20 14 -42 10 -53 -7 -17 -8 -17 -22 1 -8 11 -14 14 -14 8 0 -7 -6 -12
-13 -12 -24 0 -57 -45 -57 -77 0 -17 -8 -41 -18 -53 -16 -20 -21 -21 -41 -11
-32 18 -41 3 -12 -18 l24 -18 -22 -37 c-13 -20 -29 -36 -38 -36 -11 0 -13 -5
-8 -17 19 -45 17 -62 -10 -87 l-26 -24 23 -4 c17 -2 24 -11 26 -32 2 -16 -1
-33 -7 -39 -6 -6 -11 -26 -11 -43 0 -26 5 -33 22 -36 14 -2 24 -13 29 -29 7
-28 -3 -55 -17 -46 -5 3 -10 -6 -10 -20 -2 -17 2 -23 12 -19 19 7 19 -38 -1
-54 -8 -7 -15 -18 -15 -24 0 -6 -14 -19 -30 -28 -21 -12 -30 -25 -30 -43 0
-31 7 -31 38 -2 l24 22 -7 -55 c-4 -30 -14 -66 -22 -79 -8 -13 -11 -21 -5 -17
6 3 15 -9 21 -27 13 -38 95 -117 121 -117 10 0 20 -5 22 -10 2 -7 14 -7 37 1
30 11 36 10 48 -6 19 -27 16 -40 -17 -78 -33 -39 -38 -68 -14 -92 13 -12 19
-13 31 -4 11 10 13 24 8 61 -4 29 -3 48 3 48 5 0 12 9 15 20 4 17 14 20 54 20
40 0 50 -4 58 -22 17 -39 44 -35 62 11 15 39 33 47 33 14 0 -8 7 -30 16 -49
13 -26 22 -34 43 -34 41 0 71 37 67 82 -3 28 0 37 13 38 45 2 69 1 95 -6 20
-5 27 -4 22 4 -4 6 -22 14 -41 18 -45 8 -51 18 -60 92 -7 63 -7 64 14 53 21
-12 23 -17 25 -56 1 -21 32 -33 48 -17 6 6 -1 22 -21 44 -20 23 -31 47 -33 74
-3 35 -1 39 19 36 12 -2 24 1 27 7 10 15 -12 23 -32 12 -24 -13 -31 -6 -25 20
6 21 29 26 36 7 3 -10 9 -8 24 5 11 9 25 17 31 17 16 0 56 81 53 108 -2 14 3
22 13 22 9 0 16 5 16 10 0 6 -11 8 -25 4 -35 -9 -53 31 -34 75 15 33 18 34 62
31 26 -1 40 18 15 22 -7 0 -17 2 -23 3 -5 2 -16 3 -23 4 -9 1 -12 12 -10 34 2
27 10 35 46 52 48 22 56 40 13 32 -50 -10 -66 29 -34 83 16 28 16 29 -15 58
-36 34 -39 44 -17 62 24 20 17 32 -15 25 -29 -6 -30 -5 -30 27 0 27 -4 34 -21
35 -35 3 -51 24 -46 59 7 40 1 47 -27 29 -17 -11 -26 -11 -52 0 -29 12 -31 17
-38 78 -4 43 -2 74 6 91 9 22 9 29 -4 42 -13 13 -17 14 -24 2z m116 -1013 c0
-8 -4 -15 -10 -15 -5 0 -10 7 -10 15 0 8 5 15 10 15 6 0 10 -7 10 -15z"/>
<path d="M7210 6809 c0 -18 32 -79 41 -79 16 0 9 57 -9 73 -22 20 -32 22 -32
6z"/>
<path d="M8740 6807 c0 -8 7 -20 15 -27 12 -10 15 -10 15 3 0 8 -7 20 -15 27
-12 10 -15 10 -15 -3z"/>
<path d="M2445 6799 c-4 -6 -5 -13 -1 -16 8 -8 56 6 56 17 0 13 -47 13 -55 -1z"/>
<path d="M7270 6801 c0 -6 4 -13 10 -16 6 -3 7 1 4 9 -7 18 -14 21 -14 7z"/>
<path d="M12760 6791 c0 -6 5 -13 10 -16 6 -3 10 1 10 9 0 9 -4 16 -10 16 -5
0 -10 -4 -10 -9z"/>
<path d="M14270 6791 c0 -6 5 -13 10 -16 6 -3 10 1 10 9 0 9 -4 16 -10 16 -5
0 -10 -4 -10 -9z"/>
<path d="M12940 6775 c0 -8 7 -15 15 -15 8 0 15 7 15 15 0 8 -7 15 -15 15 -8
0 -15 -7 -15 -15z"/>
<path d="M14457 6784 c-8 -8 1 -24 14 -24 5 0 9 7 9 15 0 15 -12 20 -23 9z"/>
<path d="M7300 6718 c0 -9 5 -20 10 -23 13 -8 13 5 0 25 -8 13 -10 13 -10 -2z"/>
<path d="M9538 6697 c-16 -6 -28 -18 -28 -27 0 -8 -7 -26 -16 -39 -23 -33 -3
-92 37 -110 34 -15 80 -7 102 17 26 29 32 88 11 120 -34 52 -55 60 -106 39z"/>
<path d="M14111 6670 c-2 -25 -6 -65 -9 -89 -6 -38 -11 -46 -35 -52 -40 -11
-54 -3 -69 37 l-12 34 -14 -26 c-7 -14 -11 -32 -8 -39 3 -8 -12 -33 -32 -56
-35 -39 -39 -41 -54 -26 -9 9 -19 22 -21 29 -5 10 -9 10 -19 -2 -7 -8 -32 -16
-55 -16 -83 -3 -131 -62 -143 -174 -7 -70 -1 -88 49 -142 13 -16 19 -28 13
-28 -17 0 -15 -25 3 -40 8 -7 15 -23 15 -35 0 -12 -7 -28 -15 -35 -17 -14 -20
-40 -6 -40 23 0 40 -31 34 -65 -4 -27 0 -40 21 -65 17 -21 24 -39 20 -54 -3
-15 3 -28 21 -44 16 -14 24 -29 21 -38 -4 -11 -1 -14 12 -10 14 5 30 -9 66
-55 30 -39 53 -59 64 -57 17 3 52 -25 52 -42 0 -14 16 -13 41 3 17 10 23 9 39
-11 10 -12 20 -28 23 -35 3 -9 8 -9 23 1 32 21 48 26 51 16 11 -31 23 -39 41
-28 26 17 48 1 77 -55 13 -27 36 -62 51 -80 22 -27 33 -32 68 -31 80 2 96 -9
96 -72 0 -21 5 -38 10 -38 6 0 10 5 10 10 0 24 20 7 21 -17 1 -17 3 -21 6 -10
5 19 19 23 25 7 2 -6 19 -2 39 9 20 11 39 17 43 14 3 -3 15 6 27 20 11 15 27
27 34 27 7 0 15 10 17 23 2 14 9 21 21 21 13 -2 15 1 7 11 -5 7 -7 27 -4 44 6
30 9 32 38 26 l31 -6 -33 15 c-40 19 -48 38 -35 88 11 41 10 42 -38 38 -40 -2
-88 63 -82 110 4 32 2 37 -29 50 -35 16 -44 36 -34 76 7 26 26 31 56 12 15
-10 22 -10 32 0 9 9 3 15 -26 27 -45 19 -45 44 1 59 43 15 46 30 6 34 -35 3
-39 14 -24 55 8 21 18 25 71 30 34 4 69 12 78 17 13 8 10 9 -16 5 -23 -5 -41
-1 -66 14 -18 12 -41 21 -49 21 -20 0 -35 26 -43 77 -6 38 -5 41 25 51 41 14
42 40 1 34 -16 -2 -30 -1 -30 4 0 5 26 34 57 66 31 32 55 60 52 62 -3 3 -36
-15 -74 -39 -65 -40 -71 -42 -87 -28 -24 21 -23 45 2 61 22 13 27 42 8 42 -6
0 -19 -7 -28 -15 -16 -14 -20 -13 -49 11 -27 23 -31 31 -25 60 7 36 -5 45 -26
19 -21 -25 -40 0 -33 43 6 36 6 37 -14 20 -24 -22 -45 -23 -89 -2 -32 15 -33
18 -27 60 3 24 3 44 -1 44 -3 0 -17 -18 -31 -40 -21 -34 -31 -40 -59 -40 -18
0 -38 6 -44 13 -5 6 -14 48 -20 92 -8 65 -10 72 -11 35z"/>
<path d="M2434 6685 c-9 -23 3 -45 21 -39 20 8 20 54 0 54 -9 0 -18 -7 -21
-15z"/>
<path d="M4623 6684 c-8 -22 10 -49 33 -49 14 0 20 8 22 33 3 29 1 32 -23 32
-14 0 -28 -7 -32 -16z"/>
<path d="M7211 6677 c-14 -35 -14 -54 0 -63 20 -12 30 11 21 52 l-9 39 -12
-28z"/>
<path d="M3495 6650 c-20 -39 -20 -64 1 -56 11 4 25 -3 41 -20 l25 -27 20 21
c26 26 18 68 -17 84 -14 6 -25 15 -25 20 0 20 -31 5 -45 -22z"/>
<path d="M3827 6673 c-4 -3 -7 -15 -7 -25 0 -26 24 -17 28 10 3 21 -8 29 -21
15z"/>
<path d="M7280 6634 c-44 -43 -84 -57 -92 -32 -3 9 -17 8 -54 -4 -38 -13 -51
-14 -59 -4 -5 7 -19 12 -30 12 -11 1 -26 3 -33 5 -14 4 -26 -11 -36 -44 -5
-15 -15 -18 -53 -16 -44 3 -48 2 -51 -21 -5 -34 -17 -46 -69 -72 -60 -30 -70
-44 -49 -66 9 -10 16 -29 16 -42 0 -31 -47 -80 -77 -80 -14 0 -22 -4 -18 -10
4 -6 14 -10 23 -9 38 3 42 -1 42 -45 0 -32 -5 -49 -18 -58 -10 -7 -22 -19 -27
-27 -6 -11 -1 -13 24 -9 27 4 36 0 57 -27 29 -39 30 -60 3 -105 -20 -32 -20
-34 -2 -17 30 26 58 21 109 -23 25 -23 60 -44 76 -47 17 -3 34 -15 40 -28 5
-12 15 -22 21 -23 7 0 24 -3 40 -5 15 -2 27 -1 27 4 0 4 23 7 50 7 47 -1 50
-3 50 -27 l1 -26 15 28 c10 18 21 26 30 23 8 -3 20 -9 28 -12 11 -4 13 0 9 15
-5 19 -2 20 28 15 43 -9 41 -7 48 -51 8 -48 23 -51 44 -9 9 19 30 42 48 51 29
15 32 15 52 -2 l22 -18 -19 22 c-15 19 -16 25 -6 38 14 17 35 21 25 5 -3 -5
-3 -15 1 -21 12 -20 23 13 13 39 -11 28 -4 56 22 93 10 14 16 28 14 31 -3 3 2
26 11 52 13 37 14 52 5 75 -9 19 -9 40 -2 72 11 46 7 68 -31 162 -11 27 -17
55 -14 63 3 8 -3 22 -14 31 -11 10 -20 25 -20 34 0 9 -11 24 -25 33 -14 9 -25
13 -25 9 0 -3 -11 4 -25 17 -14 13 -25 29 -25 36 0 8 -6 11 -14 8 -8 -3 -24
-1 -35 6 -15 8 -21 8 -21 0 0 -6 -5 -8 -10 -5 -8 5 -7 11 1 21 27 33 1 19 -41
-22z"/>
<path d="M6045 6661 c-6 -11 9 -23 19 -14 9 9 7 23 -3 23 -6 0 -12 -4 -16 -9z"/>
<path d="M936 6644 c-11 -28 -6 -43 15 -55 30 -15 54 9 45 45 -5 19 -13 26
-30 26 -13 0 -27 -7 -30 -16z"/>
<path d="M4080 6651 c0 -6 5 -13 10 -16 6 -3 10 1 10 9 0 9 -4 16 -10 16 -5 0
-10 -4 -10 -9z"/>
<path d="M9141 6646 c-8 -9 -10 -28 -5 -50 7 -42 -9 -70 -37 -61 -14 5 -16 2
-12 -16 5 -20 3 -21 -20 -15 -21 5 -27 3 -27 -9 0 -24 -29 -29 -50 -10 -24 22
-27 9 -4 -16 15 -17 15 -21 -5 -62 -12 -25 -33 -57 -46 -71 -19 -20 -20 -26
-8 -26 11 0 14 -6 9 -22 -3 -13 -6 -28 -6 -34 0 -16 -46 -34 -85 -34 -19 0
-35 -4 -35 -10 0 -5 17 -8 37 -7 27 1 38 -2 39 -13 0 -8 2 -21 2 -28 1 -7 15
-18 32 -23 16 -6 32 -19 35 -30 4 -11 22 -23 46 -29 21 -6 50 -22 63 -37 l24
-26 43 22 c41 22 43 22 68 4 17 -11 44 -18 76 -18 42 0 50 3 53 20 2 11 19 36
38 55 33 35 64 104 64 143 0 31 -39 86 -80 112 -28 18 -39 33 -44 60 -5 24
-15 39 -31 47 -23 10 -30 24 -76 141 -23 58 -37 68 -58 43z"/>
<path d="M3867 6634 c-4 -4 -7 -18 -7 -31 0 -25 24 -32 33 -9 7 17 -15 50 -26
40z"/>
<path d="M3720 6600 c0 -5 5 -10 10 -10 6 0 10 5 10 10 0 6 -4 10 -10 10 -5 0
-10 -4 -10 -10z"/>
<path d="M2714 6586 c-7 -19 23 -69 36 -61 16 10 11 41 -10 60 -18 16 -20 16
-26 1z"/>
<path d="M4976 6554 c-7 -19 1 -34 19 -34 8 0 16 4 19 9 9 14 -4 41 -19 41 -7
0 -16 -7 -19 -16z"/>
<path d="M8420 6552 c-19 -16 -22 -24 -16 -55 8 -43 34 -60 73 -51 34 9 43 20
43 60 0 57 -55 82 -100 46z"/>
<path d="M9055 6560 c3 -5 8 -10 11 -10 2 0 4 5 4 10 0 6 -5 10 -11 10 -5 0
-7 -4 -4 -10z"/>
<path d="M4280 6550 c0 -5 5 -10 11 -10 5 0 7 5 4 10 -3 6 -8 10 -11 10 -2 0
-4 -4 -4 -10z"/>
<path d="M4042 6538 c-18 -18 -15 -76 6 -122 55 -121 53 -114 30 -108 -11 3
-23 13 -25 23 -4 14 -12 16 -40 12 -29 -5 -35 -3 -40 16 -6 25 -18 27 -27 5
-3 -8 -14 -14 -24 -12 -11 2 -27 -3 -36 -11 -13 -11 -20 -11 -28 -3 -18 18
-28 14 -28 -12 0 -13 -7 -30 -16 -37 -15 -12 -16 -9 -9 31 6 37 5 43 -6 33 -7
-7 -21 -13 -31 -13 -11 0 -18 -7 -18 -20 0 -11 5 -20 10 -20 6 0 10 -11 10
-23 0 -27 -34 -64 -44 -48 -4 6 -14 7 -22 4 -21 -8 -34 15 -24 43 12 31 0 38
-26 13 -23 -22 -44 -19 -44 7 0 7 9 19 20 26 11 7 20 18 20 25 0 27 -23 23
-60 -11 -53 -47 -67 -46 -75 7 -9 61 -15 77 -27 77 -7 0 -8 -17 -4 -49 7 -51
-7 -78 -25 -50 -8 12 -12 11 -23 -3 -17 -23 -36 -23 -36 0 0 25 -6 30 -35 25
-18 -4 -25 -12 -27 -37 -2 -23 -8 -32 -26 -34 -13 -2 -25 3 -28 12 -11 28 -27
17 -20 -14 7 -36 -9 -41 -18 -6 -4 17 -15 26 -37 31 -17 4 -33 4 -36 1 -3 -3
5 -26 17 -51 12 -25 21 -47 19 -48 -2 -2 -11 -8 -20 -15 -13 -10 -21 -8 -44
10 l-29 22 19 -31 c16 -27 15 -76 -2 -60 -4 5 -57 -16 -71 -28 -2 -2 2 -12 9
-23 11 -18 10 -24 -5 -41 -14 -15 -15 -23 -6 -40 14 -27 -3 -61 -30 -61 -27 0
-36 -20 -12 -27 19 -5 42 -48 42 -80 0 -7 -9 -21 -20 -30 -25 -21 -25 -32 -2
-49 15 -12 15 -15 2 -24 -8 -6 -25 -8 -37 -5 -28 6 -32 -20 -8 -51 13 -16 16
-17 25 -4 5 8 11 19 13 24 5 15 37 -2 37 -20 0 -9 -9 -18 -20 -21 -24 -6 -25
-22 -4 -49 11 -13 17 -15 20 -6 6 14 24 17 24 4 0 -5 -10 -20 -21 -33 -41 -46
-47 -63 -44 -124 1 -33 6 -73 10 -88 6 -22 3 -33 -13 -50 -18 -19 -20 -29 -14
-72 8 -50 12 -54 52 -44 9 3 14 -3 14 -14 -2 -15 6 -17 50 -16 53 2 96 -15 96
-39 0 -7 5 -10 11 -6 17 10 0 -59 -18 -73 -8 -6 -13 -19 -11 -28 2 -12 12 -2
32 29 31 49 62 64 94 47 22 -12 52 -5 52 11 0 6 6 5 15 -2 8 -7 15 -21 15 -32
0 -33 24 -14 35 28 13 51 22 64 45 64 10 0 21 7 24 16 10 26 31 10 28 -20 -5
-37 18 -31 38 11 11 22 30 37 65 52 28 12 56 21 62 21 6 0 15 9 18 20 4 12 21
36 40 54 43 44 54 99 40 210 -8 57 -7 58 12 47 12 -6 26 -24 31 -41 8 -21 16
-28 26 -24 23 9 20 16 -19 54 -26 25 -35 42 -33 60 3 23 7 25 46 22 37 -2 43
1 52 23 5 14 12 25 14 25 3 0 17 -21 32 -46 l27 -45 -27 -28 c-25 -26 -38 -90
-16 -76 6 3 10 17 10 29 0 15 13 33 35 50 41 32 64 26 41 -10 -18 -27 -20 -44
-6 -44 6 0 10 8 10 18 0 27 23 54 41 47 8 -3 20 -18 26 -33 11 -27 11 -26 6 6
-5 31 -5 32 31 32 22 0 36 -5 36 -12 0 -9 3 -9 9 1 8 12 13 11 29 -10 11 -13
23 -21 27 -17 14 14 -4 36 -34 43 -36 8 -37 10 -11 39 10 11 28 32 39 46 16
21 23 23 38 14 15 -9 25 -6 57 22 33 28 40 41 44 82 4 42 1 51 -26 80 -18 19
-40 32 -54 32 -13 0 -30 8 -39 18 -8 9 -28 27 -44 39 l-30 22 18 31 c11 17 17
40 14 50 -4 15 -2 17 12 10 25 -15 138 -50 159 -50 23 0 52 30 52 54 0 29 -42
91 -77 114 -18 12 -48 44 -65 71 -18 27 -45 57 -60 66 -15 8 -30 25 -34 38
-17 55 -77 168 -94 177 -25 13 -53 13 -68 -2z m-152 -737 c0 -6 -4 -13 -10
-16 -5 -3 -10 1 -10 9 0 9 5 16 10 16 6 0 10 -4 10 -9z m29 -117 c-7 -14 -21
-24 -34 -24 -26 0 -52 25 -36 34 6 4 8 13 4 21 -3 10 1 15 12 15 9 0 14 -4 11
-9 -4 -5 3 -7 14 -4 11 3 24 10 27 17 14 21 15 -26 2 -50z"/>
<path d="M6552 6518 c-17 -17 4 -48 32 -48 15 0 26 7 29 19 9 34 -35 55 -61
29z"/>
<path d="M3470 6500 c0 -11 5 -20 10 -20 6 0 10 9 10 20 0 11 -4 20 -10 20 -5
0 -10 -9 -10 -20z"/>
<path d="M6420 6496 c0 -28 24 -41 40 -21 16 20 5 45 -20 45 -14 0 -20 -7 -20
-24z"/>
<path d="M3260 6470 c0 -5 5 -10 10 -10 6 0 10 5 10 10 0 6 -4 10 -10 10 -5 0
-10 -4 -10 -10z"/>
<path d="M8604 6465 c-4 -9 -2 -21 4 -27 16 -16 47 -5 47 17 0 26 -42 34 -51
10z"/>
<path d="M12233 6459 c-73 -21 -123 -133 -102 -227 12 -57 47 -96 105 -118 41
-16 45 -15 87 5 24 11 48 21 54 21 15 0 62 71 63 95 0 11 3 38 6 60 6 47 -26
118 -66 146 -31 21 -105 30 -147 18z"/>
<path d="M5697 6423 c-4 -3 -7 -11 -7 -17 0 -6 5 -5 12 2 6 6 9 14 7 17 -3 3
-9 2 -12 -2z"/>
<path d="M8860 6375 c0 -9 5 -15 11 -13 6 2 11 8 11 13 0 5 -5 11 -11 13 -6 2
-11 -4 -11 -13z"/>
<path d="M3434 6369 c-8 -14 11 -33 25 -25 16 10 13 36 -3 36 -8 0 -18 -5 -22
-11z"/>
<path d="M5872 6368 c-17 -17 -15 -48 4 -55 8 -3 22 1 31 9 12 12 13 20 4 37
-13 24 -22 26 -39 9z"/>
<path d="M9662 6348 c6 -18 28 -21 28 -4 0 9 -7 16 -16 16 -9 0 -14 -5 -12
-12z"/>
<path d="M9420 6340 c0 -5 5 -10 10 -10 6 0 10 5 10 10 0 6 -4 10 -10 10 -5 0
-10 -4 -10 -10z"/>
<path d="M1626 6312 c-3 -5 -25 -9 -48 -9 -32 0 -45 -5 -56 -22 -8 -11 -21
-21 -29 -21 -8 0 -11 -5 -7 -11 3 -6 1 -15 -5 -19 -15 -9 -24 -117 -10 -126 6
-4 6 -11 -2 -20 -9 -11 -7 -14 10 -14 15 0 25 -9 32 -30 6 -16 17 -30 25 -30
8 0 14 -5 14 -11 0 -6 7 -9 15 -5 8 3 19 -2 24 -12 6 -10 11 -12 11 -4 0 18
27 15 38 -5 8 -14 10 -14 17 6 5 16 13 21 26 18 11 -3 19 0 19 8 0 7 9 15 20
18 12 3 20 14 20 26 0 12 5 21 11 21 5 0 7 5 4 10 -3 6 -3 15 1 22 11 17 11
88 1 88 -5 0 -7 6 -4 14 3 8 -1 17 -9 20 -8 3 -14 15 -14 26 0 12 -4 19 -9 15
-5 -3 -16 4 -24 15 -7 11 -17 17 -20 13 -4 -3 -15 2 -26 11 -10 10 -22 13 -25
8z"/>
<path d="M8868 6313 c6 -2 18 -2 25 0 6 3 1 5 -13 5 -14 0 -19 -2 -12 -5z"/>
<path d="M6560 6270 c-12 -8 -12 -10 3 -16 20 -7 47 1 47 16 0 12 -30 13 -50
0z"/>
<path d="M1320 6246 c0 -8 14 -19 30 -25 17 -5 30 -9 30 -7 0 1 -13 12 -30 24
-22 17 -30 19 -30 8z"/>
<path d="M3090 6241 c0 -6 4 -13 10 -16 6 -3 7 1 4 9 -7 18 -14 21 -14 7z"/>
<path d="M11200 6236 c0 -15 37 -32 47 -22 9 8 -17 36 -33 36 -8 0 -14 -6 -14
-14z"/>
<path d="M12710 6236 c0 -15 37 -32 47 -22 9 8 -17 36 -33 36 -8 0 -14 -6 -14
-14z"/>
<path d="M9780 6215 c0 -8 7 -15 15 -15 8 0 15 7 15 15 0 8 -7 15 -15 15 -8 0
-15 -7 -15 -15z"/>
<path d="M9610 6212 c0 -5 7 -13 16 -16 10 -4 14 -1 12 6 -5 15 -28 23 -28 10z"/>
<path d="M11523 6209 c-7 -7 -32 -17 -57 -23 -37 -10 -53 -22 -94 -73 -43 -54
-51 -71 -62 -138 -9 -55 -10 -79 -2 -87 6 -6 8 -24 5 -41 -4 -21 -2 -32 10
-39 10 -5 17 -20 17 -34 0 -16 8 -28 25 -36 34 -15 31 -25 -9 -32 -18 -4 -52
-23 -75 -45 -39 -36 -41 -41 -41 -95 0 -52 3 -60 33 -87 17 -16 48 -34 68 -40
30 -10 42 -8 77 10 62 32 76 59 69 135 l-6 63 68 -1 c66 -1 70 0 113 39 108
97 111 98 161 99 40 1 53 6 72 28 34 40 67 133 56 160 -21 55 -109 116 -146
102 -10 -4 -37 15 -81 60 -61 61 -68 66 -109 66 -24 0 -47 5 -50 10 -8 13 -28
13 -42 -1z"/>
<path d="M13035 6208 c-10 -6 -37 -17 -60 -23 -56 -17 -140 -119 -150 -184
-13 -87 -6 -167 18 -203 10 -15 16 -32 12 -38 -3 -5 5 -14 19 -20 30 -11 35
-30 9 -30 -24 0 -79 -35 -108 -68 -19 -22 -23 -36 -21 -80 3 -62 37 -106 96
-123 31 -10 43 -8 78 10 68 35 89 86 69 167 l-8 31 74 -1 c71 -1 75 0 108 34
85 86 114 105 162 105 53 0 90 28 107 81 8 22 18 34 30 34 26 0 44 27 44 65 0
43 -19 65 -56 65 -17 0 -43 9 -59 21 -16 11 -46 22 -67 22 -31 2 -47 12 -99
65 -58 58 -64 62 -107 62 -25 0 -46 5 -46 10 0 13 -20 12 -45 -2z"/>
<path d="M1284 6196 c-4 -10 -2 -22 4 -28 8 -8 13 -7 18 6 4 10 2 22 -4 28 -8
8 -13 7 -18 -6z"/>
<path d="M1778 6203 c7 -3 16 -2 19 1 4 3 -2 6 -13 5 -11 0 -14 -3 -6 -6z"/>
<path d="M7670 6200 c0 -5 5 -10 10 -10 6 0 10 5 10 10 0 6 -4 10 -10 10 -5 0
-10 -4 -10 -10z"/>
<path d="M9681 6200 c0 -8 4 -22 9 -30 12 -18 12 -2 0 25 -6 13 -9 15 -9 5z"/>
<path d="M8690 6160 c0 -11 4 -20 9 -20 13 0 32 26 24 33 -13 14 -33 6 -33
-13z"/>
<path d="M10348 6163 c7 -3 16 -2 19 1 4 3 -2 6 -13 5 -11 0 -14 -3 -6 -6z"/>
<path d="M12060 6140 c0 -5 5 -10 10 -10 6 0 10 5 10 10 0 6 -4 10 -10 10 -5
0 -10 -4 -10 -10z"/>
<path d="M13570 6140 c0 -5 5 -10 10 -10 6 0 10 5 10 10 0 6 -4 10 -10 10 -5
0 -10 -4 -10 -10z"/>
<path d="M7812 6118 c-18 -18 -15 -69 6 -84 56 -43 123 27 79 84 -12 15 -69
16 -85 0z"/>
<path d="M8500 6123 c-63 -10 -72 -15 -86 -48 -8 -19 -14 -48 -14 -65 0 -35
-28 -94 -60 -128 -17 -18 -25 -21 -36 -11 -8 6 -18 9 -22 5 -4 -4 0 -13 10
-20 12 -9 14 -16 6 -30 -6 -10 -18 -46 -27 -80 -15 -53 -22 -63 -52 -77 -58
-28 -87 -31 -103 -12 -8 10 -23 28 -33 40 -24 29 -119 37 -136 11 -26 -40 36
-110 139 -157 23 -11 57 -33 76 -50 20 -17 55 -38 78 -46 49 -17 50 -17 50 -7
0 4 -20 13 -44 21 -51 15 -113 62 -102 79 4 6 31 19 61 28 46 15 56 15 70 4
24 -20 55 -85 55 -115 0 -14 7 -28 15 -31 8 -3 17 -14 20 -25 7 -20 -25 -102
-44 -113 -18 -12 -13 -33 10 -39 15 -4 20 -11 16 -21 -8 -20 3 -20 29 -1 26
20 118 20 134 0 11 -13 16 -14 34 -1 24 15 76 18 76 4 0 -15 20 2 50 43 20 29
30 36 37 26 17 -20 4 -84 -18 -90 -29 -8 -23 -35 9 -39 25 -3 27 -7 27 -45 0
-23 6 -47 13 -54 6 -7 12 -19 12 -26 0 -14 -34 -35 -43 -26 -4 3 -13 0 -21 -6
-8 -7 -23 -10 -34 -7 -16 5 -18 2 -14 -22 3 -26 0 -31 -36 -45 -22 -9 -43 -20
-46 -26 -10 -16 5 -41 30 -47 14 -4 29 -15 35 -25 5 -11 29 -31 51 -46 l42
-26 42 22 c30 16 43 31 47 51 8 39 60 76 132 94 47 12 67 24 92 53 18 21 45
52 61 70 42 46 60 169 29 199 -4 4 -7 14 -7 21 0 8 -11 31 -25 51 -14 20 -25
44 -25 53 0 10 -13 28 -29 42 -26 21 -35 24 -71 17 -22 -4 -49 -15 -59 -24
-12 -11 -32 -16 -56 -14 -33 2 -42 -3 -70 -36 -18 -21 -35 -35 -38 -30 -7 11
9 41 46 85 16 19 50 65 77 103 l50 70 72 2 c40 2 76 3 81 3 4 1 13 12 19 26
14 30 28 32 35 5 8 -29 87 -74 117 -66 14 3 34 2 47 -2 18 -7 29 -2 59 27 50
48 56 82 19 117 -16 15 -26 31 -23 36 3 4 0 8 -5 8 -6 0 -11 9 -11 21 0 15 -5
19 -15 15 -8 -3 -15 -1 -15 5 0 18 -32 79 -41 79 -5 0 -9 -13 -9 -30 0 -20 -5
-30 -15 -30 -8 0 -15 -5 -15 -11 0 -5 -4 -7 -10 -4 -5 3 -10 1 -10 -5 0 -7 -7
-10 -14 -7 -10 4 -13 1 -9 -9 3 -8 -2 -25 -10 -37 -8 -13 -17 -34 -19 -48 -1
-13 -11 -25 -20 -27 -15 -3 -16 1 -8 29 12 42 -2 98 -32 127 -24 22 -104 61
-126 62 -8 0 -25 -9 -39 -20 -35 -27 -61 -25 -73 6 -17 45 -12 74 15 84 15 6
25 17 25 30 0 30 -25 35 -55 12 -42 -33 -80 -12 -96 54 -15 58 -30 70 -74 57
-26 -8 -38 -8 -52 3 -17 13 -51 15 -103 7z"/>
<path d="M5380 6081 c-26 -7 -50 -43 -50 -76 0 -27 46 -75 71 -75 29 0 69 48
69 82 0 17 -10 39 -25 53 -26 27 -26 27 -65 16z"/>
<path d="M1412 6044 c4 -21 22 -23 26 -1 2 10 -3 17 -13 17 -10 0 -15 -6 -13
-16z"/>
<path d="M6350 6041 c0 -8 -8 -20 -17 -27 -15 -10 -21 -10 -35 3 -16 14 -19
12 -34 -26 -21 -52 -49 -70 -64 -41 -12 23 -35 28 -26 5 3 -8 9 -21 12 -29 8
-22 -55 -88 -77 -81 -14 5 -19 1 -19 -14 0 -12 -4 -21 -10 -21 -5 0 -10 -12
-10 -28 0 -15 -7 -38 -16 -50 -17 -25 -62 -30 -70 -7 -9 22 -21 18 -28 -10 -9
-35 -40 -33 -55 3 -7 16 -11 33 -10 38 4 14 -17 59 -34 73 -37 30 -116 17
-135 -22 -23 -47 -23 -78 -2 -112 21 -34 38 -45 70 -45 32 0 32 -17 0 -63 -16
-25 -30 -51 -30 -58 0 -8 -7 -32 -15 -54 -17 -49 -19 -109 -3 -134 6 -10 8
-27 4 -37 -7 -19 -8 -19 -21 0 -8 11 -12 29 -9 43 5 17 2 23 -10 23 -8 0 -25
18 -36 40 -17 34 -24 39 -44 34 -19 -4 -27 0 -37 18 -16 32 -15 31 -39 18 -27
-14 -66 -6 -74 16 -4 9 0 27 9 40 8 13 15 31 15 40 0 15 -4 14 -25 -6 -14 -13
-25 -29 -25 -37 0 -7 -17 -20 -37 -29 -36 -15 -40 -14 -80 8 -31 16 -43 29
-43 45 0 13 -4 23 -10 23 -5 0 -7 -13 -4 -29 5 -25 2 -31 -25 -44 -35 -18 -37
-16 -15 18 8 13 14 34 13 47 -4 26 35 88 55 88 8 0 16 -13 19 -28 15 -73 151
-66 193 10 18 32 17 103 -1 138 -15 29 -15 30 5 30 27 0 70 43 70 71 0 33 -47
89 -74 89 -13 0 -36 -12 -51 -26 -24 -22 -27 -31 -22 -65 5 -41 3 -43 -41 -39
-15 1 -35 -11 -57 -34 -40 -43 -49 -44 -71 -11 -9 14 -24 25 -34 25 -10 0 -20
6 -23 13 -2 6 -38 30 -78 51 -41 21 -83 47 -94 57 -11 9 -39 22 -62 28 -36 10
-48 9 -75 -6 -18 -9 -43 -16 -55 -14 -17 2 -23 -3 -23 -17 0 -29 -24 -43 -67
-40 -35 3 -38 1 -41 -24 -2 -19 -12 -31 -33 -40 -16 -7 -29 -16 -29 -20 0 -4
-7 -5 -15 -2 -14 6 -13 8 2 19 17 12 17 15 0 49 -19 41 -36 51 -71 42 -38 -9
-56 -34 -56 -75 0 -44 24 -71 62 -71 14 0 28 -6 31 -14 7 -17 -1 -26 -23 -26
-9 0 -25 -9 -35 -20 l-18 -20 -22 20 c-26 24 -53 26 -83 4 -27 -19 -30 -69 -5
-96 9 -11 17 -31 18 -46 0 -25 3 -27 36 -24 32 2 38 -1 43 -22 3 -13 17 -37
30 -53 35 -42 58 -92 51 -113 -3 -10 0 -22 6 -26 9 -5 7 -11 -5 -20 -24 -17
-16 -48 12 -52 13 -2 26 -11 29 -20 3 -9 13 -25 21 -35 13 -15 13 -23 2 -60
-7 -23 -17 -46 -22 -52 -9 -10 -11 -45 -2 -45 3 0 18 8 32 18 52 36 61 35 110
-13 25 -25 53 -45 62 -45 10 0 20 -9 23 -20 3 -12 14 -20 26 -20 13 0 19 5 15
14 -9 22 47 28 71 7 17 -15 33 -17 107 -12 86 6 87 6 110 41 26 39 67 51 88
26 7 -9 21 -16 31 -16 10 0 25 -13 33 -29 15 -28 57 -48 77 -36 5 4 23 -1 41
-9 42 -22 75 -20 88 4 6 11 19 20 30 20 29 0 80 33 80 52 0 10 9 22 20 28 11
6 20 21 20 34 0 13 7 27 16 30 12 4 14 14 9 36 -4 17 -2 36 3 43 6 7 12 23 14
37 4 24 5 23 21 -12 9 -21 17 -49 17 -63 0 -18 5 -25 19 -25 11 0 29 -13 40
-29 13 -18 37 -34 66 -42 25 -7 45 -19 45 -26 0 -18 20 -27 33 -14 6 6 26 11
45 11 25 0 35 -5 39 -20 5 -19 23 -29 23 -12 0 15 66 41 81 31 23 -14 29 -11
29 16 0 20 5 25 26 25 18 0 28 6 31 21 3 12 17 22 34 26 21 4 29 12 31 32 2
20 8 25 26 24 14 -2 22 3 22 13 0 11 6 14 23 9 12 -4 26 -11 31 -16 15 -14 23
-11 29 11 6 23 54 28 77 8 12 -11 12 -10 1 5 -18 23 0 67 28 67 30 0 35 -19
13 -43 -62 -67 -7 -187 74 -160 37 12 67 55 66 92 -1 35 -28 81 -48 81 -8 0
-28 13 -46 29 -29 26 -31 31 -20 55 12 26 36 34 47 16 3 -5 13 -10 21 -10 13
0 13 4 1 28 -18 35 -12 52 19 52 22 0 23 2 12 25 -8 19 -8 29 0 37 7 7 7 19 1
35 -6 16 -5 30 4 45 9 16 9 22 0 25 -7 3 -13 13 -13 24 0 12 5 16 14 13 8 -3
17 -1 20 4 3 5 -3 12 -14 15 -26 7 -27 62 -3 97 14 20 14 22 2 13 -13 -11 -19
-10 -31 5 -21 24 -27 44 -17 64 7 13 5 15 -10 11 -23 -6 -51 31 -51 65 0 20
-4 23 -22 19 -30 -8 -48 9 -48 46 0 29 -1 29 -18 14 -36 -33 -53 -17 -44 41 3
20 0 32 -7 32 -6 0 -11 -9 -11 -19 0 -14 -5 -18 -20 -14 -11 3 -20 9 -20 14 0
4 -12 6 -27 3 -15 -3 -30 0 -34 8 -7 10 -9 10 -9 -1z m-1750 -215 c0 -2 -7 -7
-16 -10 -8 -3 -12 -2 -9 4 6 10 25 14 25 6z m1278 -177 c-19 -13 -28 -11 -28
6 0 21 34 38 38 18 2 -9 -2 -19 -10 -24z m-793 -53 c-4 -27 -2 -52 5 -66 10
-18 9 -24 -1 -31 -10 -6 -6 -9 14 -9 30 0 32 -3 17 -31 -14 -26 -35 -24 -57 4
-10 13 -32 28 -48 34 -47 15 -45 47 6 99 57 58 72 58 64 0z m992 -30 c-4 -9
-12 -16 -19 -16 -10 0 -9 3 1 9 9 6 11 16 7 27 -6 15 -4 16 5 7 6 -6 9 -19 6
-27z m-1410 18 c-3 -3 -12 -4 -19 -1 -8 3 -5 6 6 6 11 1 17 -2 13 -5z m38 -15
c-4 -5 -12 -9 -18 -8 -9 0 -8 2 1 6 6 2 9 10 6 15 -4 7 -2 8 5 4 6 -4 9 -12 6
-17z m-35 -5 c0 -2 -14 -4 -31 -4 -16 0 -28 4 -25 9 5 8 56 3 56 -5z m520 -94
c0 -5 -4 -10 -9 -10 -6 0 -13 5 -16 10 -3 6 1 10 9 10 9 0 16 -4 16 -10z m944
-69 c3 -4 -6 -6 -19 -3 -14 2 -25 6 -25 8 0 8 39 4 44 -5z m-1468 -92 c3 -6 2
-15 -4 -21 -7 -7 -14 -3 -21 11 -10 17 -9 21 3 21 8 0 18 -5 22 -11z m1590
-41 c4 -7 4 -10 -1 -6 -4 4 -15 2 -24 -5 -14 -11 -14 -10 -2 6 16 20 18 21 27
5z"/>
<path d="M9440 6040 c0 -5 5 -10 10 -10 6 0 10 5 10 10 0 6 -4 10 -10 10 -5 0
-10 -4 -10 -10z"/>
<path d="M9710 6000 c0 -5 5 -10 10 -10 6 0 10 5 10 10 0 6 -4 10 -10 10 -5 0
-10 -4 -10 -10z"/>
<path d="M8123 5970 c-31 -29 -29 -66 6 -101 59 -59 131 -23 118 58 -8 46 -16
53 -63 60 -31 4 -44 0 -61 -17z"/>
<path d="M11232 5981 c4 -13 18 -16 19 -4 0 4 -5 9 -11 12 -7 2 -11 -2 -8 -8z"/>
<path d="M12746 5981 c-4 -5 -2 -12 3 -15 5 -4 12 -2 15 3 4 5 2 12 -3 15 -5
4 -12 2 -15 -3z"/>
<path d="M9765 5954 c-10 -10 -26 -19 -36 -19 -24 -2 -49 -34 -41 -54 3 -9 1
-12 -6 -7 -12 7 -25 -1 -61 -37 -11 -10 -25 -15 -35 -11 -24 9 -56 -23 -56
-56 0 -34 21 -52 57 -50 34 2 73 -9 73 -21 0 -5 7 -9 15 -9 8 0 15 -6 15 -12
0 -9 3 -9 9 1 8 12 13 11 30 -10 11 -13 20 -29 21 -36 0 -7 7 -10 15 -7 11 5
15 -1 15 -21 0 -23 2 -25 14 -16 12 10 20 9 42 -5 25 -17 27 -17 39 -1 16 22
22 21 28 0 4 -13 5 -12 6 5 0 12 8 25 16 28 8 3 19 22 26 42 14 44 28 64 40
57 4 -3 13 4 19 16 9 15 15 18 23 10 16 -16 45 -13 55 5 7 13 13 14 30 5 11
-6 47 -11 80 -11 41 0 63 -5 72 -15 18 -21 37 -19 64 9 l24 23 26 -29 c14 -17
26 -36 26 -42 0 -7 9 -23 20 -36 11 -13 20 -26 20 -30 0 -4 37 -10 82 -14 46
-4 87 -11 92 -16 14 -14 50 -12 64 2 21 21 12 62 -23 102 -23 25 -40 36 -50
32 -10 -4 -19 2 -25 17 -16 39 -37 57 -69 61 -35 4 -61 22 -61 42 0 17 -19 18
-55 4 -23 -9 -32 -6 -56 14 -16 14 -36 22 -47 19 -12 -3 -24 4 -36 21 -9 14
-27 33 -41 42 -22 14 -30 15 -72 3 -32 -10 -52 -23 -62 -41 -21 -36 -40 -35
-76 2 -16 17 -37 30 -47 30 -10 0 -18 4 -18 8 0 5 -24 8 -52 8 -29 -1 -67 3
-84 7 -24 6 -36 4 -49 -9z"/>
<path d="M8030 5924 c0 -8 5 -12 10 -9 6 3 10 10 10 16 0 5 -4 9 -10 9 -5 0
-10 -7 -10 -16z"/>
<path d="M9640 5926 c0 -2 8 -10 18 -17 15 -13 16 -12 3 4 -13 16 -21 21 -21
13z"/>
<path d="M1527 5904 c-4 -4 -7 -16 -7 -26 0 -14 6 -19 23 -16 14 2 22 10 22
23 0 20 -25 32 -38 19z"/>
<path d="M9418 5883 c-38 -42 -44 -88 -13 -119 54 -54 112 -9 99 76 -7 42 -26
70 -48 70 -7 0 -24 -12 -38 -27z"/>
<path d="M10922 5867 c-14 -17 2 -42 22 -34 20 8 20 21 2 36 -10 8 -16 8 -24
-2z"/>
<path d="M6699 5853 c-13 -16 -12 -17 4 -4 9 7 17 15 17 17 0 8 -8 3 -21 -13z"/>
<path d="M2832 5819 c-6 -14 -26 -37 -45 -52 -32 -24 -46 -54 -52 -111 -3 -25
41 -89 68 -100 31 -12 69 -16 90 -10 31 10 77 83 77 123 0 37 -32 101 -50 101
-6 0 -26 17 -45 37 l-34 37 -9 -25z"/>
<path d="M837 5800 c4 -14 -1 -21 -21 -26 -14 -3 -26 -12 -26 -20 0 -8 -5 -14
-11 -14 -5 0 -8 -4 -5 -9 3 -5 -1 -14 -9 -21 -8 -7 -12 -16 -9 -21 3 -5 1 -9
-3 -9 -5 0 -8 -12 -7 -27 1 -16 3 -28 4 -28 2 0 4 -11 5 -25 6 -48 12 -63 28
-75 9 -7 17 -17 17 -23 0 -6 7 -9 16 -5 10 4 17 -1 20 -14 4 -15 12 -19 31
-15 18 3 30 -1 40 -13 11 -16 13 -17 13 -3 0 12 8 16 27 15 16 -1 35 5 46 16
10 10 22 15 26 12 5 -2 12 6 15 20 4 14 13 25 20 25 9 0 12 7 9 20 -3 11 -1
20 4 20 5 0 9 10 9 23 -1 16 5 23 22 25 30 5 28 28 -5 44 -21 10 -28 21 -28
41 1 16 -5 27 -13 27 -7 0 -19 14 -26 30 -7 17 -15 27 -19 24 -4 -4 -13 -2
-20 4 -8 7 -17 9 -20 5 -4 -3 -7 -2 -7 3 0 11 -60 11 -78 0 -6 -4 -20 -2 -31
3 -16 9 -18 8 -14 -9z"/>
<path d="M10774 5788 c7 -38 13 -45 25 -32 14 14 1 64 -16 64 -12 0 -14 -7 -9
-32z"/>
<path d="M7300 5780 c5 -18 12 -35 16 -39 10 -9 -6 53 -17 63 -5 6 -5 -4 1
-24z"/>
<path d="M7330 5750 c0 -5 4 -10 9 -10 6 0 13 5 16 10 3 6 -1 10 -9 10 -9 0
-16 -4 -16 -10z"/>
<path d="M11944 5749 c-10 -17 13 -36 27 -22 12 12 4 33 -11 33 -5 0 -12 -5
-16 -11z"/>
<path d="M13460 5741 c0 -12 6 -21 16 -21 9 0 14 7 12 17 -5 25 -28 28 -28 4z"/>
<path d="M1390 5710 c0 -5 -9 -19 -20 -30 -25 -25 -18 -40 20 -40 37 0 42 10
27 49 -11 30 -27 42 -27 21z"/>
<path d="M5562 5699 c-19 -29 -1 -45 22 -20 10 11 15 25 11 30 -9 16 -19 13
-33 -10z"/>
<path d="M9435 5690 c-3 -5 -1 -10 4 -10 6 0 11 5 11 10 0 6 -2 10 -4 10 -3 0
-8 -4 -11 -10z"/>
<path d="M7075 5656 c-12 -18 -13 -30 -5 -50 12 -33 34 -42 66 -28 32 15 33
64 2 86 -31 22 -45 20 -63 -8z"/>
<path d="M7538 5660 c-15 -4 -29 -5 -32 -2 -3 3 -6 0 -6 -7 0 -7 -11 -11 -27
-9 -16 2 -27 -1 -27 -7 1 -5 4 -25 8 -43 5 -28 2 -34 -16 -41 l-22 -8 22 -12
c12 -6 22 -18 22 -26 0 -9 10 -15 25 -15 14 0 25 -4 25 -9 0 -5 13 -14 29 -19
23 -8 32 -7 42 4 6 8 17 14 25 14 7 0 21 14 31 30 9 17 21 30 25 30 13 0 8
-44 -7 -64 -8 -11 -15 -23 -15 -26 0 -11 114 -4 138 9 12 6 22 9 22 5 0 -4 9
5 20 19 30 38 26 83 -11 117 -44 42 -64 45 -102 16 -35 -27 -57 -33 -57 -16 0
16 -69 73 -82 69 -2 0 -15 -4 -30 -9z"/>
<path d="M10065 5660 c-4 -6 -3 -16 3 -22 6 -6 12 -6 17 2 4 6 3 16 -3 22 -6
6 -12 6 -17 -2z"/>
<path d="M10775 5658 c-15 -44 -8 -89 15 -95 11 -3 20 -11 20 -18 0 -21 37
-47 59 -40 32 10 36 42 10 99 -13 28 -28 54 -34 58 -16 12 -65 9 -70 -4z"/>
<path d="M9680 5646 c0 -8 4 -17 9 -20 11 -7 33 18 24 27 -12 12 -33 7 -33 -7z"/>
<path d="M4269 5628 c9 -26 31 -36 31 -14 0 8 -9 20 -20 26 -17 9 -19 8 -11
-12z"/>
<path d="M12530 5639 c0 -5 5 -7 10 -4 6 3 10 8 10 11 0 2 -4 4 -10 4 -5 0
-10 -5 -10 -11z"/>
<path d="M1770 5620 c0 -5 5 -10 11 -10 5 0 7 5 4 10 -3 6 -8 10 -11 10 -2 0
-4 -4 -4 -10z"/>
<path d="M10928 5613 c6 -2 18 -2 25 0 6 3 1 5 -13 5 -14 0 -19 -2 -12 -5z"/>
<path d="M9995 5591 c-3 -5 -1 -12 5 -16 5 -3 10 1 10 9 0 18 -6 21 -15 7z"/>
<path d="M1567 5584 c-11 -11 3 -24 18 -18 8 4 12 10 9 15 -6 11 -18 12 -27 3z"/>
<path d="M3920 5565 c0 -8 5 -15 10 -15 6 0 10 7 10 15 0 8 -4 15 -10 15 -5 0
-10 -7 -10 -15z"/>
<path d="M10607 5563 c-13 -12 -7 -51 9 -57 19 -7 54 10 54 27 0 28 -45 49
-63 30z"/>
<path d="M4150 5531 c0 -12 5 -21 10 -21 6 0 10 6 10 14 0 8 -4 18 -10 21 -5
3 -10 -3 -10 -14z"/>
<path d="M5661 5539 c-13 -5 -21 -12 -18 -15 9 -9 57 5 57 16 0 12 -7 12 -39
-1z"/>
<path d="M4067 5533 c-11 -10 -8 -43 3 -43 6 0 10 11 10 25 0 26 -2 29 -13 18z"/>
<path d="M6850 5530 c0 -5 5 -10 10 -10 6 0 10 5 10 10 0 6 -4 10 -10 10 -5 0
-10 -4 -10 -10z"/>
<path d="M7925 5498 c-15 -22 -14 -24 6 -40 26 -22 30 -22 54 -4 17 12 18 18
7 40 -14 32 -45 34 -67 4z"/>
<path d="M1967 5484 c-8 -8 1 -24 14 -24 5 0 9 7 9 15 0 15 -12 20 -23 9z"/>
<path d="M7197 5484 c-11 -11 -8 -62 3 -69 18 -11 50 15 50 40 0 14 -4 25 -9
25 -5 0 -16 2 -23 5 -8 3 -17 2 -21 -1z"/>
<path d="M9366 5474 c-8 -20 11 -44 34 -44 21 0 32 34 17 49 -16 16 -44 13
-51 -5z"/>
<path d="M10170 5482 c-14 -2 -28 -9 -32 -16 -14 -21 -8 -63 10 -79 50 -45
114 13 82 72 -11 22 -27 28 -60 23z"/>
<path d="M9595 5470 c-12 -20 6 -51 28 -48 31 4 31 52 0 56 -11 2 -24 -2 -28
-8z"/>
<path d="M2832 5463 c-25 -10 -34 -53 -17 -79 30 -46 95 -17 95 42 0 29 -45
50 -78 37z"/>
<path d="M9453 5463 c-22 -8 -15 -43 7 -43 13 0 20 7 20 19 0 22 -9 30 -27 24z"/>
<path d="M10732 5448 c-12 -15 10 -78 28 -78 14 0 50 37 50 53 0 33 -56 51
-78 25z"/>
<path d="M4340 5440 c0 -5 14 -10 31 -10 17 0 28 4 24 10 -3 6 -17 10 -31 10
-13 0 -24 -4 -24 -10z"/>
<path d="M10640 5440 c0 -5 14 -10 30 -10 17 0 30 5 30 10 0 6 -13 10 -30 10
-16 0 -30 -4 -30 -10z"/>
<path d="M11493 5443 c-18 -7 -16 -42 3 -50 8 -3 23 1 31 10 13 13 14 19 3 31
-13 17 -17 18 -37 9z"/>
<path d="M13000 5435 c-10 -12 -10 -18 0 -30 7 -8 18 -15 26 -15 19 0 29 41
13 51 -19 12 -25 11 -39 -6z"/>
<path d="M14884 5418 c-26 -20 -29 -27 -23 -55 9 -46 26 -63 64 -63 64 0 90
79 39 119 -34 26 -43 26 -80 -1z"/>
<path d="M2174 5419 c-10 -17 13 -36 27 -22 12 12 4 33 -11 33 -5 0 -12 -5
-16 -11z"/>
<path d="M4465 5419 c-4 -6 -2 -15 5 -19 17 -10 42 -1 37 14 -5 16 -34 19 -42
5z"/>
<path d="M8016 5422 c-8 -13 11 -35 23 -28 6 4 11 11 11 16 0 11 -28 21 -34
12z"/>
<path d="M12547 5424 c-8 -8 3 -34 14 -34 11 0 12 27 0 34 -4 3 -11 3 -14 0z"/>
<path d="M14060 5418 c0 -9 5 -20 11 -23 17 -11 20 0 4 21 -13 17 -14 17 -15
2z"/>
<path d="M9770 5410 c-30 -7 -50 -52 -34 -78 6 -9 23 -21 39 -27 23 -8 30 -6
51 18 19 22 22 32 13 50 -14 31 -39 45 -69 37z"/>
<path d="M3872 5399 c2 -6 8 -10 13 -10 5 0 11 4 13 10 2 6 -4 11 -13 11 -9 0
-15 -5 -13 -11z"/>
<path d="M7878 5403 c-9 -2 -24 -20 -33 -40 -16 -34 -16 -38 -1 -71 16 -33 19
-34 57 -29 84 11 108 51 69 115 -20 32 -43 38 -92 25z"/>
<path d="M8070 5380 c0 -11 4 -20 9 -20 13 0 32 26 24 33 -13 14 -33 6 -33
-13z"/>
<path d="M9642 5389 c2 -6 8 -10 13 -10 5 0 11 4 13 10 2 6 -4 11 -13 11 -9 0
-15 -5 -13 -11z"/>
<path d="M8310 5370 c0 -5 5 -10 10 -10 6 0 10 5 10 10 0 6 -4 10 -10 10 -5 0
-10 -4 -10 -10z"/>
<path d="M1867 5346 c-3 -8 1 -17 9 -20 9 -4 14 1 14 14 0 23 -15 27 -23 6z"/>
<path d="M2873 5333 c-7 -3 -13 -14 -13 -25 0 -14 6 -19 22 -16 13 2 24 10 26
19 3 18 -15 29 -35 22z"/>
<path d="M6695 5316 c-21 -32 -5 -76 28 -76 51 0 67 67 22 88 -34 15 -32 16
-50 -12z"/>
<path d="M1475 5270 c-3 -5 -11 -8 -16 -5 -9 6 -78 -40 -92 -62 -4 -7 -14 -19
-22 -27 -8 -8 -15 -21 -15 -28 0 -8 -5 -19 -12 -26 -8 -8 -9 -12 -1 -12 8 0 9
-10 2 -35 -8 -27 -6 -40 6 -59 9 -14 14 -30 10 -36 -3 -5 1 -10 10 -10 9 0 19
-9 22 -20 3 -12 11 -19 17 -17 6 3 18 -2 28 -10 15 -13 73 -19 109 -11 38 9
99 70 110 111 13 48 17 117 7 117 -4 0 -10 9 -13 21 -11 34 -75 99 -91 92 -8
-3 -23 2 -33 11 -13 12 -21 14 -26 6z"/>
<path d="M11910 5265 c-26 -32 13 -81 48 -59 21 14 28 54 10 65 -20 13 -44 11
-58 -6z"/>
<path d="M13420 5265 c-10 -12 -10 -21 -2 -40 14 -31 56 -34 72 -6 13 25 13
27 -6 45 -20 20 -48 20 -64 1z"/>
<path d="M2048 5246 c-6 -14 -8 -32 -4 -41 10 -26 36 1 36 36 0 35 -16 38 -32
5z"/>
<path d="M2427 5233 c-7 -43 -31 -59 -43 -29 -5 14 -84 20 -84 6 0 -5 -14 -13
-30 -19 -31 -10 -60 -6 -60 10 0 5 -7 9 -16 9 -8 0 -13 -3 -11 -7 9 -16 -13
-54 -38 -63 -14 -5 -30 -21 -35 -35 -11 -30 -18 -31 -36 -7 -12 15 -13 14 -14
-11 0 -40 -27 -86 -56 -97 -21 -8 -23 -12 -13 -28 17 -27 3 -88 -24 -107 l-22
-15 23 -7 c19 -5 23 -11 20 -42 -3 -30 -9 -39 -43 -58 -24 -13 -33 -23 -22
-23 9 0 26 5 36 12 15 9 23 9 35 -1 18 -15 22 -71 5 -71 -6 0 -9 -6 -6 -12 2
-7 11 -12 19 -10 9 1 23 -9 32 -22 15 -24 15 -27 -15 -61 -35 -40 -25 -49 11
-10 13 14 29 25 35 25 21 0 55 -46 55 -75 0 -27 1 -28 20 -10 25 23 50 13 50
-22 l0 -27 20 22 c24 26 45 28 54 7 3 -8 12 -15 20 -15 7 0 16 7 20 15 3 8 12
15 20 15 18 0 32 -24 46 -77 8 -34 9 -32 4 18 -6 67 10 89 51 71 21 -10 26 -8
35 8 16 29 34 24 53 -12 10 -22 16 -27 16 -15 1 10 -6 28 -15 42 -12 18 -13
28 -4 44 16 30 61 52 84 39 16 -9 17 -6 11 34 -8 55 11 81 53 72 26 -5 26 -5
8 10 -11 9 -23 16 -28 16 -16 0 -8 49 10 62 11 7 24 23 31 35 10 19 8 25 -9
40 -26 23 -26 73 0 106 26 33 26 35 -12 33 -25 -1 -35 5 -45 24 -12 23 -11 27
13 48 33 29 27 50 -8 23 l-26 -21 -27 22 c-26 20 -27 28 -9 73 7 19 7 19 -13
3 -11 -10 -29 -18 -39 -18 -30 0 -72 50 -76 90 l-3 35 -8 -42z"/>
<path d="M11012 5238 c-26 -26 -3 -88 33 -88 21 0 45 29 45 54 0 28 -18 46
-45 46 -12 0 -26 -5 -33 -12z"/>
<path d="M12522 5238 c-18 -18 -14 -53 8 -73 39 -35 88 11 69 63 -9 25 -56 31
-77 10z"/>
<path d="M1946 5211 c-4 -7 -5 -15 -2 -18 9 -9 19 4 14 18 -4 11 -6 11 -12 0z"/>
<path d="M9715 5210 c-3 -5 -1 -10 4 -10 6 0 11 5 11 10 0 6 -2 10 -4 10 -3 0
-8 -4 -11 -10z"/>
<path d="M4070 5190 c14 -10 27 -16 30 -13 6 6 -30 33 -44 33 -6 0 0 -9 14
-20z"/>
<path d="M3720 5193 c0 -4 5 -15 10 -23 8 -13 10 -13 10 2 0 9 -4 20 -10 23
-5 3 -10 3 -10 -2z"/>
<path d="M14521 5184 c0 -11 3 -14 6 -6 3 7 2 16 -1 19 -3 4 -6 -2 -5 -13z"/>
<path d="M8104 5166 c-8 -21 15 -58 33 -54 22 4 38 32 30 52 -8 20 -56 21 -63
2z"/>
<path d="M10860 5160 c-8 -5 -10 -10 -5 -10 6 0 17 5 25 10 8 5 11 10 5 10 -5
0 -17 -5 -25 -10z"/>
<path d="M3631 5144 c0 -11 3 -14 6 -6 3 7 2 16 -1 19 -3 4 -6 -2 -5 -13z"/>
<path d="M3040 5124 c0 -9 5 -14 12 -12 18 6 21 28 4 28 -9 0 -16 -7 -16 -16z"/>
<path d="M3502 5128 c-14 -14 -16 -54 -3 -62 17 -11 41 6 41 29 0 30 -22 49
-38 33z"/>
<path d="M3591 5124 c0 -11 3 -14 6 -6 3 7 2 16 -1 19 -3 4 -6 -2 -5 -13z"/>
<path d="M10546 5131 c-4 -5 -2 -12 3 -15 5 -4 12 -2 15 3 4 5 2 12 -3 15 -5
4 -12 2 -15 -3z"/>
<path d="M4486 5108 c-20 -28 -20 -38 -1 -38 8 0 17 11 21 25 9 35 -1 41 -20
13z"/>
<path d="M3132 5091 c-7 -19 -10 -36 -7 -39 6 -7 26 49 22 62 -2 6 -9 -5 -15
-23z"/>
<path d="M9787 5104 c-8 -8 1 -24 14 -24 5 0 9 7 9 15 0 15 -12 20 -23 9z"/>
<path d="M9730 5090 c0 -5 5 -10 11 -10 5 0 7 5 4 10 -3 6 -8 10 -11 10 -2 0
-4 -4 -4 -10z"/>
<path d="M10490 5073 c-47 -39 -54 -66 -31 -118 30 -68 89 -91 156 -59 67 31
83 127 30 180 -35 35 -112 34 -155 -3z"/>
<path d="M12012 5084 c-28 -19 -52 -65 -52 -100 0 -36 68 -104 105 -104 42 0
94 30 112 63 22 43 12 106 -22 134 -32 28 -108 31 -143 7z"/>
<path d="M3212 5070 c0 -14 2 -19 5 -12 2 6 2 18 0 25 -3 6 -5 1 -5 -13z"/>
<path d="M10970 5080 c0 -5 5 -10 10 -10 6 0 10 5 10 10 0 6 -4 10 -10 10 -5
0 -10 -4 -10 -10z"/>
<path d="M12480 5080 c0 -5 5 -10 10 -10 6 0 10 5 10 10 0 6 -4 10 -10 10 -5
0 -10 -4 -10 -10z"/>
<path d="M14240 5070 c-8 -5 -11 -12 -7 -16 4 -4 13 -2 19 4 15 15 7 24 -12
12z"/>
<path d="M3365 5059 c-4 -6 -5 -13 -2 -16 7 -7 27 6 27 18 0 12 -17 12 -25 -2z"/>
<path d="M4610 5025 c0 -8 5 -15 10 -15 6 0 10 7 10 15 0 8 -4 15 -10 15 -5 0
-10 -7 -10 -15z"/>
<path d="M10720 5030 c0 -5 5 -10 10 -10 6 0 10 5 10 10 0 6 -4 10 -10 10 -5
0 -10 -4 -10 -10z"/>
<path d="M12235 5030 c3 -5 8 -10 11 -10 2 0 4 5 4 10 0 6 -5 10 -11 10 -5 0
-7 -4 -4 -10z"/>
<path d="M3840 5021 c0 -5 5 -13 10 -16 6 -3 10 -2 10 4 0 5 -4 13 -10 16 -5
3 -10 2 -10 -4z"/>
<path d="M3810 5015 c1 -6 7 -21 16 -35 l15 -25 -7 25 c-7 26 -24 52 -24 35z"/>
<path d="M3401 4991 c-17 -11 -7 -41 13 -41 19 0 28 14 20 34 -7 18 -13 19
-33 7z"/>
<path d="M4265 4970 c-8 -25 1 -40 25 -40 20 0 32 22 24 45 -9 22 -42 18 -49
-5z"/>
<path d="M4605 4980 c3 -5 8 -10 11 -10 2 0 4 5 4 10 0 6 -5 10 -11 10 -5 0
-7 -4 -4 -10z"/>
<path d="M8408 4965 c-8 -19 -8 -28 2 -40 25 -31 70 -11 70 31 0 40 -55 47
-72 9z"/>
<path d="M9623 4958 c-21 -23 -8 -51 26 -56 22 -4 43 30 34 55 -8 20 -41 21
-60 1z"/>
<path d="M3067 4946 c-7 -19 11 -32 24 -19 6 6 5 14 -4 22 -12 9 -16 8 -20 -3z"/>
<path d="M4834 4935 c-9 -22 1 -29 15 -11 8 10 9 16 1 21 -5 3 -13 -1 -16 -10z"/>
<path d="M10674 4929 c-9 -15 12 -33 30 -26 9 4 16 13 16 22 0 17 -35 21 -46
4z"/>
<path d="M12190 4919 c0 -14 5 -19 17 -17 26 5 29 38 4 38 -15 0 -21 -6 -21
-21z"/>
<path d="M4450 4870 c19 -16 41 -30 49 -30 17 0 15 2 -32 34 -51 35 -60 32
-17 -4z"/>
<path d="M7921 4879 c-18 -11 -40 -18 -47 -15 -7 3 -18 -7 -26 -25 -7 -16 -19
-29 -25 -29 -7 0 -12 -6 -10 -12 1 -7 -4 -12 -11 -10 -9 1 -10 -6 -6 -23 5
-19 1 -30 -12 -40 -13 -10 -15 -14 -5 -15 10 0 12 -9 8 -35 -3 -19 -1 -37 4
-41 6 -3 8 -12 5 -20 -3 -8 -1 -14 5 -14 6 0 9 -7 5 -15 -3 -9 0 -15 10 -15 8
0 18 -8 22 -17 4 -10 14 -18 22 -18 8 0 14 -8 14 -18 -2 -13 1 -15 11 -7 8 7
17 4 30 -9 14 -16 21 -18 36 -8 10 6 22 7 26 3 4 -5 2 -11 -4 -13 -7 -3 -13
-11 -13 -19 0 -25 15 -15 27 17 10 25 17 30 33 26 13 -3 24 1 30 14 12 22 36
25 43 7 3 -7 4 1 4 17 -2 23 2 30 16 29 13 -1 17 6 17 32 0 25 4 34 16 34 14
0 14 3 3 16 -10 12 -10 20 -1 34 6 11 8 22 3 24 -5 3 -8 22 -7 42 1 29 -3 38
-17 42 -13 3 -17 11 -14 24 4 12 1 18 -6 15 -17 -6 -47 11 -47 26 0 7 -14 14
-32 15 -18 2 -37 7 -42 12 -14 14 -26 12 -65 -11z"/>
<path d="M8442 4878 c2 -15 10 -23 23 -23 13 0 21 8 23 23 3 18 -1 22 -23 22
-22 0 -26 -4 -23 -22z"/>
<path d="M4974 4876 c11 -9 29 -16 40 -16 17 1 18 2 6 9 -8 5 -26 12 -40 15
-24 7 -24 6 -6 -8z"/>
<path d="M9400 4836 c-10 -13 -10 -19 0 -32 12 -14 15 -14 29 0 14 15 14 17 0
32 -14 14 -17 14 -29 0z"/>
<path d="M5064 4826 c-10 -27 2 -43 14 -19 8 14 9 24 2 28 -6 3 -13 -1 -16 -9z"/>
<path d="M10024 4826 c-9 -24 4 -48 23 -44 12 2 18 12 18 28 0 29 -32 41 -41
16z"/>
<path d="M3872 4818 c-17 -17 -15 -36 6 -62 l17 -22 23 21 c19 18 21 26 13 48
-11 29 -38 36 -59 15z"/>
<path d="M7679 4793 c-13 -16 -12 -17 4 -4 9 7 17 15 17 17 0 8 -8 3 -21 -13z"/>
<path d="M10252 4743 c-26 -5 -59 -63 -68 -121 -5 -32 -2 -48 16 -76 52 -85
117 -89 198 -13 25 24 32 39 32 69 0 56 -27 114 -58 127 -35 13 -91 20 -120
14z"/>
<path d="M11467 4743 c-13 -12 -7 -44 9 -50 23 -9 48 25 33 44 -12 14 -32 17
-42 6z"/>
<path d="M12973 4734 c-3 -8 2 -23 11 -32 15 -15 17 -15 33 0 13 14 14 20 3
32 -16 20 -39 20 -47 0z"/>
<path d="M9600 4680 c0 -5 5 -10 10 -10 6 0 10 5 10 10 0 6 -4 10 -10 10 -5 0
-10 -4 -10 -10z"/>
<path d="M8757 4674 c-9 -10 4 -34 19 -34 8 0 14 9 14 20 0 19 -19 27 -33 14z"/>
<path d="M10970 4644 c0 -9 5 -14 12 -12 18 6 21 28 4 28 -9 0 -16 -7 -16 -16z"/>
<path d="M12482 4649 c2 -6 8 -10 13 -10 5 0 11 4 13 10 2 6 -4 11 -13 11 -9
0 -15 -5 -13 -11z"/>
<path d="M8200 4630 c0 -5 5 -10 10 -10 6 0 10 5 10 10 0 6 -4 10 -10 10 -5 0
-10 -4 -10 -10z"/>
<path d="M7697 4615 c3 -8 9 -12 14 -9 12 7 11 11 -5 17 -10 4 -13 1 -9 -8z"/>
<path d="M12234 4595 c-4 -9 -2 -21 4 -27 15 -15 44 -1 40 19 -4 23 -36 29
-44 8z"/>
<path d="M12375 4600 c3 -5 10 -10 16 -10 5 0 9 5 9 10 0 6 -7 10 -16 10 -8 0
-12 -4 -9 -10z"/>
<path d="M12011 4577 c-35 -17 -45 -63 -20 -88 10 -10 30 -19 43 -19 49 0 55
-38 45 -270 -4 -84 -1 -100 19 -142 29 -58 93 -108 138 -108 47 0 99 25 128
62 29 36 47 28 38 -17 -3 -19 1 -27 22 -35 19 -7 26 -17 26 -35 0 -17 5 -25
18 -25 23 0 42 -19 42 -42 0 -18 11 -24 24 -11 3 4 33 8 66 10 51 3 60 1 75
-19 15 -21 16 -22 15 -3 -4 40 -1 50 12 37 16 -16 28 -15 28 2 0 7 23 34 50
59 28 25 51 54 51 64 1 10 2 23 4 28 1 6 3 16 3 23 1 6 14 12 30 12 l27 1 -28
15 c-24 13 -27 20 -22 43 4 21 2 30 -9 34 -20 8 -21 33 -1 41 21 8 19 23 -5
29 -12 3 -20 14 -20 26 0 14 -6 21 -19 21 -22 0 -43 22 -39 41 2 10 -6 13 -25
11 -17 -2 -29 3 -33 13 -7 17 -40 20 -49 4 -4 -5 -19 -8 -33 -5 -39 9 -101
-17 -122 -50 -11 -15 -28 -31 -38 -35 -11 -4 -23 -22 -27 -41 l-9 -33 -3 33
c-3 20 2 43 12 59 14 21 15 30 5 48 -9 16 -9 28 -1 43 8 15 7 21 -3 25 -8 3
-17 -1 -20 -9 -9 -22 -26 -16 -37 13 -16 43 -98 133 -121 133 -11 0 -41 -20
-66 -45 -51 -51 -69 -55 -100 -22 -19 21 -20 27 -10 55 11 29 10 34 -12 57
-22 21 -28 23 -49 12z"/>
<path d="M622 4563 c-20 -14 -25 -14 -33 -2 -8 11 -13 9 -30 -13 -11 -16 -29
-28 -39 -28 -11 0 -19 -10 -23 -27 -3 -16 -14 -37 -25 -48 -25 -27 -25 -112 1
-137 9 -10 17 -26 17 -37 0 -10 11 -26 25 -35 15 -10 22 -22 18 -32 -4 -12 0
-14 21 -8 18 4 33 1 45 -10 15 -14 20 -14 29 -3 7 8 24 12 42 9 27 -4 37 3 81
49 38 42 48 59 44 77 -3 12 0 32 6 43 8 15 8 24 0 32 -6 6 -11 22 -11 35 0 13
-7 30 -15 38 -8 9 -15 26 -15 38 0 13 -9 35 -21 50 -24 31 -80 35 -117 9z"/>
<path d="M10696 4558 c-35 -53 23 -103 67 -59 20 20 21 23 7 49 -20 36 -54 40
-74 10z"/>
<path d="M8655 4539 c-10 -15 3 -25 16 -12 7 7 7 13 1 17 -6 3 -14 1 -17 -5z"/>
<path d="M7455 4530 c3 -5 8 -10 11 -10 2 0 4 5 4 10 0 6 -5 10 -11 10 -5 0
-7 -4 -4 -10z"/>
<path d="M8420 4519 c0 -5 5 -7 10 -4 6 3 10 8 10 11 0 2 -4 4 -10 4 -5 0 -10
-5 -10 -11z"/>
<path d="M8301 4507 c-28 -14 -30 -27 -8 -41 12 -8 23 -5 44 10 14 11 29 26
31 32 5 16 -36 15 -67 -1z"/>
<path d="M8550 4489 c0 -5 5 -7 10 -4 6 3 10 8 10 11 0 2 -4 4 -10 4 -5 0 -10
-5 -10 -11z"/>
<path d="M10470 4465 c0 -8 5 -15 10 -15 6 0 10 7 10 15 0 8 -4 15 -10 15 -5
0 -10 -7 -10 -15z"/>
<path d="M10650 4455 c0 -8 7 -15 15 -15 8 0 15 7 15 15 0 8 -7 15 -15 15 -8
0 -15 -7 -15 -15z"/>
<path d="M1350 4441 c0 -5 5 -13 10 -16 6 -3 10 -2 10 4 0 5 -4 13 -10 16 -5
3 -10 2 -10 -4z"/>
<path d="M12573 4443 c9 -2 25 -2 35 0 9 3 1 5 -18 5 -19 0 -27 -2 -17 -5z"/>
<path d="M9830 4423 c-13 -9 -20 -25 -20 -48 0 -69 83 -84 112 -21 23 51 -45
102 -92 69z"/>
<path d="M11339 4419 c-10 -10 -19 -30 -19 -44 0 -30 32 -65 60 -65 27 0 60
35 60 63 0 48 -68 79 -101 46z"/>
<path d="M12460 4390 c-12 -8 -9 -10 13 -10 15 0 27 5 27 10 0 13 -20 13 -40
0z"/>
<path d="M5916 4361 c-4 -5 -3 -16 0 -25 7 -19 -21 -23 -32 -5 -4 7 -25 9 -55
7 -28 -3 -49 -1 -49 5 0 5 -13 -5 -29 -22 -19 -20 -35 -29 -45 -25 -12 4 -16
0 -16 -15 0 -12 -6 -21 -14 -21 -8 0 -17 -16 -21 -37 -4 -21 -14 -46 -22 -56
-14 -15 -14 -21 -3 -43 12 -21 12 -29 1 -46 -7 -11 -8 -17 -2 -14 15 9 25 -14
12 -27 -9 -9 -16 -8 -31 1 -11 7 -20 8 -20 4 0 -16 25 -40 45 -44 32 -5 65
-76 58 -123 -7 -44 -28 -82 -37 -67 -15 25 -116 -34 -116 -69 0 -10 -4 -19 -9
-19 -5 0 -7 -19 -4 -42 9 -71 73 -124 134 -111 33 6 74 41 84 72 6 19 81 55
100 47 7 -2 30 13 51 35 22 22 53 46 71 54 30 12 36 12 83 -11 60 -29 68 -30
46 -5 -10 11 -31 23 -47 26 -16 4 -29 11 -29 16 0 6 -13 15 -30 20 -28 10 -43
39 -20 39 6 0 8 11 4 25 -4 15 -2 25 5 25 8 0 7 6 -1 20 -11 17 -10 26 5 51 9
17 17 38 17 46 0 9 8 22 18 29 13 10 14 15 5 25 -9 9 -8 21 8 50 19 39 19 39
-1 39 -21 0 -36 36 -27 70 3 13 -1 20 -16 22 -11 2 -29 16 -41 31 -17 23 -18
31 -8 47 7 11 12 22 12 25 0 9 -29 5 -34 -4z"/>
<path d="M2815 4348 c-11 -6 -33 -31 -48 -56 -19 -30 -31 -42 -38 -35 -28 28
-129 -43 -129 -91 0 -27 -14 -33 -39 -17 -10 7 -26 1 -50 -17 -20 -14 -38 -28
-40 -29 -2 -2 -5 -13 -7 -26 -1 -12 -3 -23 -3 -23 -1 -1 -18 2 -38 6 -47 11
-68 0 -93 -50 -25 -49 -25 -61 0 -110 25 -50 25 -55 -2 -36 -16 11 -25 13 -35
4 -18 -15 -16 -45 5 -57 14 -8 22 -4 43 21 18 22 30 28 40 22 34 -21 57 -14
93 28 20 23 36 45 36 50 0 4 17 8 38 8 44 0 85 36 96 83 6 25 10 27 39 22 49
-9 99 21 112 67 8 29 13 35 25 28 33 -21 81 -11 116 24 42 42 44 80 7 139 -15
23 -28 43 -28 44 -3 9 -84 9 -100 1z"/>
<path d="M8027 4343 c-3 -5 -2 -15 3 -22 10 -17 43 -6 38 12 -6 15 -34 22 -41
10z"/>
<path d="M7667 4333 c-21 -20 1 -73 30 -73 19 0 33 41 21 63 -9 17 -39 23 -51
10z"/>
<path d="M4780 4320 c0 -5 7 -10 16 -10 8 0 12 5 9 10 -3 6 -10 10 -16 10 -5
0 -9 -4 -9 -10z"/>
<path d="M10083 4313 c-19 -7 -16 -53 3 -60 16 -6 44 19 44 39 0 11 -33 26
-47 21z"/>
<path d="M11591 4310 c-17 -10 -6 -60 12 -60 17 0 37 20 37 37 0 17 -33 33
-49 23z"/>
<path d="M5585 4301 c-3 -5 -1 -12 5 -16 12 -7 30 2 30 16 0 12 -27 12 -35 0z"/>
<path d="M1938 4268 c-4 -30 13 -108 24 -108 4 0 8 29 8 65 0 50 -3 65 -14 65
-8 0 -16 -10 -18 -22z"/>
<path d="M5225 4280 c3 -5 8 -10 11 -10 2 0 4 5 4 10 0 6 -5 10 -11 10 -5 0
-7 -4 -4 -10z"/>
<path d="M15715 4260 c-3 -5 -1 -10 4 -10 6 0 11 5 11 10 0 6 -2 10 -4 10 -3
0 -8 -4 -11 -10z"/>
<path d="M8532 4249 c-19 -7 -22 -14 -18 -40 2 -18 11 -36 18 -40 16 -11 55
-12 61 -1 10 18 16 58 9 68 -11 17 -44 24 -70 13z"/>
<path d="M2187 4243 c-12 -11 -8 -23 8 -23 8 0 15 7 15 15 0 16 -12 20 -23 8z"/>
<path d="M6435 4201 c-3 -5 -1 -12 4 -15 12 -8 41 3 41 15 0 12 -37 12 -45 0z"/>
<path d="M6756 4199 c-4 -9 -6 -20 -5 -25 5 -29 -2 -36 -30 -31 -23 5 -30 2
-34 -13 -7 -26 -34 -26 -42 0 -9 30 -28 25 -21 -5 4 -14 2 -35 -4 -46 -10 -17
-19 -19 -67 -16 l-56 4 24 -18 c13 -10 27 -19 32 -19 4 0 7 -7 7 -16 0 -13 -7
-15 -31 -10 -27 5 -30 4 -24 -12 10 -23 7 -74 -5 -86 -6 -6 -21 -2 -41 13 -38
28 -51 20 -20 -13 14 -15 23 -39 25 -67 4 -55 -1 -69 -25 -69 -25 0 -24 -8 4
-30 20 -17 21 -21 8 -52 -7 -18 -14 -41 -14 -50 -1 -10 -7 -18 -14 -18 -7 0
-13 -7 -13 -15 0 -8 4 -15 9 -15 4 0 20 -11 34 -24 23 -21 25 -29 17 -51 -6
-15 -7 -44 -4 -65 6 -36 8 -39 34 -34 21 5 31 1 44 -17 10 -15 12 -27 6 -33
-19 -19 -11 -37 14 -30 28 7 43 -11 26 -31 -10 -12 -9 -16 3 -21 9 -3 23 -4
33 -2 9 2 34 -14 55 -36 31 -30 42 -36 53 -27 7 6 21 8 31 5 13 -5 16 -15 12
-41 -4 -24 -2 -33 6 -30 7 2 13 16 15 30 3 26 33 53 46 40 3 -3 6 -21 6 -40 0
-18 5 -33 10 -33 6 0 10 15 10 34 0 40 16 49 62 35 47 -13 85 -3 92 26 8 30
43 52 59 36 20 -20 34 -12 29 18 -3 23 1 33 21 46 21 13 29 14 46 3 25 -15 39
-4 21 17 -10 12 -10 24 0 63 16 59 26 72 56 72 21 0 23 3 17 33 -3 17 -10 35
-15 38 -5 3 -6 24 -2 47 6 39 26 58 50 50 5 -2 9 1 9 6 0 6 -11 10 -25 10 -31
1 -40 39 -14 67 16 18 15 20 -9 52 -19 25 -23 37 -15 51 7 12 7 21 0 28 -6 6
-8 17 -4 26 4 11 1 14 -10 10 -9 -4 -21 -1 -27 5 -20 20 -11 47 23 68 53 31
55 52 3 28 -56 -25 -63 -24 -97 14 -35 38 -37 70 -10 112 11 17 20 37 19 45 0
8 -11 -6 -24 -31 -13 -25 -31 -52 -40 -59 -15 -13 -20 -11 -36 9 -11 13 -19
34 -19 47 0 27 -15 32 -24 9 -8 -21 -34 -19 -48 5 -15 24 -31 25 -48 5 -18
-21 -35 -19 -48 8 -9 18 -11 19 -11 4 -1 -20 -43 -42 -65 -34 -8 3 -16 18 -18
34 -3 21 -6 24 -12 12z m-66 -609 c0 -6 -11 -8 -27 -4 -40 10 -41 14 -5 14 18
0 32 -5 32 -10z"/>
<path d="M17951 4172 c-15 -27 10 -50 29 -27 11 13 11 19 -2 32 -15 14 -17 13
-27 -5z"/>
<path d="M4541 4165 c1 -19 18 -51 18 -35 0 8 -4 22 -9 30 -5 8 -9 11 -9 5z"/>
<path d="M9612 4148 c-42 -21 -38 -84 8 -108 14 -8 26 -7 43 1 30 16 37 28 37
65 0 50 -35 67 -88 42z"/>
<path d="M11115 4136 c-22 -22 -23 -28 -14 -56 12 -33 48 -54 74 -44 30 12 45
67 29 108 -9 25 -61 20 -89 -8z"/>
<path d="M9950 4139 c-73 -16 -128 -121 -114 -217 9 -59 58 -115 116 -131 38
-10 48 -9 83 9 21 11 44 20 51 20 16 0 63 71 64 95 0 11 3 38 6 60 4 30 -1 51
-18 85 -35 67 -106 97 -188 79z"/>
<path d="M17459 4108 c-25 -49 -31 -177 -9 -163 10 6 59 -22 76 -43 9 -12 67
-29 111 -34 7 -1 17 -14 22 -29 8 -23 6 -28 -11 -32 -12 -4 -18 -12 -16 -24 4
-23 38 -31 38 -9 0 13 4 12 20 -4 11 -11 29 -20 39 -20 18 0 61 -43 61 -60 0
-4 -12 -16 -27 -26 -27 -17 -28 -17 -76 10 -26 14 -52 24 -58 21 -16 -10 -10
-33 10 -40 35 -11 45 -32 31 -65 -16 -39 -37 -50 -94 -50 -33 0 -52 6 -66 20
-11 11 -31 20 -44 20 -32 0 -84 19 -123 46 -19 12 -63 32 -98 44 -36 12 -68
26 -71 32 -4 6 -26 19 -50 30 -24 10 -44 23 -44 27 0 4 -11 13 -25 19 -18 8
-25 19 -25 40 0 61 -59 94 -102 55 -16 -14 -23 -15 -61 -3 -23 7 -63 23 -89
36 -26 13 -54 24 -61 24 -8 0 -20 7 -27 15 -7 8 -20 15 -29 15 -9 0 -35 13
-57 29 -47 35 -132 81 -149 81 -7 0 -20 9 -30 20 -21 23 -55 27 -55 7 0 -16
32 -47 47 -47 15 0 308 -147 353 -176 19 -13 54 -37 78 -54 24 -17 47 -28 53
-25 5 4 9 1 9 -4 0 -6 -9 -11 -19 -11 -11 0 -23 -5 -26 -10 -5 -8 -12 -7 -22
2 -14 11 -15 10 -9 -9 8 -26 -12 -42 -28 -22 -14 19 -56 19 -74 2 -16 -15 -32
-17 -32 -3 0 6 -4 10 -10 10 -5 0 -10 -7 -10 -16 0 -11 -6 -14 -20 -9 -15 5
-18 3 -14 -9 3 -8 -4 -24 -16 -36 -33 -33 -50 -82 -45 -133 3 -26 1 -57 -5
-71 -7 -20 -5 -25 12 -29 11 -3 17 -10 14 -15 -3 -6 1 -13 10 -16 11 -4 14
-13 10 -31 -5 -21 -3 -25 16 -26 13 -1 27 -1 32 0 4 1 13 -3 20 -8 7 -6 18 -5
30 4 14 11 22 11 36 3 15 -10 25 -7 53 15 20 15 46 42 58 59 24 35 42 49 74
60 19 6 19 6 -1 7 -40 2 -38 57 3 79 13 8 11 10 -11 10 -44 0 -50 16 -12 30
38 14 50 38 46 95 -2 43 10 47 55 17 17 -11 56 -27 88 -36 32 -9 60 -21 63
-25 3 -5 13 -9 23 -9 10 0 24 -7 31 -15 7 -8 18 -15 25 -15 14 0 80 -30 143
-65 23 -13 56 -26 72 -30 19 -4 36 -17 44 -33 8 -15 30 -43 50 -61 41 -40 46
-55 14 -47 -13 3 -8 -1 10 -9 45 -21 41 -47 -14 -90 -26 -19 -51 -35 -55 -35
-5 0 -9 -4 -9 -10 0 -5 9 -10 19 -10 45 0 51 -9 29 -45 -10 -19 -29 -37 -41
-40 -48 -13 -96 -38 -102 -53 -15 -40 56 -51 154 -21 32 10 43 9 56 -1 19 -16
19 -30 0 -66 -27 -53 -13 -76 27 -45 26 21 76 18 84 -4 3 -7 -5 -29 -17 -50
-18 -30 -20 -38 -8 -45 11 -7 11 -15 1 -43 -17 -46 -15 -65 7 -76 15 -9 26 -4
56 24 20 19 44 35 53 35 10 0 25 9 35 20 19 22 46 27 48 8 1 -7 0 -28 -1 -45
-2 -45 11 -41 32 7 13 32 22 40 42 40 18 0 26 -5 26 -17 0 -15 2 -15 19 1 11
10 23 16 28 13 13 -8 39 -67 57 -129 18 -63 25 -71 46 -58 13 8 15 25 10 128
-3 83 44 122 99 83 40 -29 53 -27 45 5 -5 19 -4 25 5 20 17 -11 13 3 -9 31
-15 19 -17 30 -9 44 13 25 25 24 51 -6 30 -35 43 -31 17 4 -23 32 -19 51 12
51 22 0 147 -65 164 -84 17 -22 75 -58 85 -54 6 2 -10 19 -36 38 -25 19 -67
53 -94 75 -27 22 -63 50 -80 63 -45 35 -39 52 20 54 28 1 58 2 68 2 9 1 24 9
33 20 13 15 19 17 37 7 30 -16 32 -14 32 19 0 31 30 70 54 70 8 0 13 8 12 18
-1 11 5 16 17 14 9 -2 17 2 17 9 0 8 15 10 48 6 l47 -5 -51 23 c-37 16 -54 31
-63 53 -19 46 -9 62 40 62 l42 0 -21 23 c-12 13 -22 28 -22 33 0 18 48 57 71
58 12 0 24 6 26 12 3 8 -25 11 -89 12 -111 0 -148 11 -148 46 0 14 -10 37 -22
51 -32 36 -74 37 -110 3 -25 -24 -57 -22 -86 5 l-25 22 6 -22 c3 -13 0 -26 -5
-29 -11 -7 -7 37 7 68 10 25 -21 35 -44 14 -37 -34 -78 -6 -52 36 9 14 9 23 2
32 -6 7 -10 15 -8 17 1 2 -10 -9 -24 -25 -27 -31 -49 -29 -49 4 0 32 -18 32
-35 0 -15 -29 -35 -41 -35 -20 0 37 -18 60 -46 60 -14 0 -35 5 -46 11 -16 8
-22 8 -29 -2 -4 -7 -6 -16 -3 -20 2 -4 0 -10 -6 -14 -5 -3 -10 1 -10 10 0 8
-11 20 -24 27 -20 8 -32 7 -60 -6 -47 -22 -63 -21 -41 4 35 39 12 120 -41 140
-36 14 -98 12 -113 -2 -11 -11 -12 -6 -6 27 4 22 12 43 18 47 9 6 9 8 0 8 -7
0 -33 20 -57 45 -30 30 -54 45 -71 45 -16 0 -25 6 -25 15 0 10 -11 15 -35 15
-31 0 -37 -5 -56 -42z m341 -358 c0 -16 -2 -30 -5 -30 -8 0 -23 44 -18 53 10
17 23 5 23 -23z"/>
<path d="M4085 4130 c-3 -5 -1 -10 4 -10 6 0 11 5 11 10 0 6 -2 10 -4 10 -3 0
-8 -4 -11 -10z"/>
<path d="M4705 4125 c-27 -8 -67 -23 -87 -35 -23 -13 -39 -17 -43 -10 -3 5
-11 10 -17 10 -6 0 -4 -9 4 -22 14 -20 13 -27 -4 -68 -27 -62 -33 -128 -18
-191 7 -30 12 -56 11 -59 -1 -3 -12 -4 -24 -3 l-22 3 22 -10 c37 -16 54 -67
17 -53 -8 3 -14 0 -14 -5 0 -6 9 -14 21 -17 16 -5 19 -12 14 -35 -4 -18 0 -41
11 -61 16 -33 16 -33 -11 -55 -22 -17 -26 -27 -21 -48 8 -31 26 -34 33 -6 8
30 23 24 23 -8 0 -18 10 -38 25 -52 19 -18 25 -33 23 -54 -3 -28 0 -31 34 -37
44 -7 71 -27 63 -47 -3 -8 0 -21 7 -29 10 -12 13 -10 22 12 l11 27 24 -19 c15
-12 21 -25 17 -32 -6 -9 -11 -9 -24 1 -14 12 -14 10 -3 -9 14 -28 13 -28 53
-3 39 24 66 26 74 5 4 -8 10 -15 15 -15 5 0 9 7 9 15 0 8 5 15 10 15 6 0 13
-7 16 -15 9 -22 22 -18 26 7 5 34 34 34 52 1 l15 -28 1 32 c0 38 12 48 40 33
18 -9 20 -8 20 14 0 28 24 46 51 39 13 -4 19 0 19 10 0 9 9 19 20 22 12 4 20
15 20 27 0 12 8 30 17 40 9 11 17 31 18 46 0 24 4 27 32 27 17 0 29 3 26 7 -2
5 5 8 16 8 12 0 21 4 21 9 0 5 10 11 21 13 28 4 59 62 59 108 0 41 -20 90 -36
90 -6 0 -17 7 -25 16 -10 13 -10 17 2 24 12 8 11 12 -4 27 -15 15 -19 16 -27
4 -14 -23 -64 3 -57 29 3 11 1 20 -4 20 -5 0 -20 24 -33 53 -17 40 -28 53 -46
54 -28 2 -51 23 -33 30 9 3 10 10 3 24 -9 15 -14 17 -29 7 -25 -15 -51 -4 -51
22 0 17 -4 20 -19 15 -13 -4 -23 0 -30 12 -10 17 -12 17 -21 1 -12 -19 -43
-14 -79 14 -13 10 -30 18 -39 18 -8 0 -29 8 -46 19 -43 26 -111 32 -171 16z"/>
<path d="M3360 4120 c0 -6 6 -19 12 -30 17 -27 0 -54 -36 -58 -19 -3 -30 -13
-41 -38 -18 -44 -56 -60 -106 -45 -45 13 -106 14 -114 2 -9 -15 12 -23 78 -29
40 -3 75 -13 100 -29 33 -21 37 -28 37 -63 0 -27 5 -43 15 -46 8 -4 15 -13 15
-21 0 -14 23 -13 83 3 9 3 20 -1 23 -9 8 -21 53 -9 81 22 54 61 66 89 55 134
-5 23 -10 54 -10 70 0 48 -9 60 -34 46 -18 -10 -24 -8 -39 10 -13 16 -24 20
-43 15 -21 -5 -27 0 -46 35 -20 41 -30 50 -30 31z"/>
<path d="M1662 4081 c-29 -51 -28 -68 8 -101 27 -25 34 -27 63 -19 40 11 57
34 57 75 0 45 -34 84 -74 84 -27 0 -36 -6 -54 -39z"/>
<path d="M14952 4095 c0 -16 2 -22 5 -12 2 9 2 23 0 30 -3 6 -5 -1 -5 -18z"/>
<path d="M11420 4050 c0 -5 5 -10 10 -10 6 0 10 5 10 10 0 6 -4 10 -10 10 -5
0 -10 -4 -10 -10z"/>
<path d="M17027 3981 c-9 -16 -17 -37 -17 -46 0 -23 54 -75 79 -75 26 0 61 46
61 81 0 67 -90 96 -123 40z"/>
<path d="M2912 3988 c-18 -18 -15 -36 7 -48 15 -7 23 -6 35 6 9 8 16 19 16 23
0 11 -23 31 -35 31 -6 0 -16 -5 -23 -12z"/>
<path d="M8301 3993 c-1 -7 -8 -13 -16 -13 -8 0 -23 -9 -32 -20 -10 -11 -23
-20 -30 -20 -7 0 -13 -9 -13 -20 0 -11 -4 -20 -8 -20 -10 0 -12 -13 -11 -65 1
-68 4 -85 16 -85 7 0 19 -13 28 -30 9 -16 22 -30 30 -30 8 0 15 -4 15 -10 0
-5 9 -10 20 -10 11 0 20 -6 20 -12 0 -9 3 -9 9 1 8 12 12 13 26 1 13 -11 18
-10 29 5 8 11 19 16 30 12 10 -4 15 -3 11 3 -3 6 5 14 18 19 19 7 27 20 32 50
4 23 11 41 15 41 5 0 5 13 0 29 -5 19 -4 33 3 40 8 8 7 11 -2 11 -8 0 -11 6
-7 15 3 9 0 15 -9 15 -9 0 -15 10 -15 25 0 16 -4 23 -14 19 -7 -3 -16 2 -19
10 -4 9 -14 16 -23 16 -9 0 -23 8 -31 18 -10 12 -16 14 -19 5 -3 -7 -14 -13
-24 -13 -10 0 -21 6 -23 13 -4 10 -6 10 -6 0z"/>
<path d="M5414 3969 c-3 -6 -1 -16 5 -22 9 -9 14 -8 21 3 9 15 4 30 -10 30 -5
0 -12 -5 -16 -11z"/>
<path d="M2156 3963 c-11 -11 -6 -23 9 -23 8 0 15 4 15 9 0 13 -16 22 -24 14z"/>
<path d="M1560 3945 c0 -9 5 -15 11 -13 6 2 11 8 11 13 0 5 -5 11 -11 13 -6 2
-11 -4 -11 -13z"/>
<path d="M15335 3950 c-3 -5 -1 -10 4 -10 6 0 11 5 11 10 0 6 -2 10 -4 10 -3
0 -8 -4 -11 -10z"/>
<path d="M16030 3945 c-10 -12 -10 -15 3 -15 23 0 47 11 47 21 0 15 -37 10
-50 -6z"/>
<path d="M2045 3931 c-11 -36 17 -67 50 -55 8 4 15 10 15 16 0 5 5 6 10 3 17
-11 11 10 -10 33 -25 27 -57 28 -65 3z"/>
<path d="M14930 3940 c0 -5 5 -10 10 -10 6 0 10 5 10 10 0 6 -4 10 -10 10 -5
0 -10 -4 -10 -10z"/>
<path d="M15405 3941 c-3 -5 -1 -12 5 -16 5 -3 10 1 10 9 0 18 -6 21 -15 7z"/>
<path d="M5300 3916 c-10 -13 -9 -17 4 -22 22 -8 49 3 44 19 -7 18 -33 20 -48
3z"/>
<path d="M8912 3913 c2 -10 14 -19 26 -21 21 -3 22 -1 12 17 -13 26 -43 28
-38 4z"/>
<path d="M9220 3880 c-19 -11 -46 -19 -61 -20 -19 0 -37 -16 -77 -68 -29 -38
-52 -75 -52 -83 0 -8 -6 -38 -14 -67 -10 -42 -11 -55 -1 -69 8 -10 11 -31 8
-50 -4 -24 -1 -34 11 -39 9 -3 16 -17 16 -30 0 -16 8 -28 25 -36 29 -13 33
-28 7 -28 -25 0 -108 -54 -121 -79 -6 -11 -11 -43 -11 -71 0 -43 5 -56 28 -80
16 -15 47 -34 69 -40 35 -11 44 -10 81 9 63 32 76 59 68 136 -7 70 -2 76 49
56 32 -13 93 9 133 48 97 91 107 98 138 94 64 -10 103 25 135 120 21 61 12 84
-46 136 -27 23 -45 31 -75 31 -34 0 -45 7 -101 65 -58 60 -65 65 -105 65 -24
0 -46 5 -49 10 -8 13 -14 12 -55 -10z"/>
<path d="M8090 3880 c0 -5 5 -10 10 -10 6 0 10 5 10 10 0 6 -4 10 -10 10 -5 0
-10 -4 -10 -10z"/>
<path d="M14186 3881 c-4 -5 -2 -12 3 -15 5 -4 12 -2 15 3 4 5 2 12 -3 15 -5
4 -12 2 -15 -3z"/>
<path d="M1910 3870 c0 -5 5 -10 10 -10 6 0 10 5 10 10 0 6 -4 10 -10 10 -5 0
-10 -4 -10 -10z"/>
<path d="M8012 3866 c1 -10 8 -17 13 -17 15 1 12 24 -3 29 -9 3 -13 -2 -10
-12z"/>
<path d="M8569 3841 c-47 -47 -52 -89 -14 -126 30 -31 49 -31 100 -2 74 42 82
109 18 147 -47 28 -60 26 -104 -19z"/>
<path d="M15670 3864 c0 -8 5 -12 10 -9 6 4 8 11 5 16 -9 14 -15 11 -15 -7z"/>
<path d="M15762 3868 c6 -18 28 -21 28 -4 0 9 -7 16 -16 16 -9 0 -14 -5 -12
-12z"/>
<path d="M1979 3847 c15 -19 6 -39 -17 -35 -51 10 -39 -114 16 -177 17 -18 32
-39 35 -47 4 -10 11 -10 37 5 25 13 36 15 46 6 22 -18 41 5 66 82 22 68 23 70
51 63 22 -5 28 -3 25 7 -3 8 -13 14 -24 14 -10 0 -27 14 -38 30 -24 38 -30 42
-85 49 -25 4 -64 9 -86 13 -35 5 -38 4 -26 -10z"/>
<path d="M11040 3846 c0 -2 7 -6 15 -10 8 -3 15 -1 15 4 0 6 -7 10 -15 10 -8
0 -15 -2 -15 -4z"/>
<path d="M3575 3812 c-11 -9 -26 -29 -32 -44 -9 -21 -20 -28 -39 -28 -26 0
-26 -1 -11 -18 10 -10 17 -24 17 -30 0 -17 -42 -42 -70 -42 -15 0 -35 -7 -46
-15 -16 -13 -17 -16 -4 -25 8 -6 33 -9 54 -6 47 6 105 -19 87 -37 -6 -6 -26
-10 -44 -9 -36 2 -97 -30 -97 -52 0 -8 5 -26 11 -39 9 -20 7 -31 -14 -64 -32
-51 -70 -75 -110 -71 -23 2 -32 -1 -32 -12 0 -8 8 -16 18 -18 9 -2 17 1 17 7
0 6 9 11 19 11 19 0 34 -20 61 -80 7 -14 22 -45 35 -70 18 -36 20 -50 12 -68
-8 -19 -5 -29 21 -62 18 -21 32 -45 32 -53 0 -10 8 -13 25 -9 25 4 31 -5 27
-51 -1 -10 8 -21 22 -27 13 -5 26 -14 28 -20 3 -9 14 -9 46 1 60 18 96 1 90
-42 l-5 -31 17 22 c10 13 22 20 29 16 6 -4 23 0 38 8 16 8 35 17 44 19 16 5
79 127 79 152 0 8 -13 23 -30 35 -41 29 -39 69 8 130 8 11 22 -28 22 -62 0
-26 4 -38 14 -38 21 0 48 -42 36 -54 -18 -18 -12 -39 10 -33 26 7 50 -17 50
-49 0 -28 3 -29 31 -11 17 10 22 9 37 -10 9 -12 31 -27 48 -33 19 -7 35 -20
38 -33 6 -22 6 -22 18 -2 6 11 12 21 14 23 1 2 16 -4 33 -12 38 -20 38 -20 44
4 4 14 14 20 35 20 17 0 33 -6 36 -12 3 -7 3 -1 -1 15 -6 31 11 57 37 57 27 0
32 -27 8 -44 -15 -11 -22 -29 -25 -63 -5 -42 -2 -51 22 -76 15 -15 36 -27 46
-27 60 0 106 55 93 113 -8 41 -20 55 -58 71 -17 7 -39 23 -50 34 -18 20 -18
23 -2 47 18 27 35 32 54 13 17 -17 25 -3 12 22 -15 28 -6 50 20 50 23 0 24 4
10 31 -6 11 -8 25 -4 31 11 17 12 108 2 114 -13 9 -9 24 7 24 8 0 15 -4 15
-10 0 -5 7 -10 16 -10 23 0 13 34 -11 39 -28 5 -36 21 -29 58 4 23 0 40 -15
62 -26 35 -26 49 -3 74 17 20 17 20 -9 3 -26 -16 -27 -16 -43 8 -9 14 -16 37
-16 51 0 24 -3 26 -29 20 -24 -5 -32 -2 -41 15 -6 12 -9 28 -6 35 3 8 1 17 -5
20 -5 4 -12 -1 -15 -9 -3 -9 -15 -16 -25 -16 -16 0 -19 7 -17 45 0 25 -2 48
-5 52 -4 3 -7 -5 -7 -20 0 -60 -39 -84 -41 -24 l-1 32 -14 -32 c-8 -18 -18
-33 -23 -33 -11 0 -21 25 -21 51 0 11 -4 17 -10 14 -5 -3 -10 -17 -10 -31 0
-27 -27 -34 -36 -9 -10 26 -32 16 -44 -20 -16 -49 -39 -59 -68 -32 l-24 22 7
-37 c6 -33 3 -41 -23 -67 -21 -21 -36 -28 -51 -24 -20 5 -21 3 -15 -54 8 -73
-5 -103 -44 -103 l-27 0 23 -18 c13 -10 22 -28 22 -42 -1 -14 2 -38 6 -53 6
-27 6 -28 -33 -21 -46 7 -68 -11 -61 -51 4 -20 2 -23 -11 -16 -9 5 -21 6 -28
4 -18 -7 -26 15 -30 91 -7 108 -5 125 16 162 20 34 20 35 1 54 -22 22 -18 46
9 55 10 3 32 26 49 51 25 35 30 49 22 63 -5 10 -6 21 -3 25 4 3 -4 17 -16 30
l-23 24 32 17 c17 9 30 19 27 22 -3 2 -15 0 -26 -7 -21 -11 -31 3 -11 15 6 3
9 14 9 23 -1 15 -2 15 -6 0 -5 -22 -36 -23 -52 -4 -7 8 -29 15 -49 14 -20 0
-50 5 -65 11 -34 13 -28 14 -52 -7z m485 -286 c0 -2 -7 -7 -16 -10 -8 -3 -12
-2 -9 4 6 10 25 14 25 6z m405 -167 c11 -16 1 -19 -13 -3 -7 8 -8 14 -3 14 5
0 13 -5 16 -11z"/>
<path d="M9770 3819 c0 -5 5 -7 10 -4 6 3 10 8 10 11 0 2 -4 4 -10 4 -5 0 -10
-5 -10 -11z"/>
<path d="M17176 3821 c-10 -16 5 -42 23 -39 21 4 21 42 -1 46 -9 2 -19 -1 -22
-7z"/>
<path d="M6382 3809 c2 -6 8 -10 13 -10 5 0 11 4 13 10 2 6 -4 11 -13 11 -9 0
-15 -5 -13 -11z"/>
<path d="M16637 3813 c-19 -18 3 -56 26 -47 24 9 22 54 -1 54 -10 0 -22 -3
-25 -7z"/>
<path d="M4198 3803 c7 -3 16 -2 19 1 4 3 -2 6 -13 5 -11 0 -14 -3 -6 -6z"/>
<path d="M4230 3800 c0 -5 5 -10 11 -10 5 0 7 5 4 10 -3 6 -8 10 -11 10 -2 0
-4 -4 -4 -10z"/>
<path d="M14282 3788 c3 -7 13 -15 22 -16 12 -3 17 1 14 10 -3 7 -13 15 -22
16 -12 3 -17 -1 -14 -10z"/>
<path d="M15520 3790 c0 -5 7 -10 16 -10 8 0 12 5 9 10 -3 6 -10 10 -16 10 -5
0 -9 -4 -9 -10z"/>
<path d="M1246 3743 c-3 -21 -6 -60 -6 -86 0 -81 -43 -135 -69 -89 -9 15 -10
14 -11 -7 0 -19 -4 -23 -25 -19 -19 4 -25 1 -25 -13 0 -18 -10 -23 -36 -20 -7
1 -9 -9 -7 -23 4 -21 0 -26 -21 -32 -21 -5 -24 -9 -15 -20 9 -11 8 -18 -1 -29
-7 -9 -15 -13 -18 -10 -12 11 -32 -35 -26 -60 5 -19 2 -25 -10 -25 -9 0 -16
-5 -16 -11 0 -19 54 -74 70 -72 14 3 60 -56 60 -77 0 -5 9 -10 20 -10 22 0 44
-34 35 -53 -4 -6 0 -4 8 5 10 13 23 16 50 11 21 -3 37 -11 37 -17 0 -6 5 -3
11 7 7 12 23 17 54 17 41 0 45 2 45 25 0 19 9 29 35 42 28 13 35 22 35 45 0
16 7 31 15 34 8 4 12 11 9 16 -4 7 2 7 17 2 44 -15 90 -7 120 22 48 46 71 156
40 187 -6 6 -11 18 -11 27 0 8 -23 27 -50 42 -57 31 -71 29 -143 -20 -37 -25
-45 -27 -66 -16 -13 7 -28 20 -33 29 -8 13 -13 14 -24 4 -7 -6 -21 -8 -30 -5
-15 6 -16 20 -11 121 3 63 4 115 2 115 -1 0 -5 -17 -9 -37z"/>
<path d="M2271 3764 c0 -11 3 -14 6 -6 3 7 2 16 -1 19 -3 4 -6 -2 -5 -13z"/>
<path d="M15445 3770 c3 -5 10 -10 16 -10 5 0 9 5 9 10 0 6 -7 10 -16 10 -8 0
-12 -4 -9 -10z"/>
<path d="M14871 3748 c-1 -33 -33 -68 -62 -68 -13 0 -23 10 -30 30 -6 17 -15
30 -20 30 -5 0 -9 -13 -9 -30 0 -26 -4 -30 -26 -30 -15 0 -32 8 -39 17 -12 16
-13 14 -8 -9 4 -20 -2 -34 -21 -53 -17 -17 -25 -33 -21 -45 3 -11 0 -20 -10
-23 -8 -4 -12 -13 -9 -21 3 -9 -5 -35 -20 -59 -19 -34 -22 -47 -13 -56 8 -8 8
-17 1 -29 -14 -24 -10 -75 8 -101 9 -12 14 -31 11 -42 -3 -12 0 -19 9 -19 7 0
22 -14 32 -31 37 -63 78 -101 102 -95 13 4 24 1 27 -7 2 -6 17 -12 32 -12 26
0 30 -5 40 -45 9 -37 13 -41 18 -24 4 12 24 33 44 47 l37 26 11 -27 c7 -15 19
-33 28 -41 24 -19 21 -36 -8 -59 -28 -22 -32 -32 -11 -32 7 0 21 11 30 25 27
41 76 27 76 -21 0 -16 7 -24 23 -26 18 -2 22 -9 21 -35 -2 -38 24 -53 44 -26
13 17 14 17 28 -2 13 -17 16 -18 24 -5 8 13 10 12 10 -2 0 -21 4 -22 30 -6 15
10 24 10 38 1 12 -7 24 -8 35 -2 9 6 38 9 64 7 26 -1 55 0 63 3 8 2 19 -6 25
-18 12 -29 29 -30 20 -3 -10 32 13 52 59 50 82 -3 84 -2 88 33 2 25 8 33 26
35 14 2 32 17 43 37 14 23 29 34 52 38 45 7 58 -7 52 -57 -4 -33 -3 -36 4 -18
16 34 31 26 31 -18 0 -56 17 -86 59 -102 43 -17 73 -8 90 28 13 28 24 30 42 7
8 -9 47 -32 87 -50 72 -33 98 -39 68 -14 -8 7 -12 19 -9 27 3 8 1 14 -5 14 -6
0 -12 -5 -14 -11 -2 -7 -12 1 -22 16 -15 23 -16 27 -3 22 9 -3 17 -1 19 4 6
18 38 -2 44 -27 4 -16 13 -24 29 -24 12 0 29 -8 38 -17 11 -13 28 -17 59 -16
24 2 59 3 79 3 24 0 43 7 55 21 10 12 29 25 42 30 12 5 27 19 32 31 5 13 20
35 32 51 16 19 22 39 21 69 -1 22 3 50 8 60 8 15 7 24 -6 38 -10 11 -15 26
-11 35 8 21 -26 85 -44 82 -9 -1 -16 7 -18 21 -4 24 -12 28 -29 11 -16 -16
-43 -4 -43 20 0 22 39 33 64 19 21 -12 58 -7 54 7 -2 6 -16 10 -32 10 -18 0
-34 8 -43 22 -14 21 -14 23 11 33 30 11 36 24 6 15 -13 -4 -20 -2 -20 6 0 8
-5 5 -13 -5 -11 -15 -24 -17 -75 -14 -34 3 -68 11 -77 18 -8 7 -30 13 -47 14
-46 2 -48 31 -4 86 32 41 37 60 16 60 -6 0 -22 -18 -36 -40 -21 -31 -33 -40
-55 -40 -15 0 -31 -4 -34 -10 -9 -15 -25 -12 -25 5 0 32 -115 7 -126 -27 -3
-10 -13 -18 -22 -18 -14 0 -14 -2 -3 -9 11 -7 9 -10 -8 -16 -31 -10 -35 -1
-16 29 11 16 13 26 6 26 -6 0 -11 -4 -11 -8 0 -5 -9 -19 -20 -32 -11 -13 -20
-29 -20 -37 0 -8 -4 -12 -9 -9 -4 3 -23 1 -41 -4 -42 -12 -49 -6 -24 21 12 14
15 23 8 26 -6 2 -19 10 -29 17 -18 13 -18 14 3 25 29 16 28 31 -3 31 -20 0
-24 4 -21 23 4 26 33 25 52 -1 10 -14 11 -13 8 8 -4 20 1 28 28 41 45 22 49
54 9 77 -19 10 -31 25 -31 38 0 26 -42 50 -67 39 -10 -5 -21 -8 -24 -7 -12 2
-47 -43 -51 -66 -4 -27 -23 -30 -23 -3 -1 28 -34 61 -61 61 -13 0 -38 13 -56
28 -37 32 -97 52 -155 52 -21 0 -44 5 -51 12 -9 9 -15 8 -27 -8 -15 -19 -15
-19 -31 1 -14 19 -16 19 -25 3 -6 -10 -21 -18 -34 -18 -13 0 -27 -4 -30 -10
-8 -13 -55 -13 -55 1 0 5 -16 -2 -35 -17 -19 -14 -35 -32 -35 -40 0 -19 -54
-54 -84 -54 -16 0 -26 -6 -26 -15 0 -8 -5 -15 -11 -15 -5 0 -8 4 -5 8 8 14
-53 54 -72 48 -10 -4 -27 0 -37 8 -17 12 -18 17 -6 54 7 22 11 46 8 53 -3 8
-6 2 -6 -13z m59 -128 c0 -5 -2 -10 -4 -10 -3 0 -8 5 -11 10 -3 6 -1 10 4 10
6 0 11 -4 11 -10z m1189 -579 c8 -5 15 -21 17 -36 3 -26 2 -27 -44 -22 -26 3
-48 6 -49 6 -2 1 -3 10 -3 20 0 26 17 36 23 14 4 -14 5 -13 6 5 1 23 24 29 50
13z m51 -55 c0 -3 -4 -8 -10 -11 -5 -3 -10 -1 -10 4 0 6 5 11 10 11 6 0 10 -2
10 -4z"/>
<path d="M6288 3753 c6 -2 18 -2 25 0 6 3 1 5 -13 5 -14 0 -19 -2 -12 -5z"/>
<path d="M9987 3744 c-4 -4 -7 -16 -7 -26 0 -13 7 -18 26 -18 21 0 25 4 22 22
-3 23 -27 35 -41 22z"/>
<path d="M16540 3731 c-16 -30 -12 -36 10 -16 21 19 26 35 10 35 -5 0 -14 -9
-20 -19z"/>
<path d="M6356 3716 c-21 -32 -22 -64 -2 -47 14 12 30 60 23 67 -2 3 -12 -7
-21 -20z"/>
<path d="M8140 3720 c0 -13 5 -20 13 -17 6 2 12 10 12 17 0 7 -6 15 -12 18 -8
2 -13 -5 -13 -18z"/>
<path d="M17403 3723 c-18 -6 -16 -48 3 -63 12 -11 18 -11 31 2 26 27 0 73
-34 61z"/>
<path d="M11502 3708 c-7 -7 -12 -24 -12 -38 0 -64 74 -67 85 -3 6 39 -46 68
-73 41z"/>
<path d="M14790 3710 c0 -5 5 -10 10 -10 6 0 10 5 10 10 0 6 -4 10 -10 10 -5
0 -10 -4 -10 -10z"/>
<path d="M6180 3685 c6 -7 20 -15 31 -18 16 -4 18 -3 9 8 -6 7 -20 15 -31 18
-16 4 -18 3 -9 -8z"/>
<path d="M14940 3675 c0 -9 5 -15 11 -13 6 2 11 8 11 13 0 5 -5 11 -11 13 -6
2 -11 -4 -11 -13z"/>
<path d="M8940 3655 c0 -9 5 -15 11 -13 6 2 11 8 11 13 0 5 -5 11 -11 13 -6 2
-11 -4 -11 -13z"/>
<path d="M18428 3643 c6 -2 18 -2 25 0 6 3 1 5 -13 5 -14 0 -19 -2 -12 -5z"/>
<path d="M10847 3625 c-22 -6 -44 -20 -49 -30 -6 -11 -17 -25 -26 -32 -13 -11
-11 -14 12 -24 23 -11 25 -16 19 -52 -8 -53 11 -67 93 -67 42 0 65 -5 74 -15
18 -22 46 -18 68 10 l20 25 31 -37 c17 -20 31 -44 31 -54 0 -9 7 -19 15 -23 8
-3 15 -12 15 -20 0 -9 11 -16 28 -18 18 -2 26 -8 23 -18 -22 -91 -6 -155 44
-176 23 -9 34 -22 38 -41 16 -81 104 -110 158 -52 33 35 35 44 14 53 -20 7
-39 56 -27 68 6 6 -2 33 -19 69 -34 69 -33 66 -14 86 10 9 13 23 9 36 -11 35
-67 98 -83 95 -9 -2 -24 9 -33 24 -10 15 -25 28 -33 28 -19 0 -95 47 -95 59 0
15 -29 21 -56 11 -21 -9 -31 -6 -55 14 -16 14 -36 23 -43 20 -8 -3 -29 10 -48
31 -38 41 -58 46 -111 30z"/>
<path d="M812 3598 c-7 -7 -12 -25 -12 -40 0 -21 7 -32 26 -40 23 -11 29 -10
45 11 23 28 24 45 3 65 -18 19 -45 21 -62 4z"/>
<path d="M12182 3588 c-16 -16 -15 -23 3 -42 22 -22 45 -9 45 25 0 31 -25 40
-48 17z"/>
<path d="M19020 3583 c-73 -24 -119 -45 -133 -62 -10 -13 -10 -14 3 -5 8 5 54
23 103 39 48 16 87 33 87 37 0 10 -3 9 -60 -9z"/>
<path d="M8257 3583 c-15 -14 -7 -43 12 -43 23 0 34 23 18 39 -13 13 -21 14
-30 4z"/>
<path d="M10129 3569 c-28 -28 -11 -78 28 -79 18 0 43 29 43 50 0 19 -25 50
-41 50 -5 0 -18 -9 -30 -21z"/>
<path d="M14107 3584 c-12 -12 -8 -41 8 -54 20 -17 47 5 43 34 -3 21 -37 34
-51 20z"/>
<path d="M6360 3559 c0 -8 58 -39 75 -39 16 0 1 22 -25 35 -34 18 -50 19 -50
4z"/>
<path d="M3220 3550 c0 -5 5 -10 10 -10 6 0 10 5 10 10 0 6 -4 10 -10 10 -5 0
-10 -4 -10 -10z"/>
<path d="M9940 3531 c0 -26 -21 -47 -42 -43 -5 1 -8 -3 -8 -9 0 -6 -6 -9 -14
-6 -9 4 -12 0 -9 -13 3 -10 -2 -29 -11 -42 -9 -12 -16 -33 -16 -45 0 -20 -10
-28 -32 -24 -4 0 1 -12 10 -28 24 -42 69 -65 132 -67 67 -3 114 24 131 74 10
30 8 37 -13 60 -41 45 -75 96 -92 135 -18 44 -36 48 -36 8z"/>
<path d="M11620 3530 c0 -13 7 -20 20 -20 13 0 20 7 20 20 0 13 -7 20 -20 20
-13 0 -20 -7 -20 -20z"/>
<path d="M2366 3521 c-4 -7 -5 -15 -2 -18 9 -9 19 4 14 18 -4 11 -6 11 -12 0z"/>
<path d="M7651 3508 c-1 -21 -27 -24 -34 -5 -3 7 -6 4 -6 -7 -1 -14 -6 -17
-26 -12 -19 5 -23 3 -19 -8 4 -10 -3 -17 -20 -22 -14 -3 -26 -12 -26 -20 0 -8
-4 -14 -9 -14 -8 0 -24 -37 -22 -52 1 -5 -7 -8 -16 -8 -12 0 -14 -3 -6 -8 6
-4 11 -21 11 -37 -2 -70 30 -134 68 -135 7 0 14 -7 18 -15 3 -9 18 -15 36 -15
22 0 33 -6 40 -22 l9 -23 0 24 c1 16 5 21 16 18 8 -4 17 -1 21 5 4 7 9 6 15
-3 7 -11 9 -11 9 2 0 19 26 33 42 22 7 -3 8 -1 4 5 -4 6 2 20 13 31 11 11 17
22 14 25 -3 3 -1 12 5 19 7 8 9 17 5 20 -10 10 18 37 38 37 27 0 24 27 -3 36
-26 8 -38 22 -38 46 0 18 -56 79 -64 70 -3 -3 -8 3 -12 12 -3 9 -10 14 -14 11
-13 -8 -39 5 -43 23 -4 15 -5 15 -6 0z"/>
<path d="M12010 3485 c-19 -23 -8 -50 20 -50 18 0 26 6 28 22 4 29 -30 49 -48
28z"/>
<path d="M1975 3481 c-3 -5 -1 -12 5 -16 5 -3 10 1 10 9 0 18 -6 21 -15 7z"/>
<path d="M16483 3464 c-29 -27 -26 -27 20 -4 15 7 27 17 27 22 0 15 -19 8 -47
-18z"/>
<path d="M367 3463 c-4 -3 -7 -19 -7 -34 0 -31 -22 -44 -50 -29 -28 15 -37 12
-36 -12 1 -27 -36 -37 -60 -17 -13 10 -13 8 -5 -13 12 -31 -5 -54 -26 -37 -10
9 -13 6 -13 -13 0 -28 -17 -48 -42 -48 -10 0 -18 -5 -18 -11 0 -7 -11 -9 -28
-6 l-27 5 22 -15 c31 -21 29 -46 -7 -87 -27 -30 -30 -39 -24 -75 4 -24 3 -41
-3 -41 -5 0 -17 -6 -27 -13 -18 -13 -17 -15 8 -39 24 -21 26 -28 16 -52 -11
-30 -6 -46 14 -46 8 0 16 -15 18 -35 2 -19 1 -35 -2 -35 -3 0 -15 -7 -26 -15
-18 -14 -17 -15 16 -12 35 2 35 2 35 -41 0 -40 1 -42 26 -37 37 8 81 -28 73
-61 -7 -26 10 -34 20 -9 8 23 36 18 36 -7 0 -20 1 -20 18 -5 24 22 28 21 36
-5 6 -21 7 -22 17 -5 15 25 60 42 70 26 4 -7 6 -73 4 -148 -4 -142 5 -118 19
50 8 95 18 121 38 101 18 -18 27 -15 38 13 8 21 14 24 35 19 21 -5 25 -3 25
15 0 22 26 40 54 38 14 -2 19 5 20 26 1 16 11 34 24 43 12 8 30 32 40 52 19
42 28 43 167 30 55 -5 63 -5 35 3 -183 53 -173 48 -166 82 3 17 16 42 29 55
l22 23 -22 17 c-21 16 -21 19 -8 42 8 14 17 31 21 37 3 8 -7 26 -25 42 -31 29
-42 73 -21 86 21 13 9 26 -19 20 -36 -8 -47 8 -27 37 20 28 21 44 1 28 -20
-16 -34 -5 -28 23 l5 22 -16 -22 c-10 -13 -23 -23 -31 -23 -22 0 -37 37 -30
73 l6 32 -29 -35 c-26 -29 -32 -32 -46 -21 -9 7 -16 22 -16 32 0 24 -22 24
-44 0 -36 -40 -86 -27 -71 19 6 20 4 25 -8 13z"/>
<path d="M5323 3453 c-27 -10 -7 -63 23 -63 12 0 23 38 16 58 -4 12 -18 14
-39 5z"/>
<path d="M5438 3448 c-8 -21 2 -38 24 -38 14 0 19 6 16 22 -3 25 -33 36 -40
16z"/>
<path d="M5910 3450 c0 -5 7 -10 15 -10 8 0 15 5 15 10 0 6 -7 10 -15 10 -8 0
-15 -4 -15 -10z"/>
<path d="M9655 3430 c-10 -17 12 -37 25 -24 8 8 6 15 -4 23 -10 9 -16 9 -21 1z"/>
<path d="M13802 3424 c4 -21 22 -23 26 -1 2 10 -3 17 -13 17 -10 0 -15 -6 -13
-16z"/>
<path d="M16325 3420 c3 -5 10 -10 16 -10 5 0 9 5 9 10 0 6 -7 10 -16 10 -8 0
-12 -4 -9 -10z"/>
<path d="M17308 3423 c12 -2 30 -2 40 0 9 3 -1 5 -23 4 -22 0 -30 -2 -17 -4z"/>
<path d="M17497 3419 c7 -7 15 -10 18 -7 3 3 -2 9 -12 12 -14 6 -15 5 -6 -5z"/>
<path d="M2798 3385 c-6 -14 -15 -25 -19 -25 -5 0 -19 -21 -32 -47 l-24 -48
32 -45 c24 -34 39 -46 63 -48 45 -5 59 -25 38 -57 -14 -22 -15 -31 -5 -60 7
-18 21 -36 31 -38 10 -3 18 -13 18 -24 0 -22 57 -50 72 -35 11 11 52 2 86 -19
18 -11 24 -11 41 6 12 10 26 37 32 59 6 23 18 49 27 59 11 13 16 37 15 82 0
61 -2 66 -38 99 -24 23 -42 33 -49 27 -6 -4 -36 -11 -66 -14 -30 -3 -63 -9
-74 -13 -14 -5 -17 -3 -14 7 3 8 -1 26 -8 40 -7 15 -11 29 -8 31 2 3 -7 13
-21 22 -14 9 -30 28 -35 42 -13 32 -47 32 -62 -1z"/>
<path d="M8110 3376 c-5 -14 -14 -26 -20 -26 -5 0 -10 -7 -10 -15 0 -10 10
-15 34 -15 35 0 55 13 36 25 -5 3 -10 15 -10 25 0 30 -19 34 -30 6z"/>
<path d="M11476 3334 c-15 -38 -3 -94 20 -94 8 0 14 -7 14 -15 0 -9 -6 -12
-15 -9 -8 4 -15 1 -15 -5 0 -12 63 -30 105 -29 17 1 25 3 19 5 -7 2 -9 13 -7
24 6 21 -33 118 -52 131 -18 14 -63 8 -69 -8z"/>
<path d="M4600 3292 c0 -5 7 -13 16 -16 10 -4 14 -1 12 6 -5 15 -28 23 -28 10z"/>
<path d="M6396 3281 c-5 -7 -17 -10 -28 -8 -11 3 -21 0 -25 -9 -3 -9 -13 -12
-24 -9 -13 4 -19 1 -19 -9 0 -9 -7 -16 -15 -16 -8 0 -15 -7 -15 -15 0 -9 -7
-18 -15 -21 -8 -4 -12 -10 -9 -15 3 -6 1 -15 -4 -22 -13 -16 -14 -114 -2 -122
6 -3 10 -17 10 -31 0 -15 6 -24 16 -24 9 0 18 -8 21 -19 3 -12 11 -17 23 -14
10 3 24 -3 31 -14 16 -21 62 -23 97 -4 23 12 30 3 12 -15 -30 -30 -27 -98 6
-138 34 -39 76 -49 124 -29 42 19 60 51 60 109 0 36 -6 48 -32 73 -18 17 -40
31 -49 31 -31 0 -42 26 -25 59 9 16 16 37 16 46 0 8 5 15 11 15 8 0 8 5 -1 15
-7 8 -10 25 -6 39 3 14 1 26 -5 28 -5 2 -11 10 -12 18 -3 18 -49 66 -60 62 -4
-1 -10 5 -13 13 -4 8 -17 15 -29 15 -13 0 -25 5 -27 12 -3 9 -6 9 -12 -1z"/>
<path d="M16640 3280 c0 -12 28 -25 36 -17 3 3 -4 10 -15 17 -15 7 -21 7 -21
0z"/>
<path d="M16570 3251 c0 -5 7 -15 17 -22 15 -13 15 -12 4 9 -12 23 -21 28 -21
13z"/>
<path d="M16908 3213 c7 -3 16 -2 19 1 4 3 -2 6 -13 5 -11 0 -14 -3 -6 -6z"/>
<path d="M16930 3190 c19 -13 30 -13 30 0 0 6 -10 10 -22 10 -19 0 -20 -2 -8
-10z"/>
<path d="M18732 3184 c10 -10 20 -15 24 -12 3 4 -5 12 -18 18 -22 12 -22 12
-6 -6z"/>
<path d="M5100 3170 c-21 -21 -23 -29 -14 -54 8 -22 41 -20 54 3 26 50 -4 87
-40 51z"/>
<path d="M13866 3168 c-21 -30 -20 -51 3 -72 16 -14 18 -23 10 -43 -7 -18 -5
-32 8 -54 21 -36 45 -37 72 -3 22 28 19 51 -12 76 -19 14 -20 19 -9 43 25 56
-38 102 -72 53z"/>
<path d="M6052 3114 c-50 -34 -48 -110 3 -183 14 -21 25 -42 24 -47 -3 -19 1
-34 11 -34 6 0 10 11 10 23 0 13 9 32 20 42 11 10 20 25 20 34 0 9 7 29 15 45
19 37 20 106 1 106 -7 0 -19 7 -26 15 -16 20 -50 19 -78 -1z"/>
<path d="M6595 3119 c-10 -15 3 -25 16 -12 7 7 7 13 1 17 -6 3 -14 1 -17 -5z"/>
<path d="M9203 3123 c-18 -7 -16 -42 3 -50 8 -3 23 1 31 10 13 13 14 19 3 31
-13 17 -17 18 -37 9z"/>
<path d="M4810 3105 c0 -9 5 -15 11 -13 6 2 11 8 11 13 0 5 -5 11 -11 13 -6 2
-11 -4 -11 -13z"/>
<path d="M4910 3065 c0 -15 6 -25 14 -25 22 0 30 19 16 35 -18 22 -30 18 -30
-10z"/>
<path d="M14755 3070 c-3 -5 -1 -10 4 -10 6 0 11 5 11 10 0 6 -2 10 -4 10 -3
0 -8 -4 -11 -10z"/>
<path d="M5700 3051 c0 -5 5 -13 10 -16 6 -3 10 -2 10 4 0 5 -4 13 -10 16 -5
3 -10 2 -10 -4z"/>
<path d="M6745 3040 c11 -5 27 -9 35 -9 9 0 8 4 -5 9 -11 5 -27 9 -35 9 -9 0
-8 -4 5 -9z"/>
<path d="M5420 3025 c0 -8 7 -15 15 -15 8 0 15 4 15 9 0 5 -7 11 -15 15 -9 3
-15 0 -15 -9z"/>
<path d="M6951 3009 c-1 -22 -8 -43 -21 -54 -11 -10 -20 -28 -20 -41 0 -13 -4
-25 -10 -29 -5 -3 -6 -15 -1 -28 4 -12 6 -27 4 -34 -5 -14 30 -66 72 -105 26
-25 36 -28 78 -25 26 2 50 7 54 11 3 3 13 6 21 6 22 0 52 30 45 46 -3 8 2 17
11 20 9 3 16 16 16 28 0 12 5 27 11 33 7 7 8 17 1 29 -5 11 -7 25 -5 32 3 6
-1 12 -7 12 -7 0 -10 8 -8 18 3 12 -2 24 -14 31 -12 7 -17 18 -14 28 4 11 2
14 -9 10 -8 -4 -18 1 -23 10 -7 12 -25 16 -71 16 -49 1 -63 -2 -75 -18 -12
-17 -15 -17 -19 -5 -3 8 -8 22 -10 30 -3 8 -6 -1 -6 -21z"/>
<path d="M14917 3034 c-21 -21 9 -47 41 -37 14 5 17 33 3 33 -5 0 -16 2 -23 5
-8 3 -17 2 -21 -1z"/>
<path d="M14760 2999 c0 -11 5 -17 10 -14 6 3 10 13 10 21 0 8 -4 14 -10 14
-5 0 -10 -9 -10 -21z"/>
<path d="M4502 2998 c-26 -26 -7 -78 28 -78 22 0 36 12 44 36 12 40 -43 71
-72 42z"/>
<path d="M4746 2993 c-6 -14 -5 -15 5 -6 7 7 10 15 7 18 -3 3 -9 -2 -12 -12z"/>
<path d="M14240 3000 c0 -5 5 -10 11 -10 5 0 7 5 4 10 -3 6 -8 10 -11 10 -2 0
-4 -4 -4 -10z"/>
<path d="M4875 2990 c-3 -5 -1 -10 4 -10 6 0 11 5 11 10 0 6 -2 10 -4 10 -3 0
-8 -4 -11 -10z"/>
<path d="M9620 2945 c-26 -32 13 -81 48 -59 34 22 22 74 -18 74 -10 0 -23 -7
-30 -15z"/>
<path d="M14030 2930 c-24 -59 42 -108 83 -62 35 38 8 92 -45 92 -19 0 -29 -8
-38 -30z"/>
<path d="M1057 2915 c-24 -50 -20 -58 4 -12 11 22 19 41 17 43 -3 2 -12 -12
-21 -31z"/>
<path d="M8156 2934 c-3 -8 -11 -14 -18 -14 -7 0 -24 -14 -38 -32 -14 -17 -31
-37 -38 -45 -7 -7 -11 -17 -7 -22 3 -5 1 -12 -5 -16 -6 -4 -8 -10 -6 -14 3 -4
1 -24 -3 -44 -7 -27 -5 -39 5 -48 8 -6 14 -17 14 -25 0 -14 46 -64 59 -64 5 0
21 -7 37 -14 15 -8 31 -13 36 -10 5 3 15 0 24 -6 22 -19 72 -21 105 -5 63 33
80 107 38 167 -16 22 -18 28 -6 19 16 -13 17 -11 14 20 -2 19 -8 45 -14 59
-17 39 -76 95 -103 98 -14 1 -39 4 -57 6 -21 3 -33 -1 -37 -10z m151 -150 c-3
-3 -12 -4 -19 -1 -8 3 -5 6 6 6 11 1 17 -2 13 -5z m-67 -8 c0 -2 -7 -7 -16
-10 -8 -3 -12 -2 -9 4 6 10 25 14 25 6z m114 -130 c6 -25 5 -28 -7 -17 -8 6
-13 21 -10 32 7 24 8 22 17 -15z"/>
<path d="M8728 2919 c-23 -13 -23 -51 0 -72 24 -22 35 -21 55 1 43 47 -1 103
-55 71z"/>
<path d="M14510 2895 c0 -8 7 -15 15 -15 8 0 15 7 15 15 0 8 -7 15 -15 15 -8
0 -15 -7 -15 -15z"/>
<path d="M15692 2883 c2 -22 8 -28 28 -28 20 0 25 5 25 25 0 20 -6 26 -28 28
-26 3 -28 1 -25 -25z"/>
<path d="M5070 2880 c0 -10 9 -24 20 -30 21 -11 27 1 14 34 -9 23 -34 20 -34
-4z"/>
<path d="M11130 2868 c-34 -56 -24 -108 27 -138 34 -20 36 -20 71 -3 62 31 70
122 13 156 -48 28 -88 22 -111 -15z"/>
<path d="M14880 2879 c0 -5 5 -7 10 -4 6 3 10 8 10 11 0 2 -4 4 -10 4 -5 0
-10 -5 -10 -11z"/>
<path d="M16577 2850 c18 -19 34 -32 36 -29 2 2 -12 17 -32 33 l-36 30 32 -34z"/>
<path d="M14930 2839 c0 -5 5 -7 10 -4 6 3 10 8 10 11 0 2 -4 4 -10 4 -5 0
-10 -5 -10 -11z"/>
<path d="M15025 2831 c-3 -5 -1 -12 5 -16 5 -3 10 1 10 9 0 18 -6 21 -15 7z"/>
<path d="M15312 2808 c6 -18 28 -21 28 -4 0 9 -7 16 -16 16 -9 0 -14 -5 -12
-12z"/>
<path d="M4640 2779 c0 -11 5 -17 10 -14 6 3 10 13 10 21 0 8 -4 14 -10 14 -5
0 -10 -9 -10 -21z"/>
<path d="M7300 2785 c-19 -22 -8 -50 21 -53 19 -2 28 2 31 16 11 41 -26 68
-52 37z"/>
<path d="M15860 2776 c0 -22 3 -27 11 -19 8 8 8 16 0 30 -9 16 -10 14 -11 -11z"/>
<path d="M2751 2775 c-34 -19 -41 -34 -41 -87 0 -39 5 -52 28 -73 52 -49 111
-43 145 16 20 34 20 36 2 81 -14 38 -24 50 -56 62 -45 18 -46 18 -78 1z"/>
<path d="M5423 2773 c-18 -9 -33 -20 -33 -25 0 -13 13 -9 55 17 45 27 28 33
-22 8z"/>
<path d="M15133 2765 c-3 -9 -3 -18 0 -21 9 -9 27 6 27 22 0 19 -19 18 -27 -1z"/>
<path d="M16238 2757 c13 -14 35 -28 49 -32 45 -11 36 3 -19 31 l-53 26 23
-25z"/>
<path d="M8680 2760 c0 -5 5 -10 11 -10 5 0 7 5 4 10 -3 6 -8 10 -11 10 -2 0
-4 -4 -4 -10z"/>
<path d="M14352 2748 c-35 -35 8 -110 49 -87 50 26 43 99 -9 99 -15 0 -33 -5
-40 -12z"/>
<path d="M14906 2738 c-9 -12 -16 -26 -16 -31 0 -13 29 12 41 35 14 26 -6 23
-25 -4z"/>
<path d="M15314 2749 c-8 -14 11 -33 25 -25 11 7 4 36 -9 36 -5 0 -12 -5 -16
-11z"/>
<path d="M15645 2750 c3 -5 8 -10 11 -10 2 0 4 5 4 10 0 6 -5 10 -11 10 -5 0
-7 -4 -4 -10z"/>
<path d="M4200 2735 c-18 -21 -24 -95 -11 -128 13 -34 40 -33 59 3 12 23 11
38 -5 113 -6 30 -24 35 -43 12z"/>
<path d="M16030 2729 c0 -11 4 -18 10 -14 5 3 7 12 3 20 -7 21 -13 19 -13 -6z"/>
<path d="M18845 2720 c-8 -13 5 -13 25 0 13 8 13 10 -2 10 -9 0 -20 -4 -23
-10z"/>
<path d="M8430 2710 c0 -5 5 -10 10 -10 6 0 10 5 10 10 0 6 -4 10 -10 10 -5 0
-10 -4 -10 -10z"/>
<path d="M3995 2700 c-4 -6 -3 -16 3 -22 6 -6 12 -6 17 2 4 6 3 16 -3 22 -6 6
-12 6 -17 -2z"/>
<path d="M15431 2704 c-2 -19 21 -74 29 -74 15 0 39 42 33 57 -4 9 -14 12 -29
9 -13 -4 -24 -1 -27 7 -3 7 -6 7 -6 1z"/>
<path d="M14515 2691 c-6 -11 9 -23 19 -14 9 9 7 23 -3 23 -6 0 -12 -4 -16 -9z"/>
<path d="M14290 2674 c0 -9 5 -14 12 -12 18 6 21 28 4 28 -9 0 -16 -7 -16 -16z"/>
<path d="M15370 2671 c0 -12 6 -21 16 -21 9 0 14 7 12 17 -5 25 -28 28 -28 4z"/>
<path d="M15610 2650 c0 -5 5 -10 10 -10 6 0 10 5 10 10 0 6 -4 10 -10 10 -5
0 -10 -4 -10 -10z"/>
<path d="M4530 2635 c-8 -9 -8 -15 -2 -15 12 0 26 19 19 26 -2 2 -10 -2 -17
-11z"/>
<path d="M6150 2620 c0 -5 7 -10 16 -10 8 0 12 5 9 10 -3 6 -10 10 -16 10 -5
0 -9 -4 -9 -10z"/>
<path d="M8390 2600 c0 -23 25 -27 33 -6 7 16 -1 26 -20 26 -7 0 -13 -9 -13
-20z"/>
<path d="M15066 2604 c-16 -43 8 -78 47 -69 22 6 27 13 27 40 0 33 -13 45 -50
45 -10 0 -21 -7 -24 -16z"/>
<path d="M15477 2609 c-10 -6 -28 -8 -40 -5 -36 9 -98 -15 -108 -42 -18 -47
-11 -82 21 -100 36 -21 37 -31 5 -78 -31 -46 -31 -71 -2 -115 28 -41 60 -59
109 -59 30 0 41 6 61 33 14 17 30 49 37 70 11 36 14 38 42 32 27 -6 29 -5 27
17 -1 12 3 42 11 65 17 56 6 107 -33 148 -35 37 -98 53 -130 34z"/>
<path d="M7436 2595 c-9 -9 -16 -22 -16 -28 0 -6 10 -2 22 11 12 12 19 24 16
27 -3 3 -13 -1 -22 -10z"/>
<path d="M16950 2571 c0 -8 41 -23 47 -17 2 1 -8 8 -22 14 -14 6 -25 8 -25 3z"/>
<path d="M2650 2555 c0 -8 5 -15 10 -15 6 0 10 7 10 15 0 8 -4 15 -10 15 -5 0
-10 -7 -10 -15z"/>
<path d="M4946 2522 c-9 -17 -11 -34 -6 -42 6 -9 12 -5 24 18 9 17 16 36 16
42 0 20 -20 10 -34 -18z"/>
<path d="M15800 2541 c0 -6 4 -13 10 -16 6 -3 7 1 4 9 -7 18 -14 21 -14 7z"/>
<path d="M16610 2532 c0 -17 49 -66 58 -58 3 4 -8 21 -26 39 -18 17 -32 26
-32 19z"/>
<path d="M4595 2509 c-10 -15 3 -25 16 -12 7 7 7 13 1 17 -6 3 -14 1 -17 -5z"/>
<path d="M14752 2488 c-61 -66 -52 -165 19 -195 48 -20 68 -16 105 21 29 29
34 41 34 80 0 93 -101 154 -158 94z"/>
<path d="M5240 2461 c0 -12 6 -21 15 -21 8 0 15 4 15 9 0 5 -7 14 -15 21 -13
10 -15 9 -15 -9z"/>
<path d="M16140 2450 c0 -5 5 -10 10 -10 6 0 10 5 10 10 0 6 -4 10 -10 10 -5
0 -10 -4 -10 -10z"/>
<path d="M15320 2435 c0 -8 5 -15 10 -15 6 0 10 7 10 15 0 8 -4 15 -10 15 -5
0 -10 -7 -10 -15z"/>
<path d="M9174 2415 c-9 -23 4 -47 23 -43 22 4 30 38 11 49 -19 13 -28 11 -34
-6z"/>
<path d="M4091 2389 c-13 -39 -14 -59 -2 -59 9 0 31 53 31 76 0 25 -18 14 -29
-17z"/>
<path d="M16900 2396 c0 -2 7 -7 16 -10 8 -3 12 -2 9 4 -6 10 -25 14 -25 6z"/>
<path d="M8680 2325 c0 -8 5 -15 10 -15 6 0 10 7 10 15 0 8 -4 15 -10 15 -5 0
-10 -7 -10 -15z"/>
<path d="M15851 2304 c0 -11 3 -14 6 -6 3 7 2 16 -1 19 -3 4 -6 -2 -5 -13z"/>
<path d="M6380 2293 c0 -5 4 -15 10 -23 11 -18 25 -7 17 15 -6 15 -27 21 -27
8z"/>
<path d="M15210 2200 c0 -5 5 -10 10 -10 6 0 10 5 10 10 0 6 -4 10 -10 10 -5
0 -10 -4 -10 -10z"/>
<path d="M14735 2170 c3 -5 8 -10 11 -10 2 0 4 5 4 10 0 6 -5 10 -11 10 -5 0
-7 -4 -4 -10z"/>
<path d="M5620 2151 c0 -12 29 -41 41 -41 13 0 11 12 -5 33 -14 18 -36 23 -36
8z"/>
<path d="M7530 2091 c-17 -32 -12 -69 12 -85 29 -20 41 -20 68 2 28 22 30 70
4 89 -27 20 -72 16 -84 -6z"/>
<path d="M14987 2083 c-14 -14 -6 -53 12 -63 27 -14 55 23 40 52 -10 18 -39
24 -52 11z"/>
<path d="M7782 1963 c2 -20 9 -28 23 -28 14 0 21 8 23 28 3 23 0 27 -23 27
-23 0 -26 -4 -23 -27z"/>
<path d="M14653 1875 c-8 -22 6 -33 17 -15 13 20 12 30 0 30 -6 0 -13 -7 -17
-15z"/>
<path d="M7316 1819 c-22 -17 -26 -27 -21 -48 8 -33 21 -48 45 -54 28 -7 70
29 70 59 0 63 -44 82 -94 43z"/>
</g>
</svg>
