<?xml version="1.0" standalone="no"?>
<!DOCTYPE svg PUBLIC "-//W3C//DTD SVG 20010904//EN"
 "http://www.w3.org/TR/2001/REC-SVG-20010904/DTD/svg10.dtd">
<svg version="1.0" xmlns="http://www.w3.org/2000/svg"
 width="236.000000pt" height="236.000000pt" viewBox="0 0 236.000000 236.000000"
 preserveAspectRatio="xMidYMid meet">

<g transform="translate(0.000000,236.000000) scale(0.100000,-0.100000)"
fill="#000000" stroke="none">
<path d="M837 1936 c-47 -17 -67 -34 -67 -55 0 -54 -88 -81 -260 -81 -95 0
-111 -3 -140 -22 -18 -13 -41 -39 -52 -58 -17 -33 -18 -65 -16 -622 3 -575 3
-587 24 -614 11 -15 33 -37 48 -48 27 -21 35 -21 806 -21 771 0 779 0 806 21
15 11 37 33 48 48 21 27 21 39 24 612 1 370 -1 599 -8 622 -12 47 -42 80 -78
87 -45 10 -56 20 -70 61 -8 26 -24 47 -45 60 -30 18 -56 19 -507 21 -381 2
-482 0 -513 -11z m1013 -21 c23 -14 36 -30 38 -47 4 -33 42 -69 83 -77 24 -5
39 -17 54 -41 20 -34 20 -49 20 -630 0 -674 3 -644 -78 -681 -40 -18 -76 -19
-787 -19 -717 0 -747 1 -788 20 -33 15 -47 29 -62 62 -19 41 -20 70 -20 606 0
616 -1 604 59 655 31 26 37 27 154 27 67 0 140 5 161 10 49 11 90 41 94 67 4
28 29 49 72 62 22 6 207 9 500 8 449 -2 466 -3 500 -22z"/>
<path d="M1234 1726 c-20 -15 -14 -51 15 -87 19 -23 20 -24 63 -9 34 12 44 20
46 41 4 31 -19 44 -48 29 -15 -8 -20 -6 -25 9 -8 25 -29 33 -51 17z"/>
<path d="M1470 1721 c0 -6 -10 -10 -22 -8 -14 1 -23 -4 -26 -14 -4 -22 52 -43
66 -26 18 22 18 51 0 55 -10 2 -18 -1 -18 -7z"/>
<path d="M497 1703 c-12 -13 -19 -14 -30 -5 -19 16 -27 5 -27 -36 0 -20 3 -32
8 -28 7 7 8 12 11 38 1 9 4 9 12 1 6 -6 18 -9 25 -6 8 3 14 -1 14 -11 0 -9 4
-16 9 -16 8 0 7 67 -1 76 -3 2 -12 -4 -21 -13z"/>
<path d="M681 1706 c-11 -13 -17 -14 -28 -5 -21 18 -29 2 -10 -19 10 -10 17
-29 17 -41 0 -12 4 -19 10 -16 6 3 10 16 10 29 0 12 5 27 11 33 6 6 9 17 7 23
-3 9 -8 7 -17 -4z"/>
<path d="M553 1675 c-11 -34 -1 -60 11 -29 5 13 9 14 21 4 22 -19 29 -6 13 26
-19 40 -33 39 -45 -1z"/>
<path d="M1815 1650 c-4 -6 -3 -16 3 -22 6 -6 12 -6 17 2 4 6 3 16 -3 22 -6 6
-12 6 -17 -2z"/>
<path d="M419 1521 l-29 -29 0 -479 c0 -533 -2 -513 68 -533 47 -13 77 -13
124 1 69 19 68 10 68 539 l0 472 -29 29 c-27 27 -35 29 -101 29 -66 0 -74 -2
-101 -29z m125 -37 c4 -9 -3 -32 -14 -51 -23 -38 -25 -54 -9 -50 6 1 13 -3 16
-10 5 -13 -22 -21 -54 -15 -29 5 -29 15 2 69 25 42 25 43 5 43 -20 0 -26 11
-13 23 13 14 61 7 67 -9z m15 -288 c17 -37 0 -102 -29 -111 -31 -10 -59 4 -66
31 -8 30 2 82 18 101 19 23 61 12 77 -21z m-16 -258 c8 -12 5 -26 -16 -57 -26
-39 -26 -41 -7 -41 11 0 20 -7 20 -15 0 -21 -68 -21 -76 0 -3 8 4 31 16 50 22
35 22 37 4 50 -17 13 -17 16 -4 25 21 14 51 8 63 -12z m-42 -270 c1 -7 1 -26
1 -43 l-1 -30 7 30 c10 42 42 47 42 7 0 -17 5 -32 10 -34 15 -5 -18 -68 -36
-68 -8 0 -14 9 -14 19 0 12 -9 21 -25 25 -21 5 -25 12 -25 40 0 19 3 41 6 50
7 19 34 21 35 4z"/>
<path d="M505 1179 c-4 -15 -5 -38 -3 -50 l4 -24 13 25 c8 17 9 33 3 50 l-10
25 -7 -26z"/>
<path d="M745 1520 c-3 -5 1 -20 9 -32 9 -12 16 -17 16 -11 0 7 -4 15 -10 18
-5 3 -10 11 -10 16 0 6 5 7 12 3 7 -4 8 -3 4 4 -9 15 -13 15 -21 2z"/>
<path d="M929 1513 c0 -10 -3 -13 -6 -5 -8 21 -23 13 -23 -13 0 -20 5 -25 25
-25 20 0 25 5 25 24 0 29 -20 46 -21 19z"/>
<path d="M960 1495 c0 -25 4 -35 13 -32 6 2 12 16 12 32 0 16 -6 30 -12 33 -9
2 -13 -8 -13 -33z m17 -7 c-3 -8 -6 -5 -6 6 -1 11 2 17 5 13 3 -3 4 -12 1 -19z"/>
<path d="M1001 1502 c-1 -18 3 -31 8 -28 5 4 12 0 14 -6 3 -7 6 2 6 20 1 18
-3 31 -8 28 -5 -4 -12 0 -14 6 -3 7 -6 -2 -6 -20z"/>
<path d="M1090 1498 c0 -36 4 -35 14 5 4 16 2 27 -4 27 -5 0 -10 -14 -10 -32z"/>
<path d="M1160 1495 c0 -19 3 -35 8 -35 4 0 7 16 7 35 0 19 -3 35 -7 35 -5 0
-8 -16 -8 -35z"/>
<path d="M1300 1495 c0 -19 3 -35 8 -35 4 0 7 16 7 35 0 19 -3 35 -7 35 -5 0
-8 -16 -8 -35z"/>
<path d="M1334 1517 c-7 -20 -2 -47 11 -50 14 -3 19 43 6 56 -7 7 -12 6 -17
-6z m13 -29 c-3 -8 -6 -5 -6 6 -1 11 2 17 5 13 3 -3 4 -12 1 -19z"/>
<path d="M1438 1500 c2 -16 5 -30 7 -30 2 0 5 14 7 30 3 19 0 30 -7 30 -7 0
-10 -11 -7 -30z"/>
<path d="M1514 1500 c1 -43 20 -47 23 -5 2 28 2 29 -6 5 l-8 -25 -5 30 c-5 28
-6 27 -4 -5z"/>
<path d="M1627 1523 c-4 -3 -7 -18 -7 -31 0 -25 10 -26 14 0 1 7 5 19 9 26 8
12 -5 17 -16 5z"/>
<path d="M1660 1503 c0 -19 5 -30 14 -30 12 0 13 5 4 20 -8 15 -7 18 2 12 8
-5 11 -3 8 5 -9 27 -28 22 -28 -7z"/>
<path d="M1792 1495 c1 -27 5 -34 15 -30 8 3 21 5 29 5 16 0 20 45 4 55 -6 4
-10 -5 -10 -19 0 -14 -4 -26 -10 -26 -10 0 -14 14 -11 38 1 6 -3 12 -8 12 -6
0 -10 -16 -9 -35z"/>
<path d="M1866 1503 c10 -40 14 -41 14 -5 0 18 -5 32 -10 32 -6 0 -8 -11 -4
-27z"/>
<path d="M784 1492 c1 -32 21 -28 23 5 2 28 2 28 -6 -2 -8 -30 -8 -30 -13 -5
-4 22 -5 22 -4 2z"/>
<path d="M821 1491 c0 -14 3 -20 6 -12 5 11 7 11 14 0 6 -10 9 -7 9 12 0 16
-5 26 -15 26 -10 0 -15 -10 -14 -26z"/>
<path d="M1123 1497 c1 -15 7 -28 12 -28 6 0 11 13 12 28 2 28 2 28 -6 3 l-8
-25 -6 25 c-5 24 -5 23 -4 -3z"/>
<path d="M1240 1501 c0 -9 5 -23 10 -31 9 -13 10 -13 10 0 0 13 1 13 10 0 8
-13 10 -13 10 2 0 9 2 23 5 30 4 10 -2 14 -20 14 -16 0 -25 -6 -25 -15z"/>
<path d="M1471 1495 c0 -16 3 -24 6 -16 5 11 7 11 14 0 6 -10 8 -5 8 16 0 17
-3 24 -6 16 -5 -11 -7 -11 -14 0 -6 10 -8 5 -8 -16z"/>
<path d="M1702 1495 c0 -16 2 -22 5 -12 2 9 2 23 0 30 -3 6 -5 -1 -5 -18z"/>
<path d="M1297 1343 c-2 -5 0 -21 4 -38 7 -29 7 -29 8 8 1 35 -3 46 -12 30z"/>
<path d="M1466 1341 c-4 -5 -1 -11 5 -13 9 -3 9 -9 0 -26 -9 -17 -9 -22 1 -22
8 0 14 14 15 35 3 33 -9 46 -21 26z"/>
<path d="M1640 1341 c0 -6 5 -11 10 -11 12 0 9 -22 -5 -32 -12 -9 0 -22 14
-14 14 9 9 58 -7 64 -6 2 -12 -1 -12 -7z"/>
<path d="M1823 1330 c-8 -18 -7 -27 1 -32 12 -8 20 13 13 40 -3 14 -6 12 -14
-8z"/>
<path d="M950 1140 c0 -20 5 -30 15 -30 17 0 20 25 5 35 -6 4 -8 11 -5 16 4 5
1 9 -4 9 -6 0 -11 -13 -11 -30z"/>
<path d="M1125 1141 c0 -32 9 -29 20 7 4 15 2 22 -7 22 -8 0 -13 -12 -13 -29z"/>
<path d="M1297 1163 c-13 -13 -7 -53 8 -53 10 0 15 10 15 30 0 29 -9 38 -23
23z"/>
<path d="M1465 1160 c-4 -6 -2 -17 5 -24 8 -11 8 -15 -2 -19 -8 -4 -7 -6 5 -6
12 -1 17 7 17 29 0 30 -13 40 -25 20z"/>
<path d="M1621 1140 c0 -26 2 -30 8 -16 7 18 8 18 14 3 3 -9 12 -17 19 -16 10
0 10 2 1 6 -7 2 -13 14 -13 26 0 20 0 20 14 1 13 -16 14 -17 12 -2 -3 26 -14
32 -30 19 -11 -9 -15 -9 -19 1 -3 7 -5 -3 -6 -22z"/>
<path d="M1798 1140 c2 -16 6 -30 8 -30 2 0 4 14 4 30 0 17 -4 30 -8 30 -5 0
-7 -13 -4 -30z"/>
<path d="M1826 1143 c10 -40 14 -41 14 -5 0 18 -5 32 -10 32 -6 0 -8 -11 -4
-27z"/>
<path d="M787 983 c8 -6 9 -14 3 -23 -12 -19 -13 -30 -2 -30 5 0 9 6 9 13 0 6
2 18 4 26 2 7 -3 16 -11 18 -10 3 -11 2 -3 -4z"/>
<path d="M928 960 c2 -16 6 -30 8 -30 2 0 4 14 4 30 0 17 -4 30 -8 30 -5 0 -7
-13 -4 -30z"/>
<path d="M955 982 c6 -4 10 -14 10 -22 0 -8 -4 -18 -10 -22 -6 -4 -2 -8 8 -8
12 0 17 8 17 30 0 22 -5 30 -17 30 -10 0 -14 -4 -8 -8z"/>
<path d="M1103 963 c2 -19 8 -27 25 -28 18 -1 22 3 22 29 -1 29 -1 30 -15 12
-13 -17 -15 -18 -15 -3 0 9 -4 17 -9 17 -6 0 -9 -12 -8 -27z"/>
<path d="M1276 963 c8 -34 14 -42 14 -20 0 18 15 23 24 8 4 -5 0 -12 -6 -14
-9 -4 -10 -6 -1 -6 18 -1 26 18 14 33 -6 7 -8 16 -4 19 3 4 1 7 -4 7 -6 0 -14
-6 -16 -12 -4 -10 -6 -10 -6 0 -1 6 -6 12 -11 12 -6 0 -8 -11 -4 -27z"/>
<path d="M1448 960 c2 -16 6 -30 8 -30 2 0 4 14 4 30 0 17 -4 30 -8 30 -5 0
-7 -13 -4 -30z"/>
<path d="M1470 960 c0 -20 5 -30 15 -30 17 0 20 26 4 36 -8 4 -7 9 2 15 11 7
10 9 -3 9 -13 0 -18 -8 -18 -30z"/>
<path d="M1624 960 c1 -17 4 -30 9 -30 10 0 9 48 -2 54 -4 3 -8 -8 -7 -24z"/>
<path d="M1653 957 c-1 -26 0 -28 7 -12 11 26 12 45 3 45 -5 0 -9 -15 -10 -33z"/>
<path d="M1794 974 c3 -9 6 -21 6 -28 0 -6 11 -13 25 -14 22 -1 25 2 25 28 0
36 -26 42 -33 8 l-4 -23 -2 23 c0 12 -6 22 -12 22 -6 0 -8 -7 -5 -16z"/>
<path d="M762 960 c0 -14 2 -19 5 -12 2 6 2 18 0 25 -3 6 -5 1 -5 -13z"/>
<path d="M1794 799 c-3 -5 0 -9 6 -9 7 0 8 -6 0 -19 -14 -27 -13 -31 8 -30 9
0 12 3 5 6 -9 3 -10 9 -1 23 9 13 14 15 24 6 8 -8 9 -15 2 -23 -7 -9 -7 -13 1
-13 16 0 27 33 13 38 -7 2 -10 7 -7 12 3 4 -7 10 -20 13 -14 2 -28 0 -31 -4z"/>
<path d="M762 775 c0 -16 2 -22 5 -12 2 9 2 23 0 30 -3 6 -5 -1 -5 -18z"/>
<path d="M790 793 c5 -2 10 -9 10 -14 0 -6 -6 -7 -12 -3 -10 6 -10 5 -1 -8 7
-8 11 -18 8 -22 -3 -3 0 -2 6 3 14 11 8 44 -9 47 -7 1 -8 0 -2 -3z"/>
<path d="M930 790 c12 -7 12 -12 2 -22 -15 -15 -15 -28 1 -28 6 0 13 14 14 30
2 23 -2 30 -15 30 -14 0 -15 -2 -2 -10z"/>
<path d="M960 770 c0 -20 5 -30 15 -30 10 0 15 10 15 30 0 20 -5 30 -15 30
-10 0 -15 -10 -15 -30z m17 -12 c-3 -7 -5 -2 -5 12 0 14 2 19 5 13 2 -7 2 -19
0 -25z"/>
<path d="M1099 791 c10 -7 11 -13 2 -30 -9 -16 -9 -21 2 -21 7 0 14 13 15 30
2 23 -2 30 -15 30 -14 0 -15 -2 -4 -9z"/>
<path d="M1138 770 c2 -16 6 -30 8 -30 2 0 4 14 4 30 0 17 -4 30 -8 30 -5 0
-7 -13 -4 -30z"/>
<path d="M1277 792 c8 -5 9 -13 3 -22 -15 -24 -12 -30 18 -30 23 0 27 4 29 30
2 28 0 30 -30 30 -18 0 -27 -4 -20 -8z m39 -18 c-3 -9 -6 -18 -6 -20 0 -2 -7
-4 -15 -4 -13 0 -14 4 -5 20 13 24 35 27 26 4z"/>
<path d="M1447 792 c8 -5 9 -13 3 -22 -13 -21 -12 -30 3 -30 6 0 13 14 14 30
2 23 -2 30 -15 30 -12 0 -13 -3 -5 -8z"/>
<path d="M1485 770 c0 -16 5 -28 10 -27 13 5 13 49 0 54 -6 2 -10 -10 -10 -27z"/>
<path d="M1627 792 c8 -5 9 -13 3 -22 -12 -19 -13 -30 -2 -30 5 0 9 6 9 13 0
6 4 20 8 30 5 13 2 17 -11 17 -13 0 -15 -3 -7 -8z"/>
<path d="M1660 791 c0 -5 -3 -16 -6 -24 -3 -8 2 -17 10 -20 12 -5 16 1 16 23
0 17 -4 30 -10 30 -5 0 -10 -4 -10 -9z"/>
<path d="M926 611 c-4 -5 0 -11 6 -14 10 -4 11 -7 1 -18 -7 -7 -13 -17 -13
-21 0 -4 6 -8 13 -8 6 0 13 13 14 30 2 30 -11 48 -21 31z"/>
<path d="M964 585 c0 -20 3 -32 7 -28 12 13 15 56 4 60 -5 1 -10 -13 -11 -32z"/>
<path d="M1095 610 c-3 -5 -1 -10 5 -10 6 0 8 -10 4 -25 -4 -15 -2 -25 5 -25
6 0 8 6 5 14 -3 8 -1 17 4 20 5 3 12 -3 15 -14 8 -30 27 -24 27 8 0 35 -9 45
-27 31 -9 -9 -13 -8 -13 0 0 14 -17 15 -25 1z"/>
<path d="M1275 610 c-2 -4 7 -13 20 -20 14 -7 25 -17 25 -22 0 -5 -5 -6 -12
-2 -7 4 -8 3 -4 -4 14 -23 27 -12 24 20 -2 25 -8 32 -26 33 -13 1 -25 -1 -27
-5z"/>
<path d="M1445 610 c-3 -5 -2 -10 2 -10 5 0 9 -9 10 -20 1 -11 -2 -18 -8 -15
-5 4 -9 1 -9 -4 0 -14 17 -14 26 0 5 8 9 8 14 -1 11 -18 30 -3 30 25 0 33 -18
41 -29 13 -7 -16 -10 -18 -10 -6 -1 21 -17 32 -26 18z m52 -42 c-3 -7 -5 -2
-5 12 0 14 2 19 5 13 2 -7 2 -19 0 -25z"/>
<path d="M1615 610 c-3 -5 -1 -10 6 -10 7 0 9 -10 7 -25 -3 -14 -1 -25 3 -25
5 0 9 16 9 35 0 34 -12 46 -25 25z"/>
<path d="M1657 613 c-2 -5 0 -21 4 -38 7 -29 7 -29 8 8 1 35 -3 46 -12 30z"/>
<path d="M1833 608 c-4 -7 -17 -13 -28 -13 -30 0 -24 -28 8 -40 24 -8 31 -6
43 10 16 22 15 46 -3 52 -6 2 -15 -2 -20 -9z"/>
<path d="M750 606 c0 -2 7 -6 15 -10 8 -3 15 -1 15 4 0 6 -7 10 -15 10 -8 0
-15 -2 -15 -4z"/>
<path d="M790 586 c0 -14 4 -27 9 -31 15 -8 24 14 12 29 -6 7 -8 16 -4 19 3 4
1 7 -5 7 -7 0 -12 -11 -12 -24z"/>
<path d="M1276 574 c-8 -20 -8 -24 2 -24 4 0 8 9 9 20 2 24 -3 26 -11 4z"/>
<path d="M756 571 c-4 -7 -5 -15 -2 -18 9 -9 19 4 14 18 -4 11 -6 11 -12 0z"/>
</g>
</svg>
