<?xml version="1.0" standalone="no"?>
<!DOCTYPE svg PUBLIC "-//W3C//DTD SVG 20010904//EN"
 "http://www.w3.org/TR/2001/REC-SVG-20010904/DTD/svg10.dtd">
<svg version="1.0" xmlns="http://www.w3.org/2000/svg"
 width="563.000000pt" height="519.000000pt" viewBox="0 0 563.000000 519.000000"
 preserveAspectRatio="xMidYMid meet">

<g transform="translate(0.000000,519.000000) scale(0.100000,-0.100000)"
fill="#000000" stroke="none">
<path d="M1887 4489 c-58 -14 -91 -34 -134 -83 -46 -52 -62 -95 -70 -192 -8
-105 6 -386 21 -381 7 2 13 72 16 223 l6 219 31 66 c28 59 36 69 84 93 52 26
57 26 255 26 216 0 214 0 214 -50 0 -10 7 -26 16 -34 13 -14 54 -16 298 -16
313 0 310 -1 318 65 l3 30 179 3 c145 2 189 -1 229 -14 60 -20 109 -61 145
-123 l27 -46 -1 -265 c-2 -275 -15 -1025 -39 -2248 -14 -685 -15 -714 -35
-760 -25 -57 -71 -106 -125 -135 -40 -22 -42 -22 -720 -22 -644 0 -682 1 -715
19 -49 26 -98 74 -123 121 -21 38 -22 57 -28 410 -10 528 -10 1635 -1 1635 48
0 184 -56 276 -112 44 -27 89 -54 100 -60 l21 -10 -21 19 c-11 11 -31 26 -43
33 -19 10 -21 14 -10 22 10 6 6 7 -11 2 -14 -3 -22 -3 -18 1 8 8 -78 85 -95
85 -7 0 2 -9 18 -20 17 -11 24 -20 17 -20 -7 0 -24 11 -38 25 -28 28 -162 87
-177 78 -6 -4 -8 0 -4 10 3 9 1 19 -5 23 -7 4 -8 3 -4 -4 11 -18 -3 -14 -34 8
-16 11 -31 29 -35 39 -4 14 -12 17 -27 13 -16 -4 -20 -2 -15 10 6 18 -31 100
-42 93 -4 -2 -7 15 -6 38 3 73 -6 129 -21 123 -11 -4 -13 21 -12 127 1 79 5
138 12 146 8 11 8 13 -1 7 -7 -4 -25 -33 -40 -64 -51 -108 -39 -317 24 -434
15 -27 53 -74 85 -103 l58 -54 8 -1023 c9 -1137 3 -1055 78 -1138 21 -23 56
-51 78 -63 l41 -22 710 0 710 0 41 22 c52 28 116 100 133 150 10 28 19 319 36
1158 13 616 28 1343 34 1615 12 584 12 588 -76 672 -79 77 -32 73 -838 75
-403 1 -737 -3 -758 -8z m888 -69 c0 -13 -24 -15 -144 -18 -139 -2 -171 3
-156 27 4 8 53 11 153 9 123 -3 147 -5 147 -18z m-1105 -1280 c0 -5 -5 -10
-11 -10 -5 0 -7 5 -4 10 3 6 8 10 11 10 2 0 4 -4 4 -10z m35 -48 c-3 -3 -11 0
-18 7 -9 10 -8 11 6 5 10 -3 15 -9 12 -12z"/>
<path d="M3642 4050 c0 -19 2 -27 5 -17 2 9 2 25 0 35 -3 9 -5 1 -5 -18z"/>
<path d="M1560 3654 c0 -8 5 -12 10 -9 6 3 10 10 10 16 0 5 -4 9 -10 9 -5 0
-10 -7 -10 -16z"/>
<path d="M3632 3490 c0 -14 2 -19 5 -12 2 6 2 18 0 25 -3 6 -5 1 -5 -13z"/>
<path d="M2260 3461 c0 -6 4 -13 10 -16 6 -3 7 1 4 9 -7 18 -14 21 -14 7z"/>
<path d="M2342 3123 c-19 -2 -30 -9 -26 -15 4 -6 -1 -8 -16 -3 -15 5 -20 4
-16 -4 4 -6 0 -11 -8 -11 -9 0 -16 -4 -16 -9 0 -5 -24 -12 -52 -16 -29 -5 -45
-10 -36 -12 43 -10 350 49 334 64 -7 8 -121 12 -164 6z"/>
<path d="M3405 757 c-38 -21 -54 -22 -375 -28 l-335 -6 390 2 c274 2 407 6
448 15 31 7 57 16 57 20 0 7 -85 20 -125 19 -11 0 -38 -10 -60 -22z"/>
</g>
</svg>
