<svg width="375" height="320" fill="none" xmlns="http://www.w3.org/2000/svg"><path d="M242.247 202.951c34.915-33.717 37.733-87.443 6.293-120-31.439-32.558-85.231-31.618-120.146 2.098-34.916 33.717-37.733 87.442-6.294 120 31.44 32.558 85.232 31.618 120.147-2.098Z" fill="#525A75"/><path d="M103.192 144.637c-3.278 46.875 32.064 84.871 78.939 84.871 46.875 0 87.53-37.999 90.806-84.871 3.276-46.872-32.064-84.87-78.939-84.87m-83.558 55.558a89.189 89.189 0 0 0-5.211 15.699" stroke="#000" stroke-width=".894" stroke-miterlimit="10"/><path d="M238.524 198.84c32.623-31.502 35.255-81.699 5.881-112.119-29.375-30.419-79.634-29.541-112.256 1.961s-35.255 81.699-5.88 112.119c29.374 30.419 79.633 29.541 112.255-1.961Z" fill="#F8F5EA"/><path d="M185.547 143.622 209 67s-10-2.5-18.5-2" fill="#E5D1EA"/><path d="m190.706 69.031-1.13 16.146m-8.205 117.334-1.127 16.145m80.044-74.811h-16.145m-117.335 0h-16.145" stroke="#000" stroke-width=".596" stroke-miterlimit="10"/><path d="m244.851 184.999-12.815-8.882m-93.124-64.546-12.812-8.882m15.398 104.936 9.489-13.767m68.974-100.029 9.492-13.767m-11.206 128.167-7.075-13.895M159.776 93.353l-7.072-13.894m-36.188 99.694 14.884-7.621m108.152-55.377 14.881-7.621" stroke="#BB9CC2" stroke-width=".596" stroke-miterlimit="10"/><path d="M187.501 145h-8.5L190.5 72.5l-2.999 72.5Z" fill="#525A75"/><path d="m179.973 137.118 1.104 11.191-36.404-3.846 35.3-7.345Z" fill="#525A75"/><path d="M188.996 148.383c3.467-3.347 3.747-8.68.626-11.912-3.121-3.231-8.46-3.138-11.927.21-3.466 3.347-3.746 8.68-.626 11.912 3.121 3.231 8.461 3.138 11.927-.21Z" fill="#525A75"/><path d="M184.072 134.203c4.652 0 8.161 3.771 7.835 8.426" stroke="#F8F5EA" stroke-width=".596" stroke-miterlimit="10"/><path d="m129.813 56.426-13.842-16.093m-3.854 41.222-19.094-5.383m66.98-30.505L158.026 25m39.159 22.643 6.356-17.317M99.75 237.974l-1.623 6.214m4.885-18.708-1.617 6.195m8.482 3.322-6.008-.107m-6.523-.115-6.011-.107m170.02-13.514-1.623 6.214m4.884-18.71-1.617 6.195m8.487 3.322-6.011-.107m-6.524-.115-6.009-.107" stroke="#000" stroke-width=".458" stroke-miterlimit="10"/><path d="M256.319 50.837a5.318 5.318 0 1 0-.001-10.635 5.318 5.318 0 0 0 .001 10.635Z" fill="#FFC0CD"/><path d="M86.738 128.566a7.738 7.738 0 1 0 0-15.475 7.738 7.738 0 0 0 0 15.475Z" fill="#E5D1EA"/><path d="M222 252.19a4 4 0 1 0 0-8 4 4 0 0 0 0 8Z" fill="#1DA4A6" fill-opacity=".2"/><path d="M271.631 97.564c-21.221-2.516-40.116 9.721-42.204 27.332-2.087 17.61 13.424 33.926 34.645 36.441 21.221 2.516 40.116-9.721 42.204-27.332 2.087-17.611-13.424-33.926-34.645-36.441Z" fill="#000" fill-opacity=".1"/><path d="M271.907 88.84c-21.001-2.489-40.697 9.601-42.908 28.256-2.211 18.655 14.112 35.015 35.113 37.504 21 2.489 40.696-9.601 42.907-28.256 2.212-18.655-14.112-35.014-35.112-37.503Z" fill="#E5D1EA" stroke="#fff" stroke-width="6"/><path d="M246.833 124.571c.224-1.303.63-2.319 1.219-3.049.588-.729 1.455-1.28 2.599-1.653l1.959-.625c1.181-.378 1.864-1.103 2.048-2.175.102-.588-.007-1.094-.326-1.517-.317-.434-.781-.704-1.392-.809-.761-.131-1.395.003-1.903.403-.497.401-.819 1.034-.968 1.898l-1.626-.279c.215-1.245.748-2.174 1.602-2.787.866-.623 1.911-.829 3.133-.618 1.141.196 1.996.646 2.563 1.349.568.703.764 1.561.589 2.576-.263 1.533-1.228 2.584-2.892 3.152l-1.962.642c-.794.267-1.369.572-1.725.914-.353.331-.628.824-.824 1.478l6.174 1.063-.244 1.418-8.024-1.381Zm14.6 2.512 1.372-7.972 1.504.259-.25 1.453a2.458 2.458 0 0 1 1.067-1.027c.471-.252 1.006-.326 1.605-.223 1.372.236 2.127.954 2.265 2.153.27-.464.663-.818 1.18-1.062a2.748 2.748 0 0 1 1.674-.21c1.914.329 2.691 1.537 2.332 3.624l-.869 5.05-1.504-.259.818-4.756c.244-1.418-.21-2.226-1.363-2.425-1.303-.224-2.111.575-2.425 2.397l-.714 4.15-1.504-.259.8-4.652c.256-1.487-.187-2.329-1.328-2.525-.622-.107-1.146.04-1.572.442-.423.39-.713 1.04-.87 1.951l-.714 4.15-1.504-.259Zm16.756-6.731c-.357-.062-.632-.228-.822-.498a1.187 1.187 0 0 1-.197-.924c.059-.346.224-.614.494-.805.272-.203.587-.273.945-.211.345.059.613.23.802.511.191.271.256.579.197.925-.06.345-.225.614-.495.805-.27.191-.578.256-.924.197Zm-2.368 9.207 1.372-7.972 1.504.259-1.371 7.972-1.505-.259Zm4.104.706 1.372-7.972 1.504.259-.253 1.47a2.674 2.674 0 0 1 1.249-1.049c.536-.217 1.144-.266 1.824-.149 1.983.341 2.787 1.601 2.412 3.78l-.845 4.911-1.505-.259.732-4.254c.155-.899.108-1.59-.142-2.072-.237-.48-.708-.781-1.411-.902-.726-.125-1.326.015-1.8.421-.461.407-.764 1.026-.907 1.856l-.726 4.219-1.504-.259Z" fill="#000"/></svg>