<?xml version="1.0" standalone="no"?>
<!DOCTYPE svg PUBLIC "-//W3C//DTD SVG 20010904//EN"
 "http://www.w3.org/TR/2001/REC-SVG-20010904/DTD/svg10.dtd">
<svg version="1.0" xmlns="http://www.w3.org/2000/svg"
 width="564.000000pt" height="846.000000pt" viewBox="0 0 564.000000 846.000000"
 preserveAspectRatio="xMidYMid meet">

<g transform="translate(0.000000,846.000000) scale(0.100000,-0.100000)"
fill="#000000" stroke="none">
<path d="M2545 5910 c-51 -16 -102 -67 -136 -135 l-31 -64 -52 35 c-63 41
-122 48 -164 18 -33 -24 -82 -117 -82 -156 0 -97 159 -237 399 -352 41 -19 78
-33 83 -30 33 21 147 240 188 363 53 156 37 254 -47 303 -37 22 -116 31 -158
18z m-335 -312 c34 -71 37 -98 14 -98 -28 0 -74 56 -74 90 0 30 15 70 26 70 3
0 18 -28 34 -62z m363 -283 c-3 -9 -8 -14 -10 -11 -3 3 -2 9 2 15 9 16 15 13
8 -4z"/>
<path d="M3189 5827 c-99 -37 -186 -107 -218 -177 -21 -46 -25 -69 -24 -140 1
-72 19 -182 39 -233 3 -10 -31 -32 -118 -77 -132 -67 -387 -198 -613 -315 -77
-40 -269 -138 -426 -219 l-286 -146 5 -110 c4 -104 3 -113 -23 -165 -15 -31
-40 -65 -56 -77 -34 -26 -36 -42 -9 -85 19 -32 19 -33 0 -75 -25 -55 -25 -82
1 -134 21 -44 70 -77 135 -90 26 -5 36 -17 67 -80 35 -71 36 -76 22 -104 -8
-16 -15 -48 -15 -71 0 -72 42 -116 150 -157 17 -6 40 -37 72 -94 l46 -86 -25
-52 c-20 -41 -23 -60 -17 -93 11 -70 97 -137 176 -137 11 0 31 -28 57 -77 46
-88 47 -90 26 -129 -19 -37 -19 -107 -1 -143 18 -35 53 -58 120 -80 l51 -18
80 -146 c44 -81 83 -147 87 -147 5 0 311 159 681 354 1071 565 948 495 965
546 11 32 12 45 4 48 -7 2 -9 13 -6 28 4 15 0 29 -10 39 -14 15 -14 18 3 36
19 21 28 50 38 127 3 28 12 46 24 53 11 5 19 20 19 34 0 13 -100 206 -221 427
-122 222 -260 473 -306 558 -47 85 -94 170 -104 188 -11 18 -19 37 -19 41 0 5
48 35 107 67 409 223 643 456 643 638 0 112 -86 233 -209 293 -48 24 -68 28
-141 28 -112 0 -192 -28 -314 -110 l-94 -63 -26 82 c-31 98 -78 179 -129 220
-33 26 -48 31 -105 33 -39 2 -82 -3 -103 -10z m-54 -197 c4 -6 2 -17 -4 -24
-6 -7 -16 -60 -22 -117 -6 -57 -15 -108 -20 -113 -11 -13 -49 71 -49 109 0 50
20 106 47 131 29 26 39 29 48 14z m27 -342 c9 -7 91 -148 181 -313 563 -1025
767 -1399 767 -1405 0 -3 -33 -22 -72 -43 -75 -37 -182 -95 -298 -159 -36 -19
-105 -57 -155 -83 -214 -114 -489 -264 -525 -287 -14 -8 -77 -43 -141 -76
l-116 -60 -53 102 c-29 55 -72 137 -95 181 -24 44 -127 242 -230 440 -103 198
-219 421 -258 495 -38 74 -91 176 -117 225 -26 50 -78 148 -115 219 -38 72
-64 131 -59 133 9 3 583 298 1039 534 116 60 215 109 221 109 5 0 17 -6 26
-12z m-1245 -798 c39 -74 130 -250 203 -390 73 -140 152 -291 175 -335 47 -89
370 -709 488 -937 l77 -148 -23 -14 c-63 -40 -203 -116 -213 -116 -18 0 -44
40 -99 149 -48 97 -48 110 -2 111 24 0 67 44 67 68 0 11 -8 30 -19 43 -20 25
-65 30 -131 15 l-36 -7 -54 103 c-29 57 -66 126 -81 155 l-28 51 27 7 c53 13
72 32 72 76 0 36 -3 41 -35 55 -27 11 -45 12 -77 4 -24 -5 -46 -10 -50 -10 -7
0 -168 304 -168 319 0 5 13 12 30 16 45 10 80 42 80 74 0 55 -67 82 -141 57
-24 -8 -44 -14 -45 -13 -11 12 -145 279 -142 282 3 3 22 11 44 18 43 15 61 47
50 90 -9 39 -71 56 -126 35 l-39 -16 -24 41 c-66 113 -116 226 -104 234 50 33
243 130 248 124 3 -3 38 -67 76 -141z m-251 -222 l24 -47 -58 -35 c-31 -19
-74 -52 -95 -72 -21 -20 -39 -35 -41 -33 -25 31 -23 44 13 86 41 46 71 124 71
182 0 71 16 56 86 -81z m175 -48 c11 -6 19 -21 19 -35 0 -20 -8 -26 -55 -40
-81 -23 -197 -79 -222 -106 -33 -36 -54 -95 -47 -127 4 -15 16 -42 27 -60 l20
-34 -29 15 c-107 56 -102 165 12 267 50 45 102 77 173 106 64 27 75 28 102 14z
m-12 -264 c39 -73 71 -138 71 -144 0 -5 -19 -21 -42 -35 -24 -14 -65 -44 -91
-67 -26 -23 -49 -41 -51 -39 -2 2 -36 66 -75 141 -70 133 -72 138 -57 166 8
16 21 34 29 40 22 19 121 72 133 72 6 0 43 -60 83 -134z m245 -149 c35 -26 15
-50 -64 -78 -156 -54 -235 -113 -247 -182 -6 -39 9 -89 36 -121 15 -17 12 -17
-26 3 -56 28 -65 44 -66 113 -2 81 123 206 256 257 62 24 87 26 111 8z m-16
-286 c45 -87 82 -162 82 -167 0 -5 -20 -20 -45 -33 -25 -13 -66 -42 -91 -64
-25 -22 -46 -38 -48 -36 -20 23 -156 298 -156 315 0 12 12 37 26 54 26 30 118
90 139 90 6 0 47 -71 93 -159z m2072 -215 c-6 -22 -16 -48 -21 -56 -30 -50
-32 -60 -17 -77 15 -16 15 -21 0 -52 -14 -28 -41 -46 -162 -111 -80 -42 -296
-157 -480 -254 -184 -98 -453 -241 -598 -318 -145 -77 -266 -138 -268 -135 -3
3 5 50 17 104 l22 98 111 64 c100 58 337 193 1146 654 140 80 257 141 259 135
2 -6 -2 -29 -9 -52z m-1835 44 c16 0 26 -25 19 -44 -3 -8 -36 -25 -72 -37
-102 -33 -174 -73 -215 -118 -32 -35 -37 -48 -37 -90 0 -34 6 -56 22 -76 l21
-27 -24 7 c-13 3 -36 20 -51 36 -58 62 -23 165 85 251 78 61 192 113 225 102
8 -2 20 -4 27 -4z m3 -286 c46 -86 82 -157 80 -158 -2 -1 -25 -15 -52 -30 -27
-16 -66 -44 -88 -64 -23 -21 -42 -31 -48 -26 -14 14 -160 297 -160 310 0 28
134 123 175 124 6 0 48 -70 93 -156z m1802 -8 c0 -3 -87 -51 -192 -107 -106
-56 -213 -113 -237 -126 -24 -13 -46 -22 -48 -19 -2 2 88 52 199 111 112 59
217 116 233 126 30 18 45 22 45 15z m-1559 -146 c26 -14 24 -48 -3 -59 -13 -5
-63 -24 -112 -43 -87 -33 -155 -79 -178 -121 -13 -24 -28 -108 -19 -103 3 2
13 -12 22 -30 21 -43 6 -45 -41 -5 -31 26 -34 33 -34 82 0 45 5 62 32 102 47
68 142 136 241 172 45 17 67 18 92 5z m-50 -212 c23 -46 53 -103 66 -127 13
-24 23 -60 23 -80 0 -43 -32 -181 -56 -240 -21 -53 -23 -51 -100 94 -31 61
-79 150 -106 199 -26 49 -48 97 -48 107 0 33 120 127 166 129 7 0 31 -37 55
-82z"/>
<path d="M2885 4835 c-126 -63 -338 -167 -470 -232 -132 -65 -243 -122 -247
-128 -4 -5 6 -32 21 -60 16 -27 46 -83 67 -122 21 -40 44 -73 51 -73 7 0 91
40 186 89 94 48 303 154 462 234 160 81 296 150 304 155 11 8 5 24 -29 83 -64
111 -101 169 -109 168 -3 0 -109 -52 -236 -114z m288 -20 c39 -67 52 -97 44
-103 -7 -5 -160 -84 -342 -175 -181 -91 -381 -191 -443 -224 l-114 -58 -16 24
c-10 14 -36 60 -59 104 l-43 79 453 223 c248 123 455 224 458 224 4 1 32 -42
62 -94z"/>
<path d="M3685 3919 c-22 -12 -58 -31 -80 -44 -22 -12 -158 -86 -302 -164
-145 -79 -265 -147 -269 -152 -3 -5 -2 -14 1 -19 7 -11 51 12 455 233 149 81
246 140 248 150 4 22 -5 21 -53 -4z"/>
<path d="M3685 3697 c-82 -46 -175 -96 -205 -113 -30 -17 -164 -91 -297 -164
-134 -73 -243 -139 -243 -147 0 -7 4 -13 10 -13 9 0 284 144 305 160 6 4 39
23 75 42 354 191 530 292 530 304 0 8 -6 14 -12 13 -7 0 -80 -37 -163 -82z"/>
<path d="M3760 3477 c-581 -328 -727 -411 -740 -423 -9 -9 -11 -17 -4 -24 6
-6 39 7 94 39 47 26 191 108 320 181 129 73 276 156 325 185 50 29 110 63 135
75 25 13 48 27 52 33 7 12 1 27 -10 27 -4 0 -81 -42 -172 -93z"/>
<path d="M804 5394 c4 -10 2 -13 -6 -8 -7 5 -9 -1 -4 -20 3 -14 9 -36 12 -49
5 -20 0 -25 -35 -35 -46 -14 -62 -45 -37 -70 13 -13 21 -14 56 -3 48 14 56 11
63 -28 7 -36 42 -50 65 -27 13 13 14 21 4 53 -6 21 -8 39 -4 41 48 16 77 40
77 62 0 22 -4 25 -35 24 -19 -1 -44 -5 -56 -9 -18 -6 -22 -2 -28 26 -8 43 -23
59 -53 59 -19 0 -24 -4 -19 -16z"/>
<path d="M1576 5179 c-14 -24 -23 -29 -40 -24 -43 14 -61 11 -64 -11 -2 -13 6
-25 23 -34 21 -11 25 -19 20 -40 -11 -49 -10 -55 12 -58 17 -2 26 4 35 23 11
25 19 27 58 11 8 -3 21 -2 29 3 18 12 5 48 -20 56 -15 5 -19 12 -15 26 3 10 9
28 12 38 4 13 0 23 -13 30 -16 8 -22 5 -37 -20z"/>
<path d="M842 4698 c-7 -7 -12 -25 -12 -40 0 -40 39 -58 75 -34 29 19 35 70 9
80 -25 10 -59 7 -72 -6z"/>
<path d="M4440 4403 c0 -4 -10 -21 -23 -36 l-22 -28 -38 20 c-43 22 -63 19
-73 -12 -5 -15 0 -27 19 -43 14 -12 31 -24 39 -26 10 -4 8 -14 -7 -47 -14 -32
-16 -47 -8 -59 16 -27 46 -20 68 16 16 26 24 31 45 26 89 -21 119 8 59 58
l-32 27 17 34 c24 44 18 71 -17 75 -15 2 -27 0 -27 -5z"/>
<path d="M4788 3503 c-11 -21 -20 -27 -38 -24 -53 8 -64 6 -68 -12 -2 -11 7
-23 27 -35 21 -11 29 -22 25 -32 -4 -8 -9 -27 -12 -42 -7 -41 32 -39 53 3 12
23 21 29 33 23 34 -14 57 -10 60 12 2 14 -5 24 -24 32 -19 9 -24 17 -18 30 24
57 -11 100 -38 45z"/>
<path d="M4430 3033 c-23 -8 -50 -45 -50 -69 0 -26 38 -67 57 -60 8 3 11 1 8
-4 -10 -16 18 -12 43 6 49 34 47 100 -5 123 -26 12 -30 12 -53 4z"/>
</g>
</svg>
