<?xml version="1.0" standalone="no"?>
<!DOCTYPE svg PUBLIC "-//W3C//DTD SVG 20010904//EN"
 "http://www.w3.org/TR/2001/REC-SVG-20010904/DTD/svg10.dtd">
<svg version="1.0" xmlns="http://www.w3.org/2000/svg"
 width="236.000000pt" height="157.000000pt" viewBox="0 0 236.000000 157.000000"
 preserveAspectRatio="xMidYMid meet">

<g transform="translate(0.000000,157.000000) scale(0.100000,-0.100000)"
fill="#000000" stroke="none">
<path d="M983 1255 c0 -38 2 -53 4 -32 2 20 2 52 0 70 -2 17 -4 1 -4 -38z"/>
<path d="M1363 1255 c0 -38 2 -53 4 -32 2 20 2 52 0 70 -2 17 -4 1 -4 -38z"/>
<path d="M850 1264 c0 -5 20 -30 45 -54 25 -24 45 -40 45 -34 0 5 -20 30 -45
54 -25 24 -45 40 -45 34z"/>
<path d="M1060 1225 c-24 -25 -42 -47 -39 -50 3 -2 25 15 49 40 24 25 42 47
39 50 -3 2 -25 -15 -49 -40z"/>
<path d="M1240 1264 c0 -5 20 -30 45 -54 25 -24 45 -40 45 -34 0 5 -20 30 -45
54 -25 24 -45 40 -45 34z"/>
<path d="M1440 1225 c-24 -25 -41 -48 -37 -52 4 -4 28 14 53 39 26 25 42 48
37 51 -5 4 -29 -14 -53 -38z"/>
<path d="M926 1115 c-93 -33 -141 -103 -140 -203 0 -35 6 -68 13 -75 9 -9 10
0 5 44 -27 229 263 319 368 115 l20 -39 18 39 c54 119 211 153 303 66 82 -78
88 -174 16 -295 -51 -86 -177 -214 -272 -276 l-68 -44 -72 48 c-40 27 -109 86
-154 132 -46 46 -83 78 -83 70 0 -22 158 -169 238 -222 l73 -48 82 56 c91 62
209 174 247 236 22 36 29 40 65 41 37 0 41 3 56 38 l16 37 8 -37 c7 -35 10
-38 42 -38 21 0 32 4 28 10 -4 6 -16 10 -27 8 -17 -2 -23 6 -35 46 -16 54 -21
53 -44 -7 -13 -33 -21 -41 -43 -43 -21 -1 -25 2 -20 15 4 9 14 42 23 73 13 48
13 64 3 105 -45 166 -248 215 -360 87 l-41 -45 -42 45 c-30 33 -56 50 -92 61
-61 18 -80 18 -131 0z"/>
<path d="M1324 1074 c-18 -15 -18 -15 6 -10 14 3 37 6 53 6 15 0 27 5 27 10 0
16 -64 12 -86 -6z"/>
<path d="M1450 1072 c0 -5 11 -17 25 -26 39 -26 65 -75 65 -123 0 -24 5 -43
10 -43 19 0 10 84 -13 124 -21 38 -87 89 -87 68z"/>
<path d="M1139 893 c-41 -111 -42 -113 -64 -113 -17 0 -26 -9 -34 -32 -12 -33
-17 -32 -35 4 -7 14 -22 24 -39 26 -21 3 -29 11 -38 43 -7 21 -15 39 -19 39
-4 0 -15 -18 -25 -40 -10 -22 -23 -40 -29 -41 -75 -7 -77 -6 -101 41 l-23 45
-22 -49 c-20 -45 -24 -48 -51 -42 -16 3 -29 1 -29 -4 0 -6 16 -10 35 -10 29 0
37 5 51 32 l17 33 15 -33 c15 -31 18 -32 74 -32 56 0 58 1 71 32 l13 33 12
-33 c9 -26 16 -32 40 -32 26 0 32 -6 47 -46 19 -50 26 -48 44 8 9 28 18 37 38
40 22 2 29 12 45 57 10 30 20 56 23 59 2 2 12 -23 21 -56 15 -53 20 -61 43
-64 20 -2 28 -11 36 -42 16 -55 30 -55 44 -2 13 54 13 56 2 56 -5 0 -12 -15
-15 -32 l-7 -33 -12 35 c-8 23 -20 36 -37 40 -21 5 -28 17 -44 73 -11 37 -23
67 -28 67 -5 0 -13 -12 -19 -27z"/>
<path d="M1101 356 c-25 -25 -41 -49 -37 -53 9 -9 88 75 84 88 -2 5 -23 -11
-47 -35z"/>
<path d="M1230 394 c0 -5 20 -30 45 -54 25 -24 45 -40 45 -34 0 5 -20 30 -45
54 -25 24 -45 40 -45 34z"/>
<path d="M1193 315 c0 -38 2 -53 4 -32 2 20 2 52 0 70 -2 17 -4 1 -4 -38z"/>
</g>
</svg>
