<?xml version="1.0" standalone="yes"?>
<svg xmlns="http://www.w3.org/2000/svg" width="236" height="236">
<path style="fill:#939393; stroke:none;" d="M166.667 23.3333C166.222 23.7778 167.278 23.7222 167.333 23.6667C167.778 23.2222 166.722 23.2777 166.667 23.3333z"/>
<path style="fill:#535353; stroke:none;" d="M168.667 23.3333C168.222 23.7778 169.278 23.7222 169.333 23.6667C169.778 23.2222 168.722 23.2777 168.667 23.3333z"/>
<path style="fill:#303030; stroke:none;" d="M170 23C172.052 23.8743 173.747 23.9528 176 24C173.948 23.1257 172.253 23.0472 170 23z"/>
<path style="fill:#7d7d7d; stroke:none;" d="M176 23C177.248 23.6848 177.549 23.7488 179 24C177.752 23.3152 177.452 23.2512 176 23z"/>
<path style="fill:#c0c0c0; stroke:none;" d="M161 24L162 25L161 24z"/>
<path style="fill:#6f6f6f; stroke:none;" d="M162 24L163 25L162 24z"/>
<path style="fill:#000000; stroke:none;" d="M107 83C102.302 73.0854 97.9655 62.697 88 56.9552C68.3688 45.6445 47.966 63.5795 44.4645 83C40.448 105.277 53.5697 126.782 71 139.511C79.6337 145.816 90.3085 151.553 101 153C95.009 149.211 88.0372 147.057 82 143.135C66.8356 133.285 55.6128 118.812 52.0039 101C49.4939 88.6119 53.8246 75.7561 63.0147 67.0934C66.7487 63.5736 71.6245 59.9348 77 59.9352C92.1342 59.9362 99.0676 82.2892 101.87 94C102.372 96.0985 102.866 109.595 107.441 106.824C109.445 105.61 108.986 101.945 108.999 100C109.045 93.354 109.464 88.165 112.154 82C119.972 64.0762 133.636 47.9941 150 37.3449C158.346 31.9137 169.033 27.4611 179 30.4398C209.588 39.5815 199.631 77.2317 189.247 98C174.238 128.019 150.606 153.707 125 175.08C114.29 184.02 103.154 193.194 91 200.127C83.0395 204.669 74.0592 206.054 66 210L66 212C73.1341 213.679 80.2235 211.719 87 209.308C99.7207 204.781 111.787 198.128 123 190.667C155.624 168.957 187.295 138.98 202.397 102C208.984 85.8681 213.435 67.1912 207.971 50C200.351 26.024 173.797 17.6363 152 28.3735C131.089 38.6743 114.429 61.1836 107 83z"/>
<path style="fill:#2b2b2b; stroke:none;" d="M181 24L182 25L181 24z"/>
<path style="fill:#808080; stroke:none;" d="M182 24L183 25L182 24z"/>
<path style="fill:#c5c5c5; stroke:none;" d="M183 24L184 25L183 24z"/>
<path style="fill:#a0a0a0; stroke:none;" d="M158 25L159 26L158 25z"/>
<path style="fill:#464646; stroke:none;" d="M159 25L160 26L159 25z"/>
<path style="fill:#636363; stroke:none;" d="M185 25L186 26L185 25z"/>
<path style="fill:#c0c0c0; stroke:none;" d="M155 26L156 27L155 26z"/>
<path style="fill:#565656; stroke:none;" d="M156 26L157 27L156 26z"/>
<path style="fill:#3b3b3b; stroke:none;" d="M187 26L188 27L187 26z"/>
<path style="fill:#ababab; stroke:none;" d="M188 26L189 27L188 26z"/>
<path style="fill:#999999; stroke:none;" d="M153 27L154 28L153 27z"/>
<path style="fill:#303030; stroke:none;" d="M189 27L190 28L189 27z"/>
<path style="fill:#aaaaaa; stroke:none;" d="M190 27L191 28L190 27z"/>
<path style="fill:#717171; stroke:none;" d="M151 28L152 29L151 28z"/>
<path style="fill:#3d3d3d; stroke:none;" d="M191 28L192 29L191 28z"/>
<path style="fill:#969696; stroke:none;" d="M149 29L150 30L149 29z"/>
<path style="fill:#414141; stroke:none;" d="M169 29C170.769 29.7789 172.036 29.9124 174 30C172.231 29.2211 170.964 29.0876 169 29z"/>
<path style="fill:#1e1e1e; stroke:none;" d="M174.667 29.3333C174.222 29.7778 175.278 29.7222 175.333 29.6667C175.778 29.2222 174.722 29.2778 174.667 29.3333z"/>
<path style="fill:#a2a2a2; stroke:none;" d="M193 29L194 30L193 29z"/>
<path style="fill:#c6c6c6; stroke:none;" d="M147 30L148 31L147 30z"/>
<path style="fill:#313131; stroke:none;" d="M148 30L149 31L148 30z"/>
<path style="fill:#6b6b6b; stroke:none;" d="M165 30L166 31L165 30z"/>
<path style="fill:#d7d7d7; stroke:none;" d="M166.667 30.3333C166.222 30.7778 167.278 30.7222 167.333 30.6667C167.778 30.2222 166.722 30.2778 166.667 30.3333z"/>
<path style="fill:#979797; stroke:none;" d="M178 30L179 31L178 30z"/>
<path style="fill:#494949; stroke:none;" d="M179 30L180 31L179 30z"/>
<path style="fill:#515151; stroke:none;" d="M194 30L195 31L194 30z"/>
<path style="fill:#6b6b6b; stroke:none;" d="M146 31L147 32L146 31z"/>
<path style="fill:#474747; stroke:none;" d="M161 31L162 32L161 31z"/>
<path style="fill:#a5a5a5; stroke:none;" d="M162 31L163 32L162 31z"/>
<path style="fill:#b7b7b7; stroke:none;" d="M181 31L182 32L181 31z"/>
<path style="fill:#4e4e4e; stroke:none;" d="M182 31L183 32L182 31z"/>
<path style="fill:#a3a3a3; stroke:none;" d="M144 32L145 33L144 32z"/>
<path style="fill:#363636; stroke:none;" d="M158 32L159 33L158 32z"/>
<path style="fill:#8a8a8a; stroke:none;" d="M159 32L160 33L159 32z"/>
<path style="fill:#7f7f7f; stroke:none;" d="M184 32L185 33L184 32z"/>
<path style="fill:#c6c6c6; stroke:none;" d="M197 32L198 33L197 32z"/>
<path style="fill:#494949; stroke:none;" d="M143 33L144 34L143 33z"/>
<path style="fill:#3a3a3a; stroke:none;" d="M156 33L157 34L156 33z"/>
<path style="fill:#b2b2b2; stroke:none;" d="M157 33L158 34L157 33z"/>
<path style="fill:#656565; stroke:none;" d="M186 33L187 34L186 33z"/>
<path style="fill:#bdbdbd; stroke:none;" d="M198 33L199 34L198 33z"/>
<path style="fill:#b5b5b5; stroke:none;" d="M141 34L142 35L141 34z"/>
<path style="fill:#3f3f3f; stroke:none;" d="M154 34L155 35L154 34z"/>
<path style="fill:#c5c5c5; stroke:none;" d="M155 34L156 35L155 34z"/>
<path style="fill:#bdbdbd; stroke:none;" d="M187 34L188 35L187 34z"/>
<path style="fill:#c1c1c1; stroke:none;" d="M199 34L200 35L199 34z"/>
<path style="fill:#969696; stroke:none;" d="M140 35L141 36L140 35z"/>
<path style="fill:#2e2e2e; stroke:none;" d="M152 35L153 36L152 35z"/>
<path style="fill:#aeaeae; stroke:none;" d="M153 35L154 36L153 35z"/>
<path style="fill:#5b5b5b; stroke:none;" d="M189 35L190 36L189 35z"/>
<path style="fill:#c7c7c7; stroke:none;" d="M200 35L201 36L200 35z"/>
<path style="fill:#5b5b5b; stroke:none;" d="M139 36L140 37L139 36z"/>
<path style="fill:#afafaf; stroke:none;" d="M151 36L152 37L151 36z"/>
<path style="fill:#8b8b8b; stroke:none;" d="M190 36L191 37L190 36z"/>
<path style="fill:#4a4a4a; stroke:none;" d="M138 37L139 38L138 37z"/>
<path style="fill:#6c6c6c; stroke:none;" d="M149 37L150 38L149 37z"/>
<path style="fill:#8a8a8a; stroke:none;" d="M191 37L192 38L191 37z"/>
<path style="fill:#404040; stroke:none;" d="M201 37L202 38L201 37z"/>
<path style="fill:#bdbdbd; stroke:none;" d="M148 38L149 39L148 38z"/>
<path style="fill:#787878; stroke:none;" d="M192 38L193 39L192 38z"/>
<path style="fill:#838383; stroke:none;" d="M202 38L203 39L202 38z"/>
<path style="fill:#6c6c6c; stroke:none;" d="M146 39L147 40L146 39z"/>
<path style="fill:#5d5d5d; stroke:none;" d="M193 39L194 40L193 39z"/>
<path style="fill:#c5c5c5; stroke:none;" d="M203 39L204 40L203 39z"/>
<path style="fill:#bababa; stroke:none;" d="M134 40L135 41L134 40z"/>
<path style="fill:#b1b1b1; stroke:none;" d="M145 40L146 41L145 40z"/>
<path style="fill:#b6b6b6; stroke:none;" d="M133 41L134 42L133 41z"/>
<path style="fill:#3d3d3d; stroke:none;" d="M143 41L144 42L143 41z"/>
<path style="fill:#989898; stroke:none;" d="M194 41L195 42L194 41z"/>
<path style="fill:#7c7c7c; stroke:none;" d="M204 41L205 42L204 41z"/>
<path style="fill:#b5b5b5; stroke:none;" d="M132 42L133 43L132 42z"/>
<path style="fill:#747474; stroke:none;" d="M142 42L143 43L142 42z"/>
<path style="fill:#494949; stroke:none;" d="M195 42L196 43L195 42z"/>
<path style="fill:#bebebe; stroke:none;" d="M131 43L132 44L131 43z"/>
<path style="fill:#999999; stroke:none;" d="M141 43L142 44L141 43z"/>
<path style="fill:#cbcbcb; stroke:none;" d="M195 43L196 44L195 43z"/>
<path style="fill:#707070; stroke:none;" d="M205 43L206 44L205 43z"/>
<path style="fill:#c6c6c6; stroke:none;" d="M130 44L131 45L130 44z"/>
<path style="fill:#bfbfbf; stroke:none;" d="M140 44L141 45L140 44z"/>
<path style="fill:#3c3c3c; stroke:none;" d="M196 44L197 45L196 44z"/>
<path style="fill:#c6c6c6; stroke:none;" d="M196 45L197 46L196 45z"/>
<path style="fill:#717171; stroke:none;" d="M206 45L207 46L206 45z"/>
<path style="fill:#353535; stroke:none;" d="M136 47L137 48L136 47z"/>
<path style="fill:#848484; stroke:none;" d="M197 47L198 48L197 47z"/>
<path style="fill:#b1b1b1; stroke:none;" d="M207 47L208 48L207 47z"/>
<path style="fill:#3f3f3f; stroke:none;" d="M127 48L128 49L127 48z"/>
<path style="fill:#3d3d3d; stroke:none;" d="M135 48L136 49L135 48z"/>
<path style="fill:#353535; stroke:none;" d="M207 48L208 49L207 48z"/>
<path style="fill:#696969; stroke:none;" d="M126 49L127 50L126 49z"/>
<path style="fill:#484848; stroke:none;" d="M134 49L135 50L134 49z"/>
<path style="fill:#949494; stroke:none;" d="M125 50L126 51L125 50z"/>
<path style="fill:#383838; stroke:none;" d="M133 50L134 51L133 50z"/>
<path style="fill:#575757; stroke:none;" d="M198 50L199 51L198 50z"/>
<path style="fill:#929292; stroke:none;" d="M208 50L209 51L208 50z"/>
<path style="fill:#c5c5c5; stroke:none;" d="M124 51L125 52L124 51z"/>
<path style="fill:#303030; stroke:none;" d="M132 51L133 52L132 51z"/>
<path style="fill:#919191; stroke:none;" d="M198 51L199 52L198 51z"/>
<path style="fill:#3c3c3c; stroke:none;" d="M208 51L209 52L208 51z"/>
<path style="fill:#373737; stroke:none;" d="M131 52L132 53L131 52z"/>
<path style="fill:#959595; stroke:none;" d="M70 53L71 54L70 53z"/>
<path style="fill:#3b3b3b; stroke:none;" d="M71 53C72.2484 53.6848 72.5484 53.7488 74 54C72.7517 53.3152 72.4515 53.2512 71 53z"/>
<path style="fill:#686868; stroke:none;" d="M77 53C78.2484 53.6848 78.5484 53.7488 80 54C78.7517 53.3152 78.4515 53.2512 77 53z"/>
<path style="fill:#b4b4b4; stroke:none;" d="M80 53L81 54L80 53z"/>
<path style="fill:#646464; stroke:none;" d="M123 53L124 54L123 53z"/>
<path style="fill:#bbbbbb; stroke:none;" d="M209 53L210 54L209 53z"/>
<path style="fill:#b8b8b8; stroke:none;" d="M66 54L67 55L66 54z"/>
<path style="fill:#5f5f5f; stroke:none;" d="M67 54L68 55L67 54z"/>
<path style="fill:#414141; stroke:none;" d="M82 54L83 55L82 54z"/>
<path style="fill:#949494; stroke:none;" d="M83 54L84 55L83 54z"/>
<path style="fill:#8f8f8f; stroke:none;" d="M122 54L123 55L122 54z"/>
<path style="fill:#282828; stroke:none;" d="M199.333 54.6667C199.278 54.7222 199.222 55.7778 199.667 55.3333C199.722 55.2777 199.778 54.2223 199.333 54.6667z"/>
<path style="fill:#777777; stroke:none;" d="M209 54L210 55L209 54z"/>
<path style="fill:#818181; stroke:none;" d="M64 55L65 56L64 55z"/>
<path style="fill:#666666; stroke:none;" d="M85 55L86 56L85 55z"/>
<path style="fill:#bebebe; stroke:none;" d="M121 55L122 56L121 55z"/>
<path style="fill:#4c4c4c; stroke:none;" d="M209 55L210 56L209 55z"/>
<path style="fill:#7c7c7c; stroke:none;" d="M62 56L63 57L62 56z"/>
<path style="fill:#686868; stroke:none;" d="M87 56L88 57L87 56z"/>
<path style="fill:#bababa; stroke:none;" d="M128 56L129 57L128 56z"/>
<path style="fill:#505050; stroke:none;" d="M199.333 56.6667C199.278 56.7222 199.222 57.7778 199.667 57.3333C199.722 57.2777 199.778 56.2223 199.333 56.6667z"/>
<path style="fill:#adadad; stroke:none;" d="M60 57L61 58L60 57z"/>
<path style="fill:#a0a0a0; stroke:none;" d="M89 57L90 58L89 57z"/>
<path style="fill:#727272; stroke:none;" d="M120 57L121 58L120 57z"/>
<path style="fill:#8a8a8a; stroke:none;" d="M127 57L128 58L127 57z"/>
<path style="fill:#787878; stroke:none;" d="M59 58L60 59L59 58z"/>
<path style="fill:#585858; stroke:none;" d="M90 58L91 59L90 58z"/>
<path style="fill:#b4b4b4; stroke:none;" d="M119 58L120 59L119 58z"/>
<path style="fill:#515151; stroke:none;" d="M126 58L127 59L126 58z"/>
<path style="fill:#6b6b6b; stroke:none;" d="M199 58L199 65C200.059 62.4657 200.059 60.5343 199 58z"/>
<path style="fill:#9e9e9e; stroke:none;" d="M210.333 58.6667C210.278 58.7222 210.222 59.7778 210.667 59.3333C210.722 59.2777 210.778 58.2222 210.333 58.6667z"/>
<path style="fill:#333333; stroke:none;" d="M58 59L59 60L58 59z"/>
<path style="fill:#272727; stroke:none;" d="M76.6667 59.3333C76.2222 59.7778 77.2778 59.7222 77.3333 59.6667C77.7778 59.2222 76.7222 59.2778 76.6667 59.3333z"/>
<path style="fill:#2b2b2b; stroke:none;" d="M91 59L92 60L91 59z"/>
<path style="fill:#c3c3c3; stroke:none;" d="M56 60L57 61L56 60z"/>
<path style="fill:#4d4d4d; stroke:none;" d="M72 60L73 61L72 60z"/>
<path style="fill:#949494; stroke:none;" d="M73 60L74 61L73 60z"/>
<path style="fill:#c6c6c6; stroke:none;" d="M80 60L81 61L80 60z"/>
<path style="fill:#585858; stroke:none;" d="M81 60L82 61L81 60z"/>
<path style="fill:#5e5e5e; stroke:none;" d="M118 60L119 61L118 60z"/>
<path style="fill:#c9c9c9; stroke:none;" d="M125 60L126 61L125 60z"/>
<path style="fill:#585858; stroke:none;" d="M210.333 60.6667C210.278 60.7222 210.222 61.7778 210.667 61.3333C210.722 61.2778 210.778 60.2222 210.333 60.6667z"/>
<path style="fill:#a4a4a4; stroke:none;" d="M55 61L56 62L55 61z"/>
<path style="fill:#7a7a7a; stroke:none;" d="M70 61L71 62L70 61z"/>
<path style="fill:#6f6f6f; stroke:none;" d="M83 61L84 62L83 61z"/>
<path style="fill:#c8c8c8; stroke:none;" d="M94 61L95 62L94 61M117 61L118 62L117 61z"/>
<path style="fill:#a3a3a3; stroke:none;" d="M124 61L125 62L124 61z"/>
<path style="fill:#bfbfbf; stroke:none;" d="M54 62L55 63L54 62z"/>
<path style="fill:#646464; stroke:none;" d="M68 62L69 63L68 62z"/>
<path style="fill:#525252; stroke:none;" d="M85 62L86 63L85 62z"/>
<path style="fill:#2c2c2c; stroke:none;" d="M117 62L118 63L117 62z"/>
<path style="fill:#626262; stroke:none;" d="M123 62L124 63L123 62z"/>
<path style="fill:#2b2b2b; stroke:none;" d="M210 62L210 72C211.346 68.7929 211.346 65.207 210 62z"/>
<path style="fill:#cccccc; stroke:none;" d="M53 63L54 64L53 63z"/>
<path style="fill:#c0c0c0; stroke:none;" d="M67 63L68 64L67 63z"/>
<path style="fill:#777777; stroke:none;" d="M86 63L87 64L86 63z"/>
<path style="fill:#8c8c8c; stroke:none;" d="M116 63L117 64L116 63z"/>
<path style="fill:#707070; stroke:none;" d="M65 64L66 65L65 64z"/>
<path style="fill:#9c9c9c; stroke:none;" d="M87 64L88 65L87 64z"/>
<path style="fill:#cecece; stroke:none;" d="M122 64L123 65L122 64z"/>
<path style="fill:#323232; stroke:none;" d="M52 65L53 66L52 65z"/>
<path style="fill:#a6a6a6; stroke:none;" d="M64 65L65 66L64 65z"/>
<path style="fill:#9a9a9a; stroke:none;" d="M88 65L89 66L88 65z"/>
<path style="fill:#454545; stroke:none;" d="M97 65L98 66L97 65z"/>
<path style="fill:#515151; stroke:none;" d="M115 65L116 66L115 65z"/>
<path style="fill:#919191; stroke:none;" d="M121 65L122 66L121 65z"/>
<path style="fill:#757575; stroke:none;" d="M51 66L52 67L51 66z"/>
<path style="fill:#a4a4a4; stroke:none;" d="M63 66L64 67L63 66z"/>
<path style="fill:#838383; stroke:none;" d="M89 66L90 67L89 66z"/>
<path style="fill:#9b9b9b; stroke:none;" d="M98 66L99 67L98 66z"/>
<path style="fill:#bcbcbc; stroke:none;" d="M114 66L115 67L114 66z"/>
<path style="fill:#3c3c3c; stroke:none;" d="M120 66L121 67L120 66z"/>
<path style="fill:#a8a8a8; stroke:none;" d="M50 67L51 68L50 67z"/>
<path style="fill:#a3a3a3; stroke:none;" d="M62 67L63 68L62 67z"/>
<path style="fill:#5f5f5f; stroke:none;" d="M90 67L91 68L90 67z"/>
<path style="fill:#c6c6c6; stroke:none;" d="M99 67L100 68L99 67z"/>
<path style="fill:#2f2f2f; stroke:none;" d="M114 67L115 68L114 67z"/>
<path style="fill:#a9a9a9; stroke:none;" d="M61 68L62 69L61 68z"/>
<path style="fill:#3a3a3a; stroke:none;" d="M99 68L100 69L99 68z"/>
<path style="fill:#969696; stroke:none;" d="M113 68L114 69L113 68z"/>
<path style="fill:#7f7f7f; stroke:none;" d="M119 68L120 69L119 68z"/>
<path style="fill:#545454; stroke:none;" d="M49 69L50 70L49 69z"/>
<path style="fill:#a5a5a5; stroke:none;" d="M60 69L61 70L60 69z"/>
<path style="fill:#c9c9c9; stroke:none;" d="M91 69L92 70L91 69z"/>
<path style="fill:#848484; stroke:none;" d="M100 69L101 70L100 69z"/>
<path style="fill:#363636; stroke:none;" d="M118 69L119 70L118 69z"/>
<path style="fill:#c2c2c2; stroke:none;" d="M198 69L199 70L198 69z"/>
<path style="fill:#d1d1d1; stroke:none;" d="M48 70L49 71L48 70z"/>
<path style="fill:#737373; stroke:none;" d="M59 70L60 71L59 70z"/>
<path style="fill:#6d6d6d; stroke:none;" d="M92 70L93 71L92 70z"/>
<path style="fill:#888888; stroke:none;" d="M112 70L113 71L112 70z"/>
<path style="fill:#c3c3c3; stroke:none;" d="M118 70L119 71L118 70z"/>
<path style="fill:#757575; stroke:none;" d="M198.333 70.6667C198.278 70.7222 198.222 71.7778 198.667 71.3333C198.722 71.2777 198.778 70.2223 198.333 70.6667z"/>
<path style="fill:#363636; stroke:none;" d="M48 71L49 72L48 71z"/>
<path style="fill:#393939; stroke:none;" d="M58 71L59 72L58 71z"/>
<path style="fill:#545454; stroke:none;" d="M101 71L102 72L101 71z"/>
<path style="fill:#525252; stroke:none;" d="M117 71L118 72L117 71z"/>
<path style="fill:#c4c4c4; stroke:none;" d="M47 72L48 73L47 72z"/>
<path style="fill:#c8c8c8; stroke:none;" d="M93 72L94 73L93 72z"/>
<path style="fill:#b4b4b4; stroke:none;" d="M102 72L103 73L102 72z"/>
<path style="fill:#6f6f6f; stroke:none;" d="M111 72L112 73L111 72z"/>
<path style="fill:#707070; stroke:none;" d="M210 72L210 75C210.696 73.4463 210.696 73.5537 210 72z"/>
<path style="fill:#565656; stroke:none;" d="M47 73L48 74L47 73z"/>
<path style="fill:#949494; stroke:none;" d="M57 73L58 74L57 73z"/>
<path style="fill:#525252; stroke:none;" d="M94 73L95 74L94 73z"/>
<path style="fill:#424242; stroke:none;" d="M102 73L103 74L102 73z"/>
<path style="fill:#7d7d7d; stroke:none;" d="M116 73L117 74L116 73z"/>
<path style="fill:#d1d1d1; stroke:none;" d="M46 74L47 75L46 74z"/>
<path style="fill:#3d3d3d; stroke:none;" d="M56 74L57 75L56 74z"/>
<path style="fill:#cfcfcf; stroke:none;" d="M94 74L95 75L94 74z"/>
<path style="fill:#c1c1c1; stroke:none;" d="M103 74L104 75L103 74z"/>
<path style="fill:#868686; stroke:none;" d="M110 74L111 75L110 74z"/>
<path style="fill:#777777; stroke:none;" d="M46 75L47 76L46 75z"/>
<path style="fill:#c0c0c0; stroke:none;" d="M56 75L57 76L56 75z"/>
<path style="fill:#494949; stroke:none;" d="M95 75L96 76L95 75z"/>
<path style="fill:#3c3c3c; stroke:none;" d="M103 75L104 76L103 75z"/>
<path style="fill:#939393; stroke:none;" d="M115 75L116 76L115 75z"/>
<path style="fill:#9d9d9d; stroke:none;" d="M197 75L198 76L197 75z"/>
<path style="fill:#dcdcdc; stroke:none;" d="M210.333 75.6667C210.278 75.7222 210.222 76.7778 210.667 76.3333C210.722 76.2777 210.778 75.2223 210.333 75.6667z"/>
<path style="fill:#474747; stroke:none;" d="M55 76L56 77L55 76z"/>
<path style="fill:#cacaca; stroke:none;" d="M95 76L96 77L95 76z"/>
<path style="fill:#c3c3c3; stroke:none;" d="M104 76L105 77L104 76z"/>
<path style="fill:#737373; stroke:none;" d="M109 76L110 77L109 76z"/>
<path style="fill:#2d2d2d; stroke:none;" d="M114 76L115 77L114 76z"/>
<path style="fill:#535353; stroke:none;" d="M197 76L198 77L197 76z"/>
<path style="fill:#cccccc; stroke:none;" d="M45 77L46 78L45 77z"/>
<path style="fill:#cacaca; stroke:none;" d="M55 77L56 78L55 77z"/>
<path style="fill:#474747; stroke:none;" d="M96 77L97 78L96 77z"/>
<path style="fill:#4e4e4e; stroke:none;" d="M104 77L105 78L104 77z"/>
<path style="fill:#a5a5a5; stroke:none;" d="M114 77L115 78L114 77z"/>
<path style="fill:#737373; stroke:none;" d="M45 78L46 79L45 78z"/>
<path style="fill:#444444; stroke:none;" d="M54 78L55 79L54 78z"/>
<path style="fill:#adadad; stroke:none;" d="M96 78L97 79L96 78z"/>
<path style="fill:#d0d0d0; stroke:none;" d="M105 78L106 79L105 78z"/>
<path style="fill:#7a7a7a; stroke:none;" d="M108 78L109 79L108 78z"/>
<path style="fill:#313131; stroke:none;" d="M113 78L114 79L113 78z"/>
<path style="fill:#d2d2d2; stroke:none;" d="M196 78L197 79L196 78z"/>
<path style="fill:#3e3e3e; stroke:none;" d="M209.333 78.6667C209.278 78.7222 209.222 79.7778 209.667 79.3333C209.722 79.2778 209.778 78.2222 209.333 78.6667z"/>
<path style="fill:#adadad; stroke:none;" d="M54 79L55 80L54 79z"/>
<path style="fill:#6e6e6e; stroke:none;" d="M105 79L106 80L105 79z"/>
<path style="fill:#a8a8a8; stroke:none;" d="M113 79L114 80L113 79z"/>
<path style="fill:#a0a0a0; stroke:none;" d="M196 79L197 80L196 79z"/>
<path style="fill:#919191; stroke:none;" d="M97 80L98 81L97 80z"/>
<path style="fill:#a1a1a1; stroke:none;" d="M107 80L108 81L107 80z"/>
<path style="fill:#b4b4b4; stroke:none;" d="M209.333 80.6667C209.278 80.7222 209.222 81.7778 209.667 81.3333C209.722 81.2778 209.778 80.2222 209.333 80.6667z"/>
<path style="fill:#b3b3b3; stroke:none;" d="M44 81L45 82L44 81z"/>
<path style="fill:#5e5e5e; stroke:none;" d="M53 81L54 82L53 81z"/>
<path style="fill:#b6b6b6; stroke:none;" d="M106 81L107 82L106 81z"/>
<path style="fill:#434343; stroke:none;" d="M107 81L108 82L107 81z"/>
<path style="fill:#888888; stroke:none;" d="M112 81L113 82L112 81z"/>
<path style="fill:#6c6c6c; stroke:none;" d="M44 82L45 83L44 82z"/>
<path style="fill:#bcbcbc; stroke:none;" d="M53 82L54 83L53 82z"/>
<path style="fill:#4a4a4a; stroke:none;" d="M98 82L99 83L98 82z"/>
<path style="fill:#2d2d2d; stroke:none;" d="M106 82L107 83L106 82z"/>
<path style="fill:#b0b0b0; stroke:none;" d="M195 82L196 83L195 82z"/>
<path style="fill:#aeaeae; stroke:none;" d="M98 83L99 84L98 83z"/>
<path style="fill:#767676; stroke:none;" d="M111 83L112 84L111 83z"/>
<path style="fill:#4c4c4c; stroke:none;" d="M195 83L196 84L195 83z"/>
<path style="fill:#373737; stroke:none;" d="M52 84L53 85L52 84z"/>
<path style="fill:#636363; stroke:none;" d="M208 84L209 85L208 84z"/>
<path style="fill:#7e7e7e; stroke:none;" d="M52 85L53 86L52 85z"/>
<path style="fill:#5e5e5e; stroke:none;" d="M99 85L100 86L99 85z"/>
<path style="fill:#494949; stroke:none;" d="M110 85L111 86L110 85z"/>
<path style="fill:#b3b3b3; stroke:none;" d="M194 85L195 86L194 85z"/>
<path style="fill:#aaaaaa; stroke:none;" d="M208 85L209 86L208 85z"/>
<path style="fill:#bababa; stroke:none;" d="M43.3333 86.6667C43.2777 86.7223 43.2222 87.7778 43.6667 87.3333C43.7222 87.2778 43.7778 86.2222 43.3333 86.6667z"/>
<path style="fill:#e5e5e5; stroke:none;" d="M52.3333 86.6667C52.2777 86.7223 52.2222 87.7778 52.6667 87.3333C52.7222 87.2778 52.7778 86.2222 52.3333 86.6667z"/>
<path style="fill:#bcbcbc; stroke:none;" d="M99 86L100 87L99 86z"/>
<path style="fill:#b1b1b1; stroke:none;" d="M110 86L111 87L110 86z"/>
<path style="fill:#474747; stroke:none;" d="M194 86L195 87L194 86z"/>
<path style="fill:#8b8b8b; stroke:none;" d="M43 88L43 94C43.9511 91.7147 43.9511 90.2853 43 88z"/>
<path style="fill:#515151; stroke:none;" d="M100 88L101 89L100 88z"/>
<path style="fill:#737373; stroke:none;" d="M109 88L110 89L109 88z"/>
<path style="fill:#797979; stroke:none;" d="M193 88L194 89L193 88z"/>
<path style="fill:#7f7f7f; stroke:none;" d="M207 88L208 89L207 88z"/>
<path style="fill:#343434; stroke:none;" d="M51.3333 89.6667C51.2777 89.7223 51.2223 90.7777 51.6667 90.3333C51.7222 90.2778 51.7778 89.2222 51.3333 89.6667z"/>
<path style="fill:#919191; stroke:none;" d="M100 89L101 90L100 89z"/>
<path style="fill:#b0b0b0; stroke:none;" d="M109 89L110 90L109 89z"/>
<path style="fill:#2f2f2f; stroke:none;" d="M193 89L194 90L193 89z"/>
<path style="fill:#cacaca; stroke:none;" d="M207 89L208 90L207 89z"/>
<path style="fill:#bcbcbc; stroke:none;" d="M192 90L193 91L192 90z"/>
<path style="fill:#626262; stroke:none;" d="M51 91L51 97C51.9511 94.7147 51.9511 93.2853 51 91z"/>
<path style="fill:#4d4d4d; stroke:none;" d="M192 91L193 92L192 91z"/>
<path style="fill:#727272; stroke:none;" d="M206 91L207 92L206 91z"/>
<path style="fill:#656565; stroke:none;" d="M101 92L102 93L101 92z"/>
<path style="fill:#cccccc; stroke:none;" d="M206 92L207 93L206 92z"/>
<path style="fill:#a9a9a9; stroke:none;" d="M101 93L102 94L101 93z"/>
<path style="fill:#6c6c6c; stroke:none;" d="M191 93L192 94L191 93z"/>
<path style="fill:#b5b5b5; stroke:none;" d="M43.3333 94.6667C43.2777 94.7223 43.2222 95.7778 43.6667 95.3333C43.7222 95.2778 43.7778 94.2222 43.3333 94.6667z"/>
<path style="fill:#848484; stroke:none;" d="M205 94L206 95L205 94z"/>
<path style="fill:#969696; stroke:none;" d="M190 95L191 96L190 95z"/>
<path style="fill:#d3d3d3; stroke:none;" d="M205 95L206 96L205 95z"/>
<path style="fill:#e6e6e6; stroke:none;" d="M43.3333 96.6667C43.2777 96.7223 43.2222 97.7778 43.6667 97.3333C43.7222 97.2778 43.7778 96.2222 43.3333 96.6667z"/>
<path style="fill:#555555; stroke:none;" d="M102.333 96.6667C102.278 96.7222 102.222 97.7778 102.667 97.3333C102.722 97.2777 102.778 96.2223 102.333 96.6667z"/>
<path style="fill:#a4a4a4; stroke:none;" d="M109 96L109 99C109.696 97.4463 109.696 97.5537 109 96z"/>
<path style="fill:#434343; stroke:none;" d="M204 96L205 97L204 96z"/>
<path style="fill:#232323; stroke:none;" d="M51.3333 97.6667C51.2777 97.7223 51.2222 98.7777 51.6667 98.3333C51.7222 98.2778 51.7778 97.2222 51.3333 97.6667z"/>
<path style="fill:#a2a2a2; stroke:none;" d="M189 97L190 98L189 97z"/>
<path style="fill:#a7a7a7; stroke:none;" d="M204 97L205 98L204 97z"/>
<path style="fill:#767676; stroke:none;" d="M102 98L102 104C102.951 101.715 102.951 100.285 102 98z"/>
<path style="fill:#353535; stroke:none;" d="M44 99L45 100L44 99z"/>
<path style="fill:#575757; stroke:none;" d="M109.333 99.6667C109.278 99.7222 109.222 100.778 109.667 100.333C109.722 100.278 109.778 99.2223 109.333 99.6667z"/>
<path style="fill:#a3a3a3; stroke:none;" d="M188 99L189 100L188 99z"/>
<path style="fill:#7e7e7e; stroke:none;" d="M203 99L204 100L203 99z"/>
<path style="fill:#626262; stroke:none;" d="M44 100L45 101L44 100z"/>
<path style="fill:#9c9c9c; stroke:none;" d="M44 101L45 102L44 101z"/>
<path style="fill:#cacaca; stroke:none;" d="M52 101L53 102L52 101z"/>
<path style="fill:#2a2a2a; stroke:none;" d="M109 101L109 105C109.71 103.24 109.71 102.759 109 101z"/>
<path style="fill:#898989; stroke:none;" d="M187 101L188 102L187 101z"/>
<path style="fill:#545454; stroke:none;" d="M202 101L203 102L202 101z"/>
<path style="fill:#767676; stroke:none;" d="M52.3333 102.667C52.2778 102.722 52.2222 103.778 52.6667 103.333C52.7222 103.278 52.7778 102.222 52.3333 102.667z"/>
<path style="fill:#c7c7c7; stroke:none;" d="M202 102L203 103L202 102z"/>
<path style="fill:#7f7f7f; stroke:none;" d="M186 103L187 104L186 103z"/>
<path style="fill:#636363; stroke:none;" d="M45 104L46 105L45 104z"/>
<path style="fill:#d3d3d3; stroke:none;" d="M185 104L186 105L185 104z"/>
<path style="fill:#b8b8b8; stroke:none;" d="M201 104L202 105L201 104z"/>
<path style="fill:#adadad; stroke:none;" d="M45 105L46 106L45 105z"/>
<path style="fill:#323232; stroke:none;" d="M103 105L104 106L103 105z"/>
<path style="fill:#696969; stroke:none;" d="M109 105L110 106L109 105z"/>
<path style="fill:#666666; stroke:none;" d="M185 105L186 106L185 105z"/>
<path style="fill:#c4c4c4; stroke:none;" d="M53 106L54 107L53 106z"/>
<path style="fill:#a6a6a6; stroke:none;" d="M103 106L104 107L103 106z"/>
<path style="fill:#9a9a9a; stroke:none;" d="M109 106L110 107L109 106z"/>
<path style="fill:#c9c9c9; stroke:none;" d="M184 106L185 107L184 106z"/>
<path style="fill:#9c9c9c; stroke:none;" d="M200 106L201 107L200 106z"/>
<path style="fill:#484848; stroke:none;" d="M46 107L47 108L46 107z"/>
<path style="fill:#747474; stroke:none;" d="M53 107L54 108L53 107z"/>
<path style="fill:#969696; stroke:none;" d="M104 107L105 108L104 107z"/>
<path style="fill:#3c3c3c; stroke:none;" d="M108 107L109 108L108 107M184 107L185 108L184 107z"/>
<path style="fill:#aeaeae; stroke:none;" d="M46 108L47 109L46 108z"/>
<path style="fill:#d9d9d9; stroke:none;" d="M106.667 108.333C106.222 108.778 107.278 108.722 107.333 108.667C107.778 108.222 106.722 108.278 106.667 108.333z"/>
<path style="fill:#9d9d9d; stroke:none;" d="M183 108L184 109L183 108z"/>
<path style="fill:#909090; stroke:none;" d="M199 108L200 109L199 108z"/>
<path style="fill:#d0d0d0; stroke:none;" d="M54 109L55 110L54 109z"/>
<path style="fill:#777777; stroke:none;" d="M47 110L48 111L47 110z"/>
<path style="fill:#707070; stroke:none;" d="M54 110L55 111L54 110z"/>
<path style="fill:#797979; stroke:none;" d="M182 110L183 111L182 110z"/>
<path style="fill:#8f8f8f; stroke:none;" d="M198 110L199 111L198 110z"/>
<path style="fill:#505050; stroke:none;" d="M48 112L49 113L48 112z"/>
<path style="fill:#b6b6b6; stroke:none;" d="M55 112L56 113L55 112z"/>
<path style="fill:#474747; stroke:none;" d="M181 112L182 113L181 112z"/>
<path style="fill:#adadad; stroke:none;" d="M197 112L198 113L197 112z"/>
<path style="fill:#c7c7c7; stroke:none;" d="M48 113L49 114L48 113z"/>
<path style="fill:#494949; stroke:none;" d="M55 113L56 114L55 113z"/>
<path style="fill:#949494; stroke:none;" d="M180 113L181 114L180 113z"/>
<path style="fill:#414141; stroke:none;" d="M49 114L50 115L49 114z"/>
<path style="fill:#aeaeae; stroke:none;" d="M196 114L197 115L196 114z"/>
<path style="fill:#c3c3c3; stroke:none;" d="M49 115L50 116L49 115z"/>
<path style="fill:#585858; stroke:none;" d="M56 115L57 116L56 115z"/>
<path style="fill:#444444; stroke:none;" d="M179 115L180 116L179 115z"/>
<path style="fill:#353535; stroke:none;" d="M195 115L196 116L195 115z"/>
<path style="fill:#626262; stroke:none;" d="M50 116L51 117L50 116z"/>
<path style="fill:#949494; stroke:none;" d="M178 116L179 117L178 116z"/>
<path style="fill:#c6c6c6; stroke:none;" d="M195 116L196 117L195 116z"/>
<path style="fill:#515151; stroke:none;" d="M57 117L58 118L57 117z"/>
<path style="fill:#696969; stroke:none;" d="M194 117L195 118L194 117z"/>
<path style="fill:#747474; stroke:none;" d="M51 118L52 119L51 118z"/>
<path style="fill:#c7c7c7; stroke:none;" d="M58 118L59 119L58 118z"/>
<path style="fill:#404040; stroke:none;" d="M177 118L178 119L177 118z"/>
<path style="fill:#525252; stroke:none;" d="M58 119L59 120L58 119z"/>
<path style="fill:#909090; stroke:none;" d="M176 119L177 120L176 119z"/>
<path style="fill:#8a8a8a; stroke:none;" d="M193 119L194 120L193 119z"/>
<path style="fill:#bdbdbd; stroke:none;" d="M52 120L53 121L52 120z"/>
<path style="fill:#959595; stroke:none;" d="M59 120L60 121L59 120z"/>
<path style="fill:#333333; stroke:none;" d="M192 120L193 121L192 120z"/>
<path style="fill:#767676; stroke:none;" d="M53 121L54 122L53 121z"/>
<path style="fill:#333333; stroke:none;" d="M175 121L176 122L175 121z"/>
<path style="fill:#c0c0c0; stroke:none;" d="M192 121L193 122L192 121z"/>
<path style="fill:#333333; stroke:none;" d="M54 122L55 123L54 122z"/>
<path style="fill:#676767; stroke:none;" d="M60 122L61 123L60 122z"/>
<path style="fill:#808080; stroke:none;" d="M174 122L175 123L174 122z"/>
<path style="fill:#5f5f5f; stroke:none;" d="M191 122L192 123L191 122z"/>
<path style="fill:#b9b9b9; stroke:none;" d="M54 123L55 124L54 123z"/>
<path style="fill:#b6b6b6; stroke:none;" d="M61 123L62 124L61 123z"/>
<path style="fill:#b3b3b3; stroke:none;" d="M173 123L174 124L173 123z"/>
<path style="fill:#969696; stroke:none;" d="M55 124L56 125L55 124z"/>
<path style="fill:#acacac; stroke:none;" d="M190 124L191 125L190 124z"/>
<path style="fill:#5c5c5c; stroke:none;" d="M56 125L57 126L56 125z"/>
<path style="fill:#434343; stroke:none;" d="M62 125L63 126L62 125z"/>
<path style="fill:#4a4a4a; stroke:none;" d="M172 125L173 126L172 125z"/>
<path style="fill:#5d5d5d; stroke:none;" d="M189 125L190 126L189 125z"/>
<path style="fill:#898989; stroke:none;" d="M63 126L64 127L63 126z"/>
<path style="fill:#959595; stroke:none;" d="M171 126L172 127L171 126z"/>
<path style="fill:#c2c2c2; stroke:none;" d="M64 127L65 128L64 127z"/>
<path style="fill:#c6c6c6; stroke:none;" d="M170 127L171 128L170 127z"/>
<path style="fill:#aaaaaa; stroke:none;" d="M188 127L189 128L188 127z"/>
<path style="fill:#c2c2c2; stroke:none;" d="M58 128L59 129L58 128z"/>
<path style="fill:#cbcbcb; stroke:none;" d="M65 128L66 129L65 128z"/>
<path style="fill:#575757; stroke:none;" d="M187 128L188 129L187 128z"/>
<path style="fill:#b2b2b2; stroke:none;" d="M59 129L60 130L59 129z"/>
<path style="fill:#3c3c3c; stroke:none;" d="M169 129L170 130L169 129z"/>
<path style="fill:#a7a7a7; stroke:none;" d="M60 130L61 131L60 130z"/>
<path style="fill:#7f7f7f; stroke:none;" d="M168 130L169 131L168 130z"/>
<path style="fill:#a9a9a9; stroke:none;" d="M186 130L187 131L186 130z"/>
<path style="fill:#afafaf; stroke:none;" d="M61 131L62 132L61 131z"/>
<path style="fill:#353535; stroke:none;" d="M67 131L68 132L67 131z"/>
<path style="fill:#a7a7a7; stroke:none;" d="M167 131L168 132L167 131z"/>
<path style="fill:#686868; stroke:none;" d="M185 131L186 132L185 131z"/>
<path style="fill:#838383; stroke:none;" d="M62 132L63 133L62 132z"/>
<path style="fill:#4a4a4a; stroke:none;" d="M68 132L69 133L68 132z"/>
<path style="fill:#d1d1d1; stroke:none;" d="M166 132L167 133L166 132z"/>
<path style="fill:#2f2f2f; stroke:none;" d="M184 132L185 133L184 132z"/>
<path style="fill:#9e9e9e; stroke:none;" d="M63 133L64 134L63 133z"/>
<path style="fill:#454545; stroke:none;" d="M69 133L70 134L69 133z"/>
<path style="fill:#c9c9c9; stroke:none;" d="M184 133L185 134L184 133z"/>
<path style="fill:#c2c2c2; stroke:none;" d="M64 134L65 135L64 134z"/>
<path style="fill:#5c5c5c; stroke:none;" d="M165 134L166 135L165 134z"/>
<path style="fill:#7d7d7d; stroke:none;" d="M183 134L184 135L183 134z"/>
<path style="fill:#737373; stroke:none;" d="M164 135L165 136L164 135z"/>
<path style="fill:#414141; stroke:none;" d="M182 135L183 136L182 135z"/>
<path style="fill:#3b3b3b; stroke:none;" d="M67 136L68 137L67 136z"/>
<path style="fill:#cbcbcb; stroke:none;" d="M73 136L74 137L73 136z"/>
<path style="fill:#a9a9a9; stroke:none;" d="M163 136L164 137L163 136z"/>
<path style="fill:#585858; stroke:none;" d="M68 137L69 138L68 137z"/>
<path style="fill:#b1b1b1; stroke:none;" d="M74 137L75 138L74 137z"/>
<path style="fill:#d3d3d3; stroke:none;" d="M181 137L182 138L181 137z"/>
<path style="fill:#8d8d8d; stroke:none;" d="M69 138L70 139L69 138z"/>
<path style="fill:#969696; stroke:none;" d="M75 138L76 139L75 138z"/>
<path style="fill:#a7a7a7; stroke:none;" d="M180 138L181 139L180 138z"/>
<path style="fill:#636363; stroke:none;" d="M76 139L77 140L76 139z"/>
<path style="fill:#2b2b2b; stroke:none;" d="M161 139L162 140L161 139z"/>
<path style="fill:#6e6e6e; stroke:none;" d="M179 139L180 140L179 139z"/>
<path style="fill:#565656; stroke:none;" d="M72 140L73 141L72 140z"/>
<path style="fill:#515151; stroke:none;" d="M160 140L161 141L160 140z"/>
<path style="fill:#444444; stroke:none;" d="M178 140L179 141L178 140z"/>
<path style="fill:#9c9c9c; stroke:none;" d="M73 141L74 142L73 141z"/>
<path style="fill:#7b7b7b; stroke:none;" d="M79 141L80 142L79 141z"/>
<path style="fill:#6b6b6b; stroke:none;" d="M159 141L160 142L159 141z"/>
<path style="fill:#666666; stroke:none;" d="M75 142L76 143L75 142z"/>
<path style="fill:#3e3e3e; stroke:none;" d="M80 142L81 143L80 142z"/>
<path style="fill:#cacaca; stroke:none;" d="M81 142L82 143L81 142z"/>
<path style="fill:#919191; stroke:none;" d="M158 142L159 143L158 142z"/>
<path style="fill:#c7c7c7; stroke:none;" d="M177 142L178 143L177 142z"/>
<path style="fill:#c8c8c8; stroke:none;" d="M76 143L77 144L76 143z"/>
<path style="fill:#313131; stroke:none;" d="M77 143L78 144L77 143z"/>
<path style="fill:#7f7f7f; stroke:none;" d="M82 143L83 144L82 143z"/>
<path style="fill:#a0a0a0; stroke:none;" d="M157 143L158 144L157 143z"/>
<path style="fill:#9f9f9f; stroke:none;" d="M176 143L177 144L176 143z"/>
<path style="fill:#868686; stroke:none;" d="M78 144L79 145L78 144z"/>
<path style="fill:#b6b6b6; stroke:none;" d="M84 144L85 145L84 144z"/>
<path style="fill:#aeaeae; stroke:none;" d="M156 144L157 145L156 144z"/>
<path style="fill:#838383; stroke:none;" d="M175 144L176 145L175 144z"/>
<path style="fill:#626262; stroke:none;" d="M80 145L81 146L80 145z"/>
<path style="fill:#464646; stroke:none;" d="M85 145L86 146L85 145z"/>
<path style="fill:#cbcbcb; stroke:none;" d="M155 145L156 146L155 145z"/>
<path style="fill:#5a5a5a; stroke:none;" d="M174 145L175 146L174 145z"/>
<path style="fill:#4f4f4f; stroke:none;" d="M82 146L83 147L82 146z"/>
<path style="fill:#6e6e6e; stroke:none;" d="M87 146L88 147L87 146z"/>
<path style="fill:#383838; stroke:none;" d="M173 146L174 147L173 146z"/>
<path style="fill:#c9c9c9; stroke:none;" d="M83 147L84 148L83 147z"/>
<path style="fill:#4f4f4f; stroke:none;" d="M84 147L85 148L84 147z"/>
<path style="fill:#767676; stroke:none;" d="M89 147L90 148L89 147z"/>
<path style="fill:#d3d3d3; stroke:none;" d="M85 148L86 149L85 148z"/>
<path style="fill:#606060; stroke:none;" d="M86 148L87 149L86 148z"/>
<path style="fill:#757575; stroke:none;" d="M91 148L92 149L91 148z"/>
<path style="fill:#797979; stroke:none;" d="M88 149L89 150L88 149z"/>
<path style="fill:#5e5e5e; stroke:none;" d="M93 149L94 150L93 149z"/>
<path style="fill:#3b3b3b; stroke:none;" d="M152 149L153 150L152 149z"/>
<path style="fill:#cccccc; stroke:none;" d="M171 149L172 150L171 149z"/>
<path style="fill:#b0b0b0; stroke:none;" d="M90 150L91 151L90 150z"/>
<path style="fill:#3e3e3e; stroke:none;" d="M91 150L92 151L91 150z"/>
<path style="fill:#383838; stroke:none;" d="M95 150L96 151L95 150z"/>
<path style="fill:#404040; stroke:none;" d="M151 150L152 151L151 150z"/>
<path style="fill:#b7b7b7; stroke:none;" d="M170 150L171 151L170 150z"/>
<path style="fill:#8b8b8b; stroke:none;" d="M93 151L94 152L93 151z"/>
<path style="fill:#737373; stroke:none;" d="M98 151L99 152L98 151z"/>
<path style="fill:#c4c4c4; stroke:none;" d="M99 151L100 152L99 151z"/>
<path style="fill:#464646; stroke:none;" d="M150 151L151 152L150 151z"/>
<path style="fill:#949494; stroke:none;" d="M169 151L170 152L169 151z"/>
<path style="fill:#a6a6a6; stroke:none;" d="M96 152L97 153L96 152z"/>
<path style="fill:#555555; stroke:none;" d="M97 152L98 153L97 152z"/>
<path style="fill:#434343; stroke:none;" d="M101 152L102 153L101 152z"/>
<path style="fill:#c9c9c9; stroke:none;" d="M102 152L103 153L102 152z"/>
<path style="fill:#4c4c4c; stroke:none;" d="M149 152L150 153L149 152z"/>
<path style="fill:#a5a5a5; stroke:none;" d="M168 152L169 153L168 152z"/>
<path style="fill:#c2c2c2; stroke:none;" d="M100.667 153.333C100.222 153.778 101.278 153.722 101.333 153.667C101.778 153.222 100.722 153.278 100.667 153.333z"/>
<path style="fill:#535353; stroke:none;" d="M148 153L149 154L148 153z"/>
<path style="fill:#858585; stroke:none;" d="M167 153L168 154L167 153z"/>
<path style="fill:#4c4c4c; stroke:none;" d="M147 154L148 155L147 154z"/>
<path style="fill:#717171; stroke:none;" d="M166 154L167 155L166 154z"/>
<path style="fill:#565656; stroke:none;" d="M146 155L147 156L146 155z"/>
<path style="fill:#5a5a5a; stroke:none;" d="M165 155L166 156L165 155z"/>
<path style="fill:#787878; stroke:none;" d="M145 156L146 157L145 156z"/>
<path style="fill:#565656; stroke:none;" d="M164 156L165 157L164 156z"/>
<path style="fill:#696969; stroke:none;" d="M144 157L145 158L144 157z"/>
<path style="fill:#464646; stroke:none;" d="M163 157L164 158L163 157z"/>
<path style="fill:#6d6d6d; stroke:none;" d="M143 158L144 159L143 158z"/>
<path style="fill:#474747; stroke:none;" d="M162 158L163 159L162 158z"/>
<path style="fill:#727272; stroke:none;" d="M142 159L143 160L142 159z"/>
<path style="fill:#515151; stroke:none;" d="M161 159L162 160L161 159z"/>
<path style="fill:#606060; stroke:none;" d="M141 160L142 161L141 160z"/>
<path style="fill:#656565; stroke:none;" d="M160 160L161 161L160 160z"/>
<path style="fill:#545454; stroke:none;" d="M140 161L141 162L140 161z"/>
<path style="fill:#646464; stroke:none;" d="M159 161L160 162L159 161z"/>
<path style="fill:#303030; stroke:none;" d="M139 162L140 163L139 162z"/>
<path style="fill:#696969; stroke:none;" d="M158 162L159 163L158 162z"/>
<path style="fill:#7e7e7e; stroke:none;" d="M157 163L156 165C157.263 164.029 157.392 164.306 157 163z"/>
<path style="fill:#414141; stroke:none;" d="M137 164L138 165L137 164z"/>
<path style="fill:#323232; stroke:none;" d="M136 165L137 166L136 165z"/>
<path style="fill:#979797; stroke:none;" d="M155 165L156 166L155 165z"/>
<path style="fill:#acacac; stroke:none;" d="M154 166L155 167L154 166z"/>
<path style="fill:#c0c0c0; stroke:none;" d="M133 167L134 168L133 167z"/>
<path style="fill:#c2c2c2; stroke:none;" d="M153 167L154 168L153 167z"/>
<path style="fill:#adadad; stroke:none;" d="M132 168L133 169L132 168z"/>
<path style="fill:#9d9d9d; stroke:none;" d="M131 169L132 170L131 169z"/>
<path style="fill:#7c7c7c; stroke:none;" d="M130 170L131 171L130 170z"/>
<path style="fill:#464646; stroke:none;" d="M149 170L150 171L149 170z"/>
<path style="fill:#757575; stroke:none;" d="M129 171L130 172L129 171z"/>
<path style="fill:#6d6d6d; stroke:none;" d="M148 171L149 172L148 171z"/>
<path style="fill:#565656; stroke:none;" d="M128 172L129 173L128 172z"/>
<path style="fill:#888888; stroke:none;" d="M147 172L148 173L147 172z"/>
<path style="fill:#a5a5a5; stroke:none;" d="M146 173L147 174L146 173z"/>
<path style="fill:#c9c9c9; stroke:none;" d="M145 174L146 175L145 174z"/>
<path style="fill:#a9a9a9; stroke:none;" d="M124 175L125 176L124 175z"/>
<path style="fill:#858585; stroke:none;" d="M123 176L124 177L123 176z"/>
<path style="fill:#585858; stroke:none;" d="M142 176L143 177L142 176z"/>
<path style="fill:#5e5e5e; stroke:none;" d="M122 177L123 178L122 177z"/>
<path style="fill:#8c8c8c; stroke:none;" d="M141 177L142 178L141 177z"/>
<path style="fill:#c4c4c4; stroke:none;" d="M140 178L141 179L140 178z"/>
<path style="fill:#cfcfcf; stroke:none;" d="M119 179L120 180L119 179z"/>
<path style="fill:#464646; stroke:none;" d="M138 179L139 180L138 179z"/>
<path style="fill:#b5b5b5; stroke:none;" d="M118 180L119 181L118 180z"/>
<path style="fill:#888888; stroke:none;" d="M137 180L138 181L137 180z"/>
<path style="fill:#6d6d6d; stroke:none;" d="M117 181L118 182L117 181z"/>
<path style="fill:#b5b5b5; stroke:none;" d="M136 181L137 182L136 181z"/>
<path style="fill:#363636; stroke:none;" d="M134 182L135 183L134 182z"/>
<path style="fill:#b1b1b1; stroke:none;" d="M114 183L115 184L114 183z"/>
<path style="fill:#757575; stroke:none;" d="M133 183L134 184L133 183z"/>
<path style="fill:#7e7e7e; stroke:none;" d="M113 184L114 185L113 184z"/>
<path style="fill:#b4b4b4; stroke:none;" d="M132 184L133 185L132 184z"/>
<path style="fill:#474747; stroke:none;" d="M112 185L113 186L112 185z"/>
<path style="fill:#404040; stroke:none;" d="M130 185L131 186L130 185z"/>
<path style="fill:#d2d2d2; stroke:none;" d="M110 186L111 187L110 186z"/>
<path style="fill:#959595; stroke:none;" d="M129 186L130 187L129 186z"/>
<path style="fill:#868686; stroke:none;" d="M109 187L110 188L109 187z"/>
<path style="fill:#404040; stroke:none;" d="M127 187L128 188L127 187z"/>
<path style="fill:#494949; stroke:none;" d="M108 188L109 189L108 188z"/>
<path style="fill:#8c8c8c; stroke:none;" d="M126 188L127 189L126 188z"/>
<path style="fill:#bbbbbb; stroke:none;" d="M106 189L107 190L106 189z"/>
<path style="fill:#353535; stroke:none;" d="M124 189L125 190L124 189z"/>
<path style="fill:#777777; stroke:none;" d="M105 190L106 191L105 190z"/>
<path style="fill:#787878; stroke:none;" d="M123 190L124 191L123 190z"/>
<path style="fill:#333333; stroke:none;" d="M121 191L122 192L121 191z"/>
<path style="fill:#cfcfcf; stroke:none;" d="M122 191L123 192L122 191z"/>
<path style="fill:#878787; stroke:none;" d="M102 192L103 193L102 192z"/>
<path style="fill:#949494; stroke:none;" d="M120 192L121 193L120 192z"/>
<path style="fill:#d1d1d1; stroke:none;" d="M100 193L101 194L100 193z"/>
<path style="fill:#3c3c3c; stroke:none;" d="M101 193L102 194L101 193z"/>
<path style="fill:#474747; stroke:none;" d="M118 193L119 194L118 193z"/>
<path style="fill:#8a8a8a; stroke:none;" d="M99 194L100 195L99 194z"/>
<path style="fill:#a4a4a4; stroke:none;" d="M117 194L118 195L117 194z"/>
<path style="fill:#3e3e3e; stroke:none;" d="M98 195L99 196L98 195z"/>
<path style="fill:#757575; stroke:none;" d="M115 195L116 196L115 195z"/>
<path style="fill:#ababab; stroke:none;" d="M96 196L97 197L96 196z"/>
<path style="fill:#4f4f4f; stroke:none;" d="M113 196L114 197L113 196M95 197L96 198L95 197z"/>
<path style="fill:#b8b8b8; stroke:none;" d="M112 197L113 198L112 197z"/>
<path style="fill:#979797; stroke:none;" d="M93 198L94 199L93 198z"/>
<path style="fill:#868686; stroke:none;" d="M110 198L111 199L110 198z"/>
<path style="fill:#cbcbcb; stroke:none;" d="M91 199L92 200L91 199z"/>
<path style="fill:#323232; stroke:none;" d="M92 199L93 200L92 199z"/>
<path style="fill:#646464; stroke:none;" d="M108 199L109 200L108 199z"/>
<path style="fill:#d4d4d4; stroke:none;" d="M89 200L90 201L89 200z"/>
<path style="fill:#636363; stroke:none;" d="M90 200L91 201L90 200z"/>
<path style="fill:#4f4f4f; stroke:none;" d="M106 200L107 201L106 200z"/>
<path style="fill:#6e6e6e; stroke:none;" d="M88 201L89 202L88 201z"/>
<path style="fill:#4d4d4d; stroke:none;" d="M104 201L105 202L104 201z"/>
<path style="fill:#c3c3c3; stroke:none;" d="M105 201L106 202L105 201z"/>
<path style="fill:#767676; stroke:none;" d="M86 202L87 203L86 202z"/>
<path style="fill:#4c4c4c; stroke:none;" d="M102 202L103 203L102 202z"/>
<path style="fill:#b3b3b3; stroke:none;" d="M103 202L104 203L103 202z"/>
<path style="fill:#c5c5c5; stroke:none;" d="M83 203L84 204L83 203z"/>
<path style="fill:#4b4b4b; stroke:none;" d="M84 203L85 204L84 203z"/>
<path style="fill:#333333; stroke:none;" d="M100 203L101 204L100 203z"/>
<path style="fill:#b9b9b9; stroke:none;" d="M101 203L102 204L101 203z"/>
<path style="fill:#969696; stroke:none;" d="M81 204L82 205L81 204z"/>
<path style="fill:#494949; stroke:none;" d="M98 204L99 205L98 204z"/>
<path style="fill:#c9c9c9; stroke:none;" d="M99 204L100 205L99 204z"/>
<path style="fill:#a9a9a9; stroke:none;" d="M78 205L79 206L78 205z"/>
<path style="fill:#5e5e5e; stroke:none;" d="M79 205L80 206L79 205z"/>
<path style="fill:#5f5f5f; stroke:none;" d="M96 205L97 206L96 205z"/>
<path style="fill:#c0c0c0; stroke:none;" d="M97 205L98 206L97 205z"/>
<path style="fill:#aeaeae; stroke:none;" d="M75 206L76 207L75 206z"/>
<path style="fill:#575757; stroke:none;" d="M76 206L77 207L76 206z"/>
<path style="fill:#797979; stroke:none;" d="M94 206L95 207L94 206z"/>
<path style="fill:#d4d4d4; stroke:none;" d="M71 207L72 208L71 207z"/>
<path style="fill:#838383; stroke:none;" d="M72 207L73 208L72 207z"/>
<path style="fill:#393939; stroke:none;" d="M73 207L74 208L73 207z"/>
<path style="fill:#343434; stroke:none;" d="M91 207L92 208L91 207z"/>
<path style="fill:#a3a3a3; stroke:none;" d="M92 207L93 208L92 207z"/>
<path style="fill:#b7b7b7; stroke:none;" d="M67 208L68 209L67 208z"/>
<path style="fill:#868686; stroke:none;" d="M68 208L69 209L68 208z"/>
<path style="fill:#6a6a6a; stroke:none;" d="M89 208L90 209L89 208z"/>
<path style="fill:#d3d3d3; stroke:none;" d="M90 208L91 209L90 208z"/>
<path style="fill:#595959; stroke:none;" d="M66 209L67 210L66 209z"/>
<path style="fill:#555555; stroke:none;" d="M86 209L87 210L86 209z"/>
<path style="fill:#b8b8b8; stroke:none;" d="M87 209L88 210L87 209z"/>
<path style="fill:#5d5d5d; stroke:none;" d="M83 210L84 211L83 210z"/>
<path style="fill:#b1b1b1; stroke:none;" d="M84 210L85 211L84 210z"/>
<path style="fill:#6c6c6c; stroke:none;" d="M80 211L81 212L80 211z"/>
<path style="fill:#bebebe; stroke:none;" d="M81 211L82 212L81 211z"/>
<path style="fill:#9c9c9c; stroke:none;" d="M66 212L67 213L66 212z"/>
<path style="fill:#424242; stroke:none;" d="M67 212L68 213L67 212z"/>
<path style="fill:#636363; stroke:none;" d="M74 212C75.2484 212.685 75.5484 212.749 77 213C75.7517 212.315 75.4516 212.251 74 212z"/>
<path style="fill:#bebebe; stroke:none;" d="M77 212L78 213L77 212z"/>
</svg>
