<?xml version="1.0" standalone="no"?>
<!DOCTYPE svg PUBLIC "-//W3C//DTD SVG 20010904//EN"
 "http://www.w3.org/TR/2001/REC-SVG-20010904/DTD/svg10.dtd">
<svg version="1.0" xmlns="http://www.w3.org/2000/svg"
 width="360.000000pt" height="360.000000pt" viewBox="0 0 360.000000 360.000000"
 preserveAspectRatio="xMidYMid meet">

<g transform="translate(0.000000,360.000000) scale(0.100000,-0.100000)"
fill="#000000" stroke="none">
<path d="M2330 2795 c0 -10 11 -15 35 -15 19 0 35 -2 35 -4 0 -3 -82 -86 -182
-186 l-181 -181 -41 40 c-23 23 -48 41 -55 41 -7 0 -66 -53 -131 -117 -65 -65
-132 -131 -149 -148 l-31 -29 -75 74 -75 75 -200 -200 c-110 -110 -200 -203
-200 -207 0 -26 45 12 212 179 l188 188 73 -73 c40 -39 77 -72 82 -72 5 0 76
66 157 147 l148 147 43 -42 c23 -23 47 -42 52 -42 6 0 94 84 197 187 180 180
188 186 188 155 0 -20 5 -32 14 -32 14 0 32 103 21 121 -4 5 -33 9 -66 9 -46
0 -59 -3 -59 -15z"/>
<path d="M970 2660 l0 -80 -70 0 c-56 0 -70 -3 -70 -15 0 -12 14 -15 70 -15
l70 0 0 -55 0 -55 -71 0 c-52 0 -70 -3 -66 -12 2 -9 26 -13 70 -13 l67 0 0
-52 0 -53 -70 0 c-56 0 -70 -3 -70 -15 0 -12 14 -15 70 -15 l70 0 0 -52 0 -53
-61 3 c-37 3 -66 -1 -72 -7 -20 -20 13 -32 76 -28 l57 3 0 -53 0 -53 -70 0
c-56 0 -70 -3 -70 -15 0 -12 14 -15 70 -15 l70 0 0 -52 0 -53 -67 0 c-44 0
-68 -4 -70 -12 -4 -10 14 -13 66 -13 l71 0 0 -55 0 -55 -70 0 c-56 0 -70 -3
-70 -15 0 -12 14 -15 70 -15 l70 0 0 -50 0 -50 -70 0 c-56 0 -70 -3 -70 -15 0
-12 14 -15 70 -15 l70 0 0 -55 0 -55 -71 0 c-52 0 -70 -3 -66 -12 2 -9 26 -13
70 -13 l67 0 0 -52 0 -53 -70 0 c-56 0 -70 -3 -70 -15 0 -12 14 -15 70 -15
l70 0 0 -55 0 -55 -71 0 c-52 0 -70 -3 -67 -12 3 -8 29 -14 71 -16 l67 -3 0
-49 0 -50 -70 0 c-56 0 -70 -3 -70 -15 0 -12 14 -15 70 -15 l70 0 0 -55 0 -55
-75 0 c-60 0 -75 -3 -75 -15 0 -12 15 -15 75 -15 l75 0 0 -70 c0 -56 3 -70 15
-70 12 0 15 14 15 70 l0 70 110 0 110 0 0 -71 c0 -52 3 -70 13 -67 7 3 13 29
15 71 l3 67 49 0 50 0 0 -70 c0 -56 3 -70 15 -70 12 0 15 14 15 70 l0 70 53 0
52 0 0 -67 c0 -54 3 -68 15 -68 11 0 15 14 17 55 1 30 2 61 2 68 1 8 18 12 51
12 l50 0 0 -70 c0 -56 3 -70 15 -70 12 0 15 14 15 70 l0 70 53 0 52 0 0 -67
c0 -44 4 -68 13 -70 9 -4 12 14 12 66 l0 71 55 0 55 0 0 -70 c0 -56 3 -70 15
-70 12 0 15 14 15 70 l0 70 50 0 49 0 3 -67 c2 -42 8 -68 16 -71 9 -3 12 15
12 67 l0 71 55 0 55 0 0 -71 c0 -52 3 -70 13 -67 7 3 13 29 15 71 l3 67 49 0
50 0 0 -70 c0 -56 3 -70 15 -70 12 0 15 14 15 70 l0 70 55 0 55 0 0 -71 c0
-52 3 -70 13 -66 8 2 12 26 12 70 l0 67 53 0 52 0 0 -70 c0 -56 3 -70 15 -70
12 0 15 14 15 70 l0 70 55 0 56 0 -7 -64 c-5 -44 -3 -65 5 -71 19 -11 21 -3
22 68 1 67 1 67 30 67 19 0 29 5 29 15 0 13 -106 15 -890 15 l-890 0 0 890 c0
784 -2 890 -15 890 -12 0 -15 -16 -15 -80z"/>
<path d="M2488 2623 l72 -4 0 -759 0 -760 -59 0 c-38 0 -61 4 -64 13 -3 7 -6
5 -6 -5 -1 -16 9 -18 69 -18 l70 0 0 770 0 770 -77 -2 -78 -2 73 -3z"/>
<path d="M2035 2180 c-3 -5 -1 -10 4 -10 6 0 11 5 11 10 0 6 -2 10 -4 10 -3 0
-8 -4 -11 -10z"/>
<path d="M1915 1635 c0 -291 1 -409 2 -262 2 148 2 386 0 530 -1 144 -2 24 -2
-268z"/>
<path d="M2040 1630 l0 -529 -67 -4 -68 -3 73 -2 72 -2 0 535 c0 294 -2 535
-5 535 -3 0 -5 -238 -5 -530z"/>
<path d="M1400 2093 c0 -5 29 -6 65 -5 l65 4 0 -496 0 -495 -72 -4 -73 -3 78
-2 77 -2 0 505 0 505 -70 0 c-38 0 -70 -3 -70 -7z"/>
</g>
</svg>
